<svg xmlns="http://www.w3.org/2000/svg" viewBox="0 -0.5 145 69" shape-rendering="crispEdges">
<metadata>Made with Pixels to Svg https://codepen.io/shshaw/pen/XbxvNj</metadata>
<path stroke="#eb392c" d="M18 39h3M26 39h3M36 39h3M44 39h3M54 39h3M62 39h3M72 39h3M80 39h3M90 39h3M17 40h1M19 40h3M25 40h5M35 40h1M37 40h3M43 40h5M53 40h1M55 40h3M61 40h5M71 40h1M73 40h3M79 40h5M89 40h1M91 40h3M16 41h1M19 41h4M24 41h6M34 41h1M37 41h4M42 41h6M52 41h1M55 41h4M60 41h6M70 41h1M73 41h4M78 41h6M88 41h1M91 41h4M16 42h1M18 42h12M34 42h1M36 42h12M52 42h1M54 42h12M70 42h1M72 42h12M88 42h1M90 42h5M16 43h1M18 43h12M34 43h1M36 43h12M52 43h1M54 43h12M70 43h1M72 43h12M88 43h1M90 43h5M16 44h11M28 44h2M34 44h11M46 44h2M52 44h11M64 44h2M70 44h11M82 44h2M88 44h7M17 45h11M35 45h11M53 45h11M71 45h11M89 45h6M18 46h9M36 46h9M54 46h9M72 46h9M90 46h5M19 47h5M25 47h1M37 47h5M43 47h1M55 47h5M61 47h1M73 47h5M79 47h1M91 47h4M20 48h5M38 48h5M56 48h5M74 48h5M92 48h3M21 49h3M39 49h3M57 49h3M75 49h3M93 49h2M22 50h2M40 50h2M58 50h2M76 50h2M94 50h1" />
<path stroke="#fbe9e8" d="M18 40h1M36 40h1M54 40h1M72 40h1M90 40h1M17 41h2M35 41h2M53 41h2M71 41h2M89 41h2M17 42h1M35 42h1M53 42h1M71 42h1M89 42h1M17 43h1M35 43h1M53 43h1M71 43h1M89 43h1" />
<path stroke="#b22b22" d="M30 41h1M48 41h1M66 41h1M84 41h1M30 42h1M48 42h1M66 42h1M84 42h1M30 43h1M48 43h1M66 43h1M84 43h1M27 44h1M30 44h1M45 44h1M48 44h1M63 44h1M66 44h1M81 44h1M84 44h1M28 45h2M46 45h2M64 45h2M82 45h2M27 46h2M45 46h2M63 46h2M81 46h2M24 47h1M26 47h2M42 47h1M44 47h2M60 47h1M62 47h2M78 47h1M80 47h2M25 48h2M43 48h2M61 48h2M79 48h2M24 49h2M42 49h2M60 49h2M78 49h2M24 50h1M42 50h1M60 50h1M78 50h1M23 51h1M41 51h1M59 51h1M77 51h1" />
</svg>