<svg xmlns="http://www.w3.org/2000/svg" viewBox="0 -0.5 145 69" shape-rendering="crispEdges">
<metadata>Made with Pixels to Svg https://codepen.io/shshaw/pen/XbxvNj</metadata>
<path stroke="#eb392c" d="M18 39h3M26 39h3M17 40h1M19 40h3M25 40h5M16 41h1M19 41h4M24 41h6M16 42h1M18 42h12M16 43h1M18 43h12M16 44h11M28 44h2M17 45h11M18 46h9M19 47h5M25 47h1M20 48h5M21 49h3M22 50h2" />
<path stroke="#fbe9e8" d="M18 40h1M17 41h2M17 42h1M17 43h1" />
<path stroke="#b22b22" d="M30 41h1M30 42h1M30 43h1M27 44h1M30 44h1M28 45h2M27 46h2M24 47h1M26 47h2M25 48h2M24 49h2M24 50h1M23 51h1" />
</svg>