<svg xmlns="http://www.w3.org/2000/svg" viewBox="0 -0.5 150 43" shape-rendering="crispEdges">
<metadata>Made with Pixels to Svg https://codepen.io/shshaw/pen/XbxvNj</metadata>
<path stroke="#000000" d="M2 1h4M144 1h4M1 2h1M6 2h138M148 2h1M1 3h1M7 3h1M142 3h1M148 3h1M1 4h1M7 4h1M142 4h1M148 4h1M1 5h1M7 5h136M148 5h1M2 6h1M6 6h1M143 6h1M147 6h1M2 7h4M144 7h4M2 8h1M5 8h1M144 8h1M147 8h1M2 9h1M5 9h1M144 9h1M147 9h1M2 10h4M144 10h4M2 11h1M5 11h1M144 11h1M147 11h1M2 12h1M5 12h1M144 12h1M147 12h1M2 13h4M144 13h4M2 14h1M5 14h1M144 14h1M147 14h1M2 15h1M5 15h1M144 15h1M147 15h1M2 16h1M5 16h1M144 16h1M147 16h1M2 17h1M5 17h1M144 17h1M147 17h1M2 18h1M5 18h1M144 18h1M147 18h1M2 19h1M5 19h1M144 19h1M147 19h1M2 20h1M5 20h1M144 20h1M147 20h1M2 21h1M5 21h1M144 21h1M147 21h1M2 22h1M5 22h1M144 22h1M147 22h1M2 23h1M5 23h1M144 23h1M147 23h1M2 24h1M5 24h1M144 24h1M147 24h1M2 25h1M5 25h1M144 25h1M147 25h1M2 26h1M5 26h1M144 26h1M147 26h1M2 27h1M5 27h1M144 27h1M147 27h1M2 28h1M5 28h1M144 28h1M147 28h1M2 29h4M144 29h4M2 30h1M5 30h1M144 30h1M147 30h1M2 31h1M5 31h1M144 31h1M147 31h1M2 32h4M144 32h4M2 33h1M5 33h1M144 33h1M147 33h1M2 34h1M5 34h1M144 34h1M147 34h1M2 35h4M144 35h4M2 36h1M6 36h1M143 36h1M147 36h1M1 37h1M7 37h136M148 37h1M1 38h1M7 38h1M142 38h1M148 38h1M1 39h1M7 39h1M142 39h1M148 39h1M1 40h1M6 40h138M148 40h1M2 41h4M144 41h4" />
<path stroke="#d8c5b2" d="M2 2h1M147 2h1M2 40h1M147 40h1" />
<path stroke="#c4ab8f" d="M3 2h2M145 2h2M2 3h2M146 3h2M2 4h1M147 4h1M2 38h1M147 38h1M2 39h2M146 39h2M3 40h2M145 40h2" />
<path stroke="#b49c83" d="M5 2h1M144 2h1M4 3h2M144 3h2M3 4h2M145 4h2M2 5h2M146 5h2M2 37h2M146 37h2M3 38h2M145 38h2M4 39h2M144 39h2M5 40h1M144 40h1" />
<path stroke="#a38e75" d="M6 3h1M143 3h1M5 4h2M143 4h2M4 5h3M143 5h3M3 6h3M144 6h3M3 36h3M144 36h3M4 37h3M143 37h3M5 38h2M143 38h2M6 39h1M143 39h1" />
<path stroke="#534645" d="M8 3h2M140 3h2M3 14h1M146 14h1M3 15h1M146 15h1M3 16h1M146 16h1M3 17h1M146 17h1M3 18h1M146 18h1M3 19h1M146 19h1M3 20h1M146 20h1M3 21h1M146 21h1M3 22h1M146 22h1M3 23h1M146 23h1M3 24h1M146 24h1M3 25h1M146 25h1M3 26h1M146 26h1M3 27h1M146 27h1M3 28h1M146 28h1M8 39h2M140 39h2" />
<path stroke="#433838" d="M10 3h2M22 3h101M124 3h1M138 3h2M8 4h5M136 4h6M4 8h1M145 8h1M4 9h1M145 9h1M4 14h1M145 14h1M4 15h1M145 15h1M4 16h1M145 16h1M4 17h1M145 17h1M4 18h1M145 18h1M4 19h1M145 19h1M4 20h1M145 20h1M4 21h1M145 21h1M4 22h1M145 22h1M4 23h1M145 23h1M4 24h1M145 24h1M4 25h1M145 25h1M4 26h1M145 26h1M4 27h1M145 27h1M4 28h1M145 28h1M4 33h1M145 33h1M4 34h1M145 34h1M8 38h5M136 38h6M10 39h2M15 39h4M26 39h97M124 39h1M138 39h2" />
<path stroke="#362e2e" d="M12 3h10M123 3h1M125 3h13M12 39h3M19 39h7M123 39h1M125 39h13" />
<path stroke="#2d2626" d="M13 4h123M13 38h123" />
<path stroke="#616161" d="M7 6h136M6 7h3M141 7h3M6 8h2M142 8h2M6 9h1M143 9h1M6 10h1M143 10h1M6 11h1M143 11h1M6 12h1M143 12h1M6 13h1M143 13h1M6 14h1M143 14h1M6 15h1M143 15h1M6 16h1M143 16h1M6 17h1M143 17h1M6 18h1M143 18h1M6 19h1M143 19h1M6 20h1M143 20h1M6 21h1M143 21h1M6 22h1M143 22h1M6 23h1M143 23h1M6 24h1M143 24h1M6 25h1M143 25h1M6 26h1M143 26h1M6 27h1M143 27h1M6 28h1M143 28h1M6 29h1M143 29h1M6 30h1M143 30h1M6 31h1M143 31h1M6 32h1M143 32h1M6 33h1M143 33h1M6 34h2M142 34h2M6 35h3M141 35h3M7 36h136" />
<path stroke="#6f6f6f" d="M9 7h132M8 8h134M7 9h136M7 10h136M7 11h136M7 12h136M7 13h136M7 14h136M7 15h136M7 16h136M7 17h136M7 18h136M7 19h136M7 20h136M7 21h136M7 22h136M7 23h136M7 24h136M7 25h136M7 26h136M7 27h136M7 28h136M7 29h136M7 30h136M7 31h136M7 32h136M7 33h136M8 34h134M9 35h132" />
<path stroke="#5e504f" d="M3 8h1M146 8h1M3 9h1M146 9h1M3 33h1M146 33h1M3 34h1M146 34h1" />
<path stroke="#9eadb6" d="M3 11h1M146 11h1M3 12h1M146 12h1M3 30h1M146 30h1M3 31h1M146 31h1" />
<path stroke="#737e84" d="M4 11h1M145 11h1M4 12h1M145 12h1M4 30h1M145 30h1M4 31h1M145 31h1" />
</svg>