<svg xmlns="http://www.w3.org/2000/svg" viewBox="0 -0.5 444 198" shape-rendering="crispEdges">
<metadata>Made with Pixels to Svg https://codepen.io/shshaw/pen/XbxvNj</metadata>
<path stroke="#000000" d="M164 43h8M230 43h8M157 44h7M172 44h3M227 44h3M238 44h7M157 45h1M175 45h4M223 45h4M244 45h1M158 46h1M167 46h4M179 46h3M220 46h3M231 46h4M243 46h1M117 47h6M158 47h5M182 47h3M217 47h3M239 47h5M279 47h6M116 48h1M123 48h156M285 48h1M116 49h1M123 49h2M277 49h2M285 49h1M116 50h1M124 50h1M277 50h1M285 50h1M116 51h1M124 51h154M285 51h1M116 52h1M124 52h1M277 52h1M285 52h1M116 53h1M124 53h1M277 53h1M285 53h1M117 54h2M123 54h2M277 54h2M283 54h2M117 55h7M278 55h7M117 56h1M120 56h1M281 56h1M284 56h1M117 57h1M120 57h1M281 57h1M284 57h1M117 58h1M120 58h1M128 58h4M270 58h4M281 58h1M284 58h1M117 59h4M127 59h1M132 59h138M274 59h1M281 59h4M117 60h1M120 60h1M127 60h1M133 60h1M268 60h1M274 60h1M281 60h1M284 60h1M117 61h1M120 61h1M127 61h1M133 61h1M268 61h1M274 61h1M281 61h1M284 61h1M117 62h4M127 62h1M133 62h136M274 62h1M281 62h4M117 63h1M120 63h1M128 63h1M132 63h1M269 63h1M273 63h1M281 63h1M284 63h1M117 64h1M120 64h1M128 64h4M270 64h4M281 64h1M284 64h1M117 65h1M120 65h1M128 65h1M131 65h1M270 65h1M273 65h1M281 65h1M284 65h1M117 66h4M128 66h1M131 66h1M270 66h1M273 66h1M281 66h4M117 67h1M120 67h1M128 67h4M270 67h4M281 67h1M284 67h1M117 68h1M120 68h1M128 68h1M131 68h1M270 68h1M273 68h1M281 68h1M284 68h1M117 69h4M128 69h1M131 69h1M270 69h1M273 69h1M281 69h4M117 70h1M120 70h1M128 70h4M270 70h4M281 70h1M284 70h1M117 71h1M120 71h1M128 71h1M131 71h1M270 71h1M273 71h1M281 71h1M284 71h1M117 72h1M120 72h1M128 72h1M131 72h1M270 72h1M273 72h1M281 72h1M284 72h1M117 73h4M128 73h1M131 73h1M270 73h1M273 73h1M281 73h4M117 74h1M120 74h1M128 74h1M131 74h1M270 74h1M273 74h1M281 74h1M284 74h1M117 75h1M120 75h1M128 75h1M131 75h1M270 75h1M273 75h1M281 75h1M284 75h1M117 76h4M128 76h1M131 76h1M270 76h1M273 76h1M281 76h4M117 77h1M120 77h1M128 77h1M131 77h1M270 77h1M273 77h1M281 77h1M284 77h1M117 78h1M120 78h1M128 78h1M131 78h1M270 78h1M273 78h1M281 78h1M284 78h1M117 79h1M120 79h1M128 79h1M131 79h1M270 79h1M273 79h1M281 79h1M284 79h1M117 80h1M120 80h1M128 80h1M131 80h1M270 80h1M273 80h1M281 80h1M284 80h1M117 81h1M120 81h1M128 81h1M131 81h1M270 81h1M273 81h1M281 81h1M284 81h1M117 82h4M128 82h1M131 82h1M270 82h1M273 82h1M281 82h4M117 83h1M120 83h1M128 83h1M131 83h1M270 83h1M273 83h1M281 83h1M284 83h1M117 84h1M120 84h1M128 84h4M270 84h4M281 84h1M284 84h1M117 85h4M128 85h1M132 85h1M269 85h1M273 85h1M281 85h4M117 86h1M120 86h1M127 86h1M133 86h136M274 86h1M281 86h1M284 86h1M117 87h1M120 87h1M127 87h1M133 87h1M268 87h1M274 87h1M281 87h1M284 87h1M117 88h1M120 88h1M127 88h1M133 88h1M268 88h1M274 88h1M281 88h1M284 88h1M117 89h1M120 89h1M127 89h1M132 89h138M274 89h1M281 89h1M284 89h1M117 90h1M120 90h1M128 90h4M270 90h4M281 90h1M284 90h1M117 91h4M281 91h4M117 92h1M120 92h1M281 92h1M284 92h1M117 93h1M120 93h1M281 93h1M284 93h1M117 94h4M281 94h4M117 95h1M120 95h1M281 95h1M284 95h1M117 96h1M120 96h1M281 96h1M284 96h1M117 97h1M120 97h1M125 97h4M170 97h4M228 97h4M273 97h4M281 97h1M284 97h1M117 98h1M120 98h1M124 98h1M129 98h41M174 98h1M227 98h1M232 98h41M277 98h1M281 98h1M284 98h1M117 99h1M120 99h1M124 99h1M130 99h1M168 99h1M174 99h1M227 99h1M233 99h1M271 99h1M277 99h1M281 99h1M284 99h1M117 100h1M120 100h1M124 100h1M130 100h1M168 100h1M174 100h1M227 100h1M233 100h1M271 100h1M277 100h1M281 100h1M284 100h1M117 101h1M120 101h1M124 101h1M130 101h39M174 101h1M227 101h1M233 101h39M277 101h1M281 101h1M284 101h1M117 102h1M120 102h1M125 102h1M129 102h1M169 102h1M173 102h1M228 102h1M232 102h1M272 102h1M276 102h1M281 102h1M284 102h1M117 103h1M120 103h1M125 103h4M170 103h4M228 103h4M273 103h4M281 103h1M284 103h1M117 104h1M120 104h1M125 104h1M128 104h1M170 104h1M173 104h1M228 104h1M231 104h1M273 104h1M276 104h1M281 104h1M284 104h1M117 105h1M120 105h1M125 105h1M128 105h1M170 105h1M173 105h1M228 105h1M231 105h1M273 105h1M276 105h1M281 105h1M284 105h1M117 106h1M120 106h1M125 106h1M128 106h1M170 106h1M173 106h1M228 106h1M231 106h1M273 106h1M276 106h1M281 106h1M284 106h1M117 107h1M120 107h1M125 107h1M128 107h1M170 107h1M173 107h1M228 107h1M231 107h1M273 107h1M276 107h1M281 107h1M284 107h1M117 108h1M120 108h1M125 108h1M128 108h1M170 108h1M173 108h1M228 108h1M231 108h1M273 108h1M276 108h1M281 108h1M284 108h1M117 109h1M120 109h1M125 109h4M170 109h4M228 109h4M273 109h4M281 109h1M284 109h1M117 110h1M120 110h1M125 110h1M128 110h1M170 110h1M173 110h1M228 110h1M231 110h1M273 110h1M276 110h1M281 110h1M284 110h1M117 111h4M125 111h1M128 111h1M170 111h1M173 111h1M228 111h1M231 111h1M273 111h1M276 111h1M281 111h4M117 112h1M120 112h1M125 112h4M170 112h4M228 112h4M273 112h4M281 112h1M284 112h1M117 113h1M120 113h1M125 113h1M128 113h1M170 113h1M173 113h1M228 113h1M231 113h1M273 113h1M276 113h1M281 113h1M284 113h1M117 114h4M125 114h1M128 114h1M170 114h1M173 114h1M228 114h1M231 114h1M273 114h1M276 114h1M281 114h4M117 115h1M120 115h1M125 115h1M128 115h1M170 115h1M173 115h1M228 115h1M231 115h1M273 115h1M276 115h1M281 115h1M284 115h1M117 116h1M120 116h1M125 116h4M170 116h4M228 116h4M273 116h4M281 116h1M284 116h1M117 117h1M120 117h1M125 117h1M128 117h1M170 117h1M173 117h1M228 117h1M231 117h1M273 117h1M276 117h1M281 117h1M284 117h1M117 118h1M120 118h1M125 118h1M128 118h1M170 118h1M173 118h1M228 118h1M231 118h1M273 118h1M276 118h1M281 118h1M284 118h1M117 119h1M120 119h1M125 119h4M170 119h4M228 119h4M273 119h4M281 119h1M284 119h1M117 120h4M125 120h1M128 120h1M170 120h1M173 120h1M228 120h1M231 120h1M273 120h1M276 120h1M281 120h4M117 121h1M120 121h1M125 121h1M128 121h1M170 121h1M173 121h1M228 121h1M231 121h1M273 121h1M276 121h1M281 121h1M284 121h1M117 122h1M120 122h1M125 122h1M128 122h1M170 122h1M173 122h1M228 122h1M231 122h1M273 122h1M276 122h1M281 122h1M284 122h1M117 123h4M125 123h4M170 123h4M228 123h4M273 123h4M281 123h4M117 124h1M120 124h1M125 124h1M128 124h1M170 124h1M173 124h1M228 124h1M231 124h1M273 124h1M276 124h1M281 124h1M284 124h1M117 125h1M120 125h1M125 125h1M128 125h1M170 125h1M173 125h1M228 125h1M231 125h1M273 125h1M276 125h1M281 125h1M284 125h1M117 126h1M120 126h1M125 126h4M170 126h4M228 126h4M273 126h4M281 126h1M284 126h1M117 127h1M120 127h1M125 127h1M128 127h1M170 127h1M173 127h1M228 127h1M231 127h1M273 127h1M276 127h1M281 127h1M284 127h1M117 128h1M120 128h1M125 128h1M128 128h1M170 128h1M173 128h1M228 128h1M231 128h1M273 128h1M276 128h1M281 128h1M284 128h1M117 129h4M125 129h4M170 129h4M228 129h4M273 129h4M281 129h4M117 130h1M120 130h1M125 130h1M128 130h1M170 130h1M173 130h1M228 130h1M231 130h1M273 130h1M276 130h1M281 130h1M284 130h1M117 131h1M120 131h1M125 131h1M128 131h1M170 131h1M173 131h1M228 131h1M231 131h1M273 131h1M276 131h1M281 131h1M284 131h1M117 132h4M125 132h4M170 132h4M228 132h4M273 132h4M281 132h4M117 133h1M120 133h1M125 133h1M128 133h1M170 133h1M173 133h1M228 133h1M231 133h1M273 133h1M276 133h1M281 133h1M284 133h1M117 134h1M120 134h1M125 134h1M128 134h1M170 134h1M173 134h1M228 134h1M231 134h1M273 134h1M276 134h1M281 134h1M284 134h1M117 135h1M120 135h1M125 135h1M128 135h1M170 135h1M173 135h1M228 135h1M231 135h1M273 135h1M276 135h1M281 135h1M284 135h1M117 136h1M120 136h1M125 136h4M170 136h4M228 136h4M273 136h4M281 136h1M284 136h1M117 137h4M125 137h1M128 137h1M170 137h1M173 137h1M228 137h1M231 137h1M273 137h1M276 137h1M281 137h4M117 138h1M120 138h1M125 138h1M128 138h1M170 138h1M173 138h1M228 138h1M231 138h1M273 138h1M276 138h1M281 138h1M284 138h1M117 139h1M120 139h1M125 139h4M170 139h4M228 139h4M273 139h4M281 139h1M284 139h1M117 140h4M125 140h1M128 140h1M170 140h1M173 140h1M228 140h1M231 140h1M273 140h1M276 140h1M281 140h4M117 141h1M120 141h1M125 141h1M128 141h1M170 141h1M173 141h1M228 141h1M231 141h1M273 141h1M276 141h1M281 141h1M284 141h1M117 142h1M120 142h1M125 142h1M128 142h1M170 142h1M173 142h1M228 142h1M231 142h1M273 142h1M276 142h1M281 142h1M284 142h1M117 143h1M120 143h1M125 143h4M170 143h4M228 143h4M273 143h4M281 143h1M284 143h1M117 144h4M125 144h1M128 144h1M170 144h1M173 144h1M228 144h1M231 144h1M273 144h1M276 144h1M281 144h4M117 145h1M120 145h1M125 145h1M128 145h1M170 145h1M173 145h1M228 145h1M231 145h1M273 145h1M276 145h1M281 145h1M284 145h1M117 146h1M120 146h1M125 146h4M170 146h4M228 146h4M273 146h4M281 146h1M284 146h1M117 147h4M125 147h1M128 147h1M170 147h1M173 147h1M228 147h1M231 147h1M273 147h1M276 147h1M281 147h4M117 148h1M120 148h1M125 148h1M128 148h1M170 148h1M173 148h1M228 148h1M231 148h1M273 148h1M276 148h1M281 148h1M284 148h1M117 149h1M120 149h1M125 149h1M128 149h1M170 149h1M173 149h1M228 149h1M231 149h1M273 149h1M276 149h1M281 149h1M284 149h1M117 150h1M120 150h1M125 150h1M128 150h1M170 150h1M173 150h1M228 150h1M231 150h1M273 150h1M276 150h1M281 150h1M284 150h1M117 151h4M125 151h1M128 151h1M170 151h1M173 151h1M228 151h1M231 151h1M273 151h1M276 151h1M281 151h4M117 152h1M120 152h1M125 152h4M170 152h4M228 152h4M273 152h4M281 152h1M284 152h1M117 153h1M120 153h1M125 153h1M129 153h1M169 153h1M173 153h1M228 153h1M232 153h1M272 153h1M276 153h1M281 153h1M284 153h1M117 154h4M124 154h1M130 154h39M174 154h1M227 154h1M233 154h39M277 154h1M281 154h4M117 155h1M120 155h1M124 155h1M130 155h1M168 155h1M174 155h1M227 155h1M233 155h1M271 155h1M277 155h1M281 155h1M284 155h1M117 156h1M120 156h1M124 156h1M130 156h1M168 156h1M174 156h1M227 156h1M233 156h1M271 156h1M277 156h1M281 156h1M284 156h1M117 157h1M120 157h1M124 157h1M129 157h41M174 157h1M227 157h1M232 157h41M277 157h1M281 157h1M284 157h1M117 158h7M125 158h4M170 158h4M228 158h4M273 158h4M278 158h7M117 159h2M123 159h2M277 159h2M283 159h2M116 160h1M124 160h1M277 160h1M285 160h1M116 161h1M124 161h1M277 161h1M285 161h1M116 162h1M124 162h154M285 162h1M116 163h1M124 163h1M277 163h1M285 163h1M116 164h1M123 164h2M277 164h2M285 164h1M116 165h1M123 165h156M285 165h1M117 166h6M279 166h6" />
<path stroke="#d8c5b2" d="M164 44h1M237 44h1M158 45h1M243 45h1M171 46h1M230 46h1M117 48h2M283 48h2M117 49h2M283 49h2M128 59h1M273 59h1M128 89h1M273 89h1M125 98h1M173 98h1M228 98h1M276 98h1M125 157h1M173 157h1M228 157h1M276 157h1M117 164h2M283 164h2M117 165h2M283 165h2" />
<path stroke="#b49c83" d="M165 44h7M230 44h7M159 45h5M238 45h5M122 48h1M279 48h1M122 49h1M279 49h1M120 50h3M279 50h3M119 51h3M280 51h3M119 52h3M280 52h3M117 53h3M282 53h3M131 59h1M270 59h1M130 60h2M270 60h2M129 61h2M271 61h2M128 62h2M272 62h2M128 86h2M272 86h2M129 87h2M271 87h2M130 88h2M270 88h2M131 89h1M270 89h1M128 98h1M170 98h1M231 98h1M273 98h1M127 99h2M170 99h2M230 99h2M273 99h2M126 100h2M171 100h2M229 100h2M274 100h2M125 101h2M172 101h2M228 101h2M275 101h2M125 154h2M172 154h2M228 154h2M275 154h2M126 155h2M171 155h2M229 155h2M274 155h2M127 156h2M170 156h2M230 156h2M273 156h2M128 157h1M170 157h1M231 157h1M273 157h1M117 160h3M282 160h3M119 161h3M280 161h3M119 162h3M280 162h3M120 163h3M279 163h3M122 164h1M279 164h1M122 165h1M279 165h1" />
<path stroke="#a38e75" d="M164 45h11M227 45h11M159 46h8M172 46h7M223 46h7M235 46h8M163 47h19M220 47h19M123 50h1M278 50h1M122 51h2M278 51h2M122 52h2M278 52h2M120 53h4M278 53h4M119 54h4M279 54h4M132 60h1M269 60h1M131 61h2M269 61h2M130 62h3M269 62h3M129 63h3M270 63h3M129 85h3M270 85h3M130 86h3M269 86h3M131 87h2M269 87h2M132 88h1M269 88h1M129 99h1M169 99h1M232 99h1M272 99h1M128 100h2M169 100h2M231 100h2M272 100h2M127 101h3M169 101h3M230 101h3M272 101h3M126 102h3M170 102h3M229 102h3M273 102h3M126 153h3M170 153h3M229 153h3M273 153h3M127 154h3M169 154h3M230 154h3M272 154h3M128 155h2M169 155h2M231 155h2M272 155h2M129 156h1M169 156h1M232 156h1M272 156h1M119 159h4M279 159h4M120 160h4M278 160h4M122 161h2M278 161h2M122 162h2M278 162h2M123 163h1M278 163h1" />
<path stroke="#c4ab8f" d="M119 48h3M280 48h3M119 49h3M280 49h3M117 50h3M282 50h3M117 51h2M283 51h2M117 52h2M283 52h2M129 59h2M271 59h2M128 60h2M272 60h2M128 61h1M273 61h1M128 87h1M273 87h1M128 88h2M272 88h2M129 89h2M271 89h2M126 98h2M171 98h2M229 98h2M274 98h2M125 99h2M172 99h2M228 99h2M275 99h2M125 100h1M173 100h1M228 100h1M276 100h1M125 155h1M173 155h1M228 155h1M276 155h1M125 156h2M172 156h2M228 156h2M275 156h2M126 157h2M171 157h2M229 157h2M274 157h2M117 161h2M283 161h2M117 162h2M283 162h2M117 163h3M282 163h3M119 164h3M280 164h3M119 165h3M280 165h3" />
<path stroke="#433838" d="M125 49h2M137 49h4M148 49h2M159 49h4M177 49h5M185 49h5M206 49h6M219 49h2M231 49h2M239 49h5M258 49h4M275 49h2M125 50h3M273 50h4M119 56h1M282 56h1M119 57h1M282 57h1M119 58h1M282 58h1M136 60h2M148 60h101M250 60h1M264 60h2M134 61h5M262 61h6M119 63h1M282 63h1M119 64h1M282 64h1M119 65h1M130 65h1M271 65h1M282 65h1M130 66h1M271 66h1M119 70h1M282 70h1M119 71h1M130 71h1M271 71h1M282 71h1M119 72h1M130 72h1M271 72h1M282 72h1M130 73h1M271 73h1M130 74h1M271 74h1M130 75h1M271 75h1M130 76h1M271 76h1M119 77h1M130 77h1M271 77h1M282 77h1M119 78h1M130 78h1M271 78h1M282 78h1M119 79h1M130 79h1M271 79h1M282 79h1M119 80h1M130 80h1M271 80h1M282 80h1M119 81h1M130 81h1M271 81h1M282 81h1M130 82h1M271 82h1M130 83h1M271 83h1M119 86h1M282 86h1M119 87h1M134 87h5M262 87h6M282 87h1M119 88h1M136 88h2M141 88h4M152 88h97M250 88h1M264 88h2M282 88h1M119 89h1M282 89h1M119 90h1M282 90h1M119 95h1M282 95h1M119 96h1M282 96h1M119 97h1M282 97h1M119 98h1M282 98h1M119 99h1M133 99h2M145 99h4M150 99h1M164 99h2M236 99h2M248 99h4M253 99h1M267 99h2M282 99h1M119 100h1M131 100h5M162 100h6M234 100h5M265 100h6M282 100h1M119 101h1M282 101h1M119 102h1M282 102h1M119 103h1M282 103h1M119 104h1M127 104h1M171 104h1M230 104h1M274 104h1M282 104h1M119 105h1M127 105h1M171 105h1M230 105h1M274 105h1M282 105h1M119 106h1M127 106h1M171 106h1M230 106h1M274 106h1M282 106h1M119 107h1M127 107h1M171 107h1M230 107h1M274 107h1M282 107h1M119 108h1M127 108h1M171 108h1M230 108h1M274 108h1M282 108h1M119 109h1M282 109h1M119 110h1M282 110h1M127 113h1M171 113h1M230 113h1M274 113h1M127 114h1M171 114h1M230 114h1M274 114h1M119 115h1M127 115h1M171 115h1M230 115h1M274 115h1M282 115h1M119 116h1M282 116h1M119 117h1M282 117h1M119 118h1M282 118h1M119 119h1M282 119h1M127 120h1M171 120h1M230 120h1M274 120h1M127 121h1M171 121h1M230 121h1M274 121h1M127 122h1M171 122h1M230 122h1M274 122h1M119 124h1M282 124h1M119 125h1M282 125h1M119 126h1M282 126h1M119 127h1M127 127h1M171 127h1M230 127h1M274 127h1M282 127h1M119 128h1M127 128h1M171 128h1M230 128h1M274 128h1M282 128h1M119 133h1M127 133h1M171 133h1M230 133h1M274 133h1M282 133h1M119 134h1M127 134h1M171 134h1M230 134h1M274 134h1M282 134h1M119 135h1M127 135h1M171 135h1M230 135h1M274 135h1M282 135h1M119 136h1M282 136h1M127 140h1M171 140h1M230 140h1M274 140h1M119 141h1M127 141h1M171 141h1M230 141h1M274 141h1M282 141h1M119 142h1M127 142h1M171 142h1M230 142h1M274 142h1M282 142h1M119 143h1M282 143h1M127 147h1M171 147h1M230 147h1M274 147h1M119 148h1M127 148h1M171 148h1M230 148h1M274 148h1M282 148h1M119 149h1M127 149h1M171 149h1M230 149h1M274 149h1M282 149h1M119 150h1M127 150h1M171 150h1M230 150h1M274 150h1M282 150h1M127 151h1M171 151h1M230 151h1M274 151h1M119 155h1M131 155h5M162 155h6M234 155h5M265 155h6M282 155h1M119 156h1M133 156h2M138 156h4M150 156h1M164 156h2M236 156h2M241 156h4M253 156h1M267 156h2M282 156h1M119 157h1M282 157h1M125 163h3M273 163h4M125 164h2M130 164h4M146 164h3M159 164h4M177 164h5M186 164h5M207 164h6M219 164h2M231 164h2M239 164h5M258 164h4M275 164h2" />
<path stroke="#362e2e" d="M127 49h10M141 49h7M150 49h9M163 49h14M182 49h3M190 49h16M212 49h7M221 49h10M233 49h6M244 49h14M262 49h13M138 60h10M249 60h1M251 60h13M138 88h3M145 88h7M249 88h1M251 88h13M135 99h10M149 99h1M151 99h13M238 99h10M252 99h1M254 99h13M135 156h3M142 156h8M151 156h13M238 156h3M245 156h8M254 156h13M127 164h3M134 164h12M149 164h10M163 164h14M182 164h4M191 164h16M213 164h6M221 164h10M233 164h6M244 164h14M262 164h13" />
<path stroke="#2d2626" d="M128 50h145M139 61h123M139 87h123M136 100h26M239 100h26M136 155h26M239 155h26M128 163h145" />
<path stroke="#616161" d="M125 52h152M125 53h152M125 54h152M124 55h154M121 56h8M273 56h8M121 57h7M274 57h7M121 58h6M275 58h6M121 59h5M276 59h5M121 60h4M277 60h4M121 61h4M277 61h4M121 62h4M277 62h4M121 63h4M133 63h136M277 63h4M121 64h4M132 64h3M267 64h3M277 64h4M121 65h4M132 65h2M268 65h2M277 65h4M121 66h4M132 66h1M269 66h1M277 66h4M121 67h4M132 67h1M269 67h1M277 67h4M121 68h4M132 68h1M269 68h1M277 68h4M121 69h4M132 69h1M269 69h1M277 69h4M121 70h4M132 70h1M269 70h1M277 70h4M121 71h4M132 71h1M269 71h1M277 71h4M121 72h4M132 72h1M269 72h1M277 72h4M121 73h4M132 73h1M269 73h1M277 73h4M121 74h4M132 74h1M269 74h1M277 74h4M121 75h4M132 75h1M269 75h1M277 75h4M121 76h4M132 76h1M269 76h1M277 76h4M121 77h4M132 77h1M269 77h1M277 77h4M121 78h4M132 78h1M269 78h1M277 78h4M121 79h4M132 79h1M269 79h1M277 79h4M121 80h4M132 80h1M269 80h1M277 80h4M121 81h4M132 81h1M269 81h1M277 81h4M121 82h4M132 82h1M269 82h1M277 82h4M121 83h4M132 83h2M268 83h2M277 83h4M121 84h4M132 84h3M267 84h3M277 84h4M121 85h4M133 85h136M277 85h4M121 86h4M277 86h4M121 87h4M277 87h4M121 88h4M277 88h4M121 89h4M277 89h4M121 90h4M277 90h4M121 91h4M277 91h4M121 92h4M277 92h4M121 93h4M277 93h4M121 94h4M277 94h4M121 95h4M277 95h4M121 96h4M277 96h4M121 97h4M277 97h4M121 98h3M278 98h3M121 99h3M278 99h3M121 100h3M278 100h3M121 101h3M278 101h3M121 102h4M130 102h39M233 102h39M277 102h4M121 103h4M129 103h41M232 103h41M277 103h4M121 104h4M129 104h6M164 104h6M232 104h6M267 104h6M277 104h4M121 105h4M129 105h5M165 105h5M232 105h5M268 105h5M277 105h4M121 106h4M129 106h4M166 106h4M232 106h4M269 106h4M277 106h4M121 107h4M129 107h3M167 107h3M232 107h3M270 107h3M277 107h4M121 108h4M129 108h2M168 108h2M232 108h2M271 108h2M277 108h4M121 109h4M129 109h2M168 109h2M232 109h2M271 109h2M277 109h4M121 110h4M129 110h2M168 110h2M232 110h2M271 110h2M277 110h4M121 111h4M129 111h2M168 111h2M232 111h2M271 111h2M277 111h4M121 112h4M129 112h2M168 112h2M232 112h2M271 112h2M277 112h4M121 113h4M129 113h2M168 113h2M232 113h2M271 113h2M277 113h4M121 114h4M129 114h2M168 114h2M232 114h2M271 114h2M277 114h4M121 115h4M129 115h2M168 115h2M232 115h2M271 115h2M277 115h4M121 116h4M129 116h2M168 116h2M232 116h2M271 116h2M277 116h4M121 117h4M129 117h2M168 117h2M232 117h2M271 117h2M277 117h4M121 118h4M129 118h2M168 118h2M232 118h2M271 118h2M277 118h4M121 119h4M129 119h2M168 119h2M232 119h2M271 119h2M277 119h4M121 120h4M129 120h2M168 120h2M232 120h2M271 120h2M277 120h4M121 121h4M129 121h2M168 121h2M232 121h2M271 121h2M277 121h4M121 122h4M129 122h2M168 122h2M232 122h2M271 122h2M277 122h4M121 123h4M129 123h2M168 123h2M232 123h2M271 123h2M277 123h4M121 124h4M129 124h2M168 124h2M232 124h2M271 124h2M277 124h4M121 125h4M129 125h2M168 125h2M232 125h2M271 125h2M277 125h4M121 126h4M129 126h2M168 126h2M232 126h2M271 126h2M277 126h4M121 127h4M129 127h2M168 127h2M232 127h2M271 127h2M277 127h4M121 128h4M129 128h2M168 128h2M232 128h2M271 128h2M277 128h4M121 129h4M129 129h2M168 129h2M232 129h2M271 129h2M277 129h4M121 130h4M129 130h2M168 130h2M232 130h2M271 130h2M277 130h4M121 131h4M129 131h2M168 131h2M232 131h2M271 131h2M277 131h4M121 132h4M129 132h2M168 132h2M232 132h2M271 132h2M277 132h4M121 133h4M129 133h2M168 133h2M232 133h2M271 133h2M277 133h4M121 134h4M129 134h2M168 134h2M232 134h2M271 134h2M277 134h4M121 135h4M129 135h2M168 135h2M232 135h2M271 135h2M277 135h4M121 136h4M129 136h2M168 136h2M232 136h2M271 136h2M277 136h4M121 137h4M129 137h2M168 137h2M232 137h2M271 137h2M277 137h4M121 138h4M129 138h2M168 138h2M232 138h2M271 138h2M277 138h4M121 139h4M129 139h2M168 139h2M232 139h2M271 139h2M277 139h4M121 140h4M129 140h2M168 140h2M232 140h2M271 140h2M277 140h4M121 141h4M129 141h2M168 141h2M232 141h2M271 141h2M277 141h4M121 142h4M129 142h2M168 142h2M232 142h2M271 142h2M277 142h4M121 143h4M129 143h2M168 143h2M232 143h2M271 143h2M277 143h4M121 144h4M129 144h2M168 144h2M232 144h2M271 144h2M277 144h4M121 145h4M129 145h2M168 145h2M232 145h2M271 145h2M277 145h4M121 146h4M129 146h2M168 146h2M232 146h2M271 146h2M277 146h4M121 147h4M129 147h2M168 147h2M232 147h2M271 147h2M277 147h4M121 148h4M129 148h3M167 148h3M232 148h3M270 148h3M277 148h4M121 149h4M129 149h4M166 149h4M232 149h4M269 149h4M277 149h4M121 150h4M129 150h5M165 150h5M232 150h5M268 150h5M277 150h4M121 151h4M129 151h6M164 151h6M232 151h6M267 151h6M277 151h4M121 152h4M129 152h41M232 152h41M277 152h4M121 153h4M130 153h39M233 153h39M277 153h4M121 154h3M278 154h3M121 155h3M278 155h3M121 156h3M278 156h3M121 157h3M278 157h3M124 158h1M129 158h41M174 158h54M232 158h41M277 158h1M125 159h152M125 160h152M125 161h152" />
<path stroke="#534645" d="M118 56h1M283 56h1M118 57h1M283 57h1M118 58h1M283 58h1M134 60h2M266 60h2M118 63h1M283 63h1M118 64h1M283 64h1M118 65h1M283 65h1M118 70h1M283 70h1M118 71h1M129 71h1M272 71h1M283 71h1M118 72h1M129 72h1M272 72h1M283 72h1M129 73h1M272 73h1M129 74h1M272 74h1M129 75h1M272 75h1M129 76h1M272 76h1M118 77h1M129 77h1M272 77h1M283 77h1M118 78h1M129 78h1M272 78h1M283 78h1M118 79h1M129 79h1M272 79h1M283 79h1M118 80h1M129 80h1M272 80h1M283 80h1M118 81h1M129 81h1M272 81h1M283 81h1M118 86h1M283 86h1M118 87h1M283 87h1M118 88h1M134 88h2M266 88h2M283 88h1M118 89h1M283 89h1M118 90h1M283 90h1M118 95h1M283 95h1M118 96h1M283 96h1M118 97h1M283 97h1M118 98h1M283 98h1M118 99h1M131 99h2M166 99h2M234 99h2M269 99h2M283 99h1M118 100h1M283 100h1M118 101h1M283 101h1M118 102h1M283 102h1M118 103h1M283 103h1M118 104h1M283 104h1M118 105h1M283 105h1M118 106h1M126 106h1M172 106h1M229 106h1M275 106h1M283 106h1M118 107h1M126 107h1M172 107h1M229 107h1M275 107h1M283 107h1M118 108h1M126 108h1M172 108h1M229 108h1M275 108h1M283 108h1M118 109h1M283 109h1M118 110h1M283 110h1M126 113h1M172 113h1M229 113h1M275 113h1M126 114h1M172 114h1M229 114h1M275 114h1M118 115h1M126 115h1M172 115h1M229 115h1M275 115h1M283 115h1M118 116h1M283 116h1M118 117h1M283 117h1M118 118h1M283 118h1M118 119h1M283 119h1M126 120h1M172 120h1M229 120h1M275 120h1M126 121h1M172 121h1M229 121h1M275 121h1M126 122h1M172 122h1M229 122h1M275 122h1M118 124h1M283 124h1M118 125h1M283 125h1M118 126h1M283 126h1M118 127h1M126 127h1M172 127h1M229 127h1M275 127h1M283 127h1M118 128h1M126 128h1M172 128h1M229 128h1M275 128h1M283 128h1M118 133h1M126 133h1M172 133h1M229 133h1M275 133h1M283 133h1M118 134h1M126 134h1M172 134h1M229 134h1M275 134h1M283 134h1M118 135h1M126 135h1M172 135h1M229 135h1M275 135h1M283 135h1M118 136h1M283 136h1M126 140h1M172 140h1M229 140h1M275 140h1M118 141h1M126 141h1M172 141h1M229 141h1M275 141h1M283 141h1M118 142h1M126 142h1M172 142h1M229 142h1M275 142h1M283 142h1M118 143h1M283 143h1M126 147h1M172 147h1M229 147h1M275 147h1M118 148h1M126 148h1M172 148h1M229 148h1M275 148h1M283 148h1M118 149h1M126 149h1M172 149h1M229 149h1M275 149h1M283 149h1M118 150h1M283 150h1M118 155h1M283 155h1M118 156h1M131 156h2M166 156h2M234 156h2M269 156h2M283 156h1M118 157h1M283 157h1" />
<path stroke="#6f6f6f" d="M129 56h144M128 57h146M127 58h1M132 58h138M274 58h1M126 59h1M275 59h1M125 60h2M275 60h2M125 61h2M275 61h2M125 62h2M275 62h2M125 63h3M274 63h3M125 64h3M135 64h132M274 64h3M125 65h3M134 65h134M274 65h3M125 66h3M133 66h136M274 66h3M125 67h3M133 67h136M274 67h3M125 68h3M133 68h136M274 68h3M125 69h3M133 69h136M274 69h3M125 70h3M133 70h136M274 70h3M125 71h3M133 71h136M274 71h3M125 72h3M133 72h136M274 72h3M125 73h3M133 73h136M274 73h3M125 74h3M133 74h136M274 74h3M125 75h3M133 75h136M274 75h3M125 76h3M133 76h136M274 76h3M125 77h3M133 77h136M274 77h3M125 78h3M133 78h136M274 78h3M125 79h3M133 79h136M274 79h3M125 80h3M133 80h136M274 80h3M125 81h3M133 81h136M274 81h3M125 82h3M133 82h136M274 82h3M125 83h3M134 83h134M274 83h3M125 84h3M135 84h132M274 84h3M125 85h3M274 85h3M125 86h2M275 86h2M125 87h2M275 87h2M125 88h2M275 88h2M125 89h2M275 89h2M125 90h3M132 90h138M274 90h3M125 91h152M125 92h152M125 93h152M125 94h152M125 95h152M125 96h152M129 97h41M174 97h54M232 97h41M175 98h52M175 99h52M175 100h52M175 101h52M174 102h54M174 103h54M135 104h29M174 104h54M238 104h29M134 105h31M174 105h54M237 105h31M133 106h33M174 106h54M236 106h33M132 107h35M174 107h54M235 107h35M131 108h37M174 108h54M234 108h37M131 109h37M174 109h54M234 109h37M131 110h37M174 110h54M234 110h37M131 111h37M174 111h54M234 111h37M131 112h37M174 112h54M234 112h37M131 113h37M174 113h54M234 113h37M131 114h37M174 114h54M234 114h37M131 115h37M174 115h54M234 115h37M131 116h37M174 116h54M234 116h37M131 117h37M174 117h54M234 117h37M131 118h37M174 118h54M234 118h37M131 119h37M174 119h54M234 119h37M131 120h37M174 120h54M234 120h37M131 121h37M174 121h54M234 121h37M131 122h37M174 122h54M234 122h37M131 123h37M174 123h54M234 123h37M131 124h37M174 124h54M234 124h37M131 125h37M174 125h54M234 125h37M131 126h37M174 126h54M234 126h37M131 127h37M174 127h54M234 127h37M131 128h37M174 128h54M234 128h37M131 129h37M174 129h54M234 129h37M131 130h37M174 130h54M234 130h37M131 131h37M174 131h54M234 131h37M131 132h37M174 132h54M234 132h37M131 133h37M174 133h54M234 133h37M131 134h37M174 134h54M234 134h37M131 135h37M174 135h54M234 135h37M131 136h37M174 136h54M234 136h37M131 137h37M174 137h54M234 137h37M131 138h37M174 138h54M234 138h37M131 139h37M174 139h54M234 139h37M131 140h37M174 140h54M234 140h37M131 141h37M174 141h54M234 141h37M131 142h37M174 142h54M234 142h37M131 143h37M174 143h54M234 143h37M131 144h37M174 144h54M234 144h37M131 145h37M174 145h54M234 145h37M131 146h37M174 146h54M234 146h37M131 147h37M174 147h54M234 147h37M132 148h35M174 148h54M235 148h35M133 149h33M174 149h54M236 149h33M134 150h31M174 150h54M237 150h31M135 151h29M174 151h54M238 151h29M174 152h54M174 153h54M175 154h52M175 155h52M175 156h52M175 157h52" />
<path stroke="#9eadb6" d="M118 60h1M283 60h1M118 61h1M283 61h1M118 67h1M283 67h1M118 68h1M129 68h1M272 68h1M283 68h1M129 69h1M272 69h1M118 74h1M283 74h1M118 75h1M283 75h1M118 83h1M283 83h1M118 84h1M283 84h1M118 92h1M283 92h1M118 93h1M283 93h1M126 110h1M172 110h1M229 110h1M275 110h1M126 111h1M172 111h1M229 111h1M275 111h1M118 112h1M283 112h1M118 113h1M283 113h1M126 117h1M172 117h1M229 117h1M275 117h1M126 118h1M172 118h1M229 118h1M275 118h1M118 121h1M283 121h1M118 122h1M283 122h1M126 124h1M172 124h1M229 124h1M275 124h1M126 125h1M172 125h1M229 125h1M275 125h1M118 130h1M126 130h1M172 130h1M229 130h1M275 130h1M283 130h1M118 131h1M126 131h1M172 131h1M229 131h1M275 131h1M283 131h1M126 137h1M172 137h1M229 137h1M275 137h1M118 138h1M126 138h1M172 138h1M229 138h1M275 138h1M283 138h1M118 139h1M283 139h1M126 144h1M172 144h1M229 144h1M275 144h1M118 145h1M126 145h1M172 145h1M229 145h1M275 145h1M283 145h1M118 146h1M283 146h1M118 152h1M283 152h1M118 153h1M283 153h1" />
<path stroke="#737e84" d="M119 60h1M282 60h1M119 61h1M282 61h1M119 67h1M282 67h1M119 68h1M130 68h1M271 68h1M282 68h1M130 69h1M271 69h1M119 74h1M282 74h1M119 75h1M282 75h1M119 83h1M282 83h1M119 84h1M282 84h1M119 92h1M282 92h1M119 93h1M282 93h1M127 110h1M171 110h1M230 110h1M274 110h1M127 111h1M171 111h1M230 111h1M274 111h1M119 112h1M282 112h1M119 113h1M282 113h1M127 117h1M171 117h1M230 117h1M274 117h1M127 118h1M171 118h1M230 118h1M274 118h1M119 121h1M282 121h1M119 122h1M282 122h1M127 124h1M171 124h1M230 124h1M274 124h1M127 125h1M171 125h1M230 125h1M274 125h1M119 130h1M127 130h1M171 130h1M230 130h1M274 130h1M282 130h1M119 131h1M127 131h1M171 131h1M230 131h1M274 131h1M282 131h1M127 137h1M171 137h1M230 137h1M274 137h1M119 138h1M127 138h1M171 138h1M230 138h1M274 138h1M282 138h1M119 139h1M282 139h1M127 144h1M171 144h1M230 144h1M274 144h1M119 145h1M127 145h1M171 145h1M230 145h1M274 145h1M282 145h1M119 146h1M282 146h1M119 152h1M282 152h1M119 153h1M282 153h1" />
<path stroke="#5e504f" d="M129 65h1M272 65h1M129 66h1M272 66h1M129 82h1M272 82h1M129 83h1M272 83h1M126 104h1M172 104h1M229 104h1M275 104h1M126 105h1M172 105h1M229 105h1M275 105h1M126 150h1M172 150h1M229 150h1M275 150h1M126 151h1M172 151h1M229 151h1M275 151h1" />
</svg>