<svg xmlns="http://www.w3.org/2000/svg" viewBox="0 -0.5 174 128" shape-rendering="crispEdges">
<metadata>Made with Pixels to Svg https://codepen.io/shshaw/pen/XbxvNj</metadata>
<path stroke="#000000" d="M50 2h8M116 2h8M43 3h7M58 3h3M113 3h3M124 3h7M43 4h1M61 4h4M109 4h4M130 4h1M44 5h1M53 5h4M65 5h3M106 5h3M117 5h4M129 5h1M3 6h6M44 6h5M68 6h3M103 6h3M125 6h5M165 6h6M2 7h1M9 7h156M171 7h1M2 8h1M9 8h2M163 8h2M171 8h1M2 9h1M10 9h1M163 9h1M171 9h1M2 10h1M10 10h154M171 10h1M2 11h1M10 11h1M163 11h1M171 11h1M2 12h1M10 12h1M163 12h1M171 12h1M3 13h2M9 13h2M163 13h2M169 13h2M3 14h7M164 14h7M3 15h1M6 15h1M167 15h1M170 15h1M3 16h1M6 16h1M167 16h1M170 16h1M3 17h1M6 17h1M14 17h4M156 17h4M167 17h1M170 17h1M3 18h4M13 18h1M18 18h138M160 18h1M167 18h4M3 19h1M6 19h1M13 19h1M19 19h1M154 19h1M160 19h1M167 19h1M170 19h1M3 20h1M6 20h1M13 20h1M19 20h1M154 20h1M160 20h1M167 20h1M170 20h1M3 21h4M13 21h1M19 21h136M160 21h1M167 21h4M3 22h1M6 22h1M14 22h1M18 22h1M155 22h1M159 22h1M167 22h1M170 22h1M3 23h1M6 23h1M14 23h4M156 23h4M167 23h1M170 23h1M3 24h1M6 24h1M14 24h1M17 24h1M156 24h1M159 24h1M167 24h1M170 24h1M3 25h4M14 25h1M17 25h1M156 25h1M159 25h1M167 25h4M3 26h1M6 26h1M14 26h4M156 26h4M167 26h1M170 26h1M3 27h1M6 27h1M14 27h1M17 27h1M156 27h1M159 27h1M167 27h1M170 27h1M3 28h4M14 28h1M17 28h1M156 28h1M159 28h1M167 28h4M3 29h1M6 29h1M14 29h4M156 29h4M167 29h1M170 29h1M3 30h1M6 30h1M14 30h1M17 30h1M156 30h1M159 30h1M167 30h1M170 30h1M3 31h1M6 31h1M14 31h1M17 31h1M156 31h1M159 31h1M167 31h1M170 31h1M3 32h4M14 32h1M17 32h1M156 32h1M159 32h1M167 32h4M3 33h1M6 33h1M14 33h1M17 33h1M156 33h1M159 33h1M167 33h1M170 33h1M3 34h1M6 34h1M14 34h1M17 34h1M156 34h1M159 34h1M167 34h1M170 34h1M3 35h4M14 35h1M17 35h1M156 35h1M159 35h1M167 35h4M3 36h1M6 36h1M14 36h1M17 36h1M156 36h1M159 36h1M167 36h1M170 36h1M3 37h1M6 37h1M14 37h1M17 37h1M156 37h1M159 37h1M167 37h1M170 37h1M3 38h1M6 38h1M14 38h1M17 38h1M156 38h1M159 38h1M167 38h1M170 38h1M3 39h1M6 39h1M14 39h1M17 39h1M156 39h1M159 39h1M167 39h1M170 39h1M3 40h1M6 40h1M14 40h1M17 40h1M156 40h1M159 40h1M167 40h1M170 40h1M3 41h4M14 41h1M17 41h1M156 41h1M159 41h1M167 41h4M3 42h1M6 42h1M14 42h1M17 42h1M156 42h1M159 42h1M167 42h1M170 42h1M3 43h1M6 43h1M14 43h4M156 43h4M167 43h1M170 43h1M3 44h4M14 44h1M18 44h1M155 44h1M159 44h1M167 44h4M3 45h1M6 45h1M13 45h1M19 45h136M160 45h1M167 45h1M170 45h1M3 46h1M6 46h1M13 46h1M19 46h1M154 46h1M160 46h1M167 46h1M170 46h1M3 47h1M6 47h1M13 47h1M19 47h1M154 47h1M160 47h1M167 47h1M170 47h1M3 48h1M6 48h1M13 48h1M18 48h138M160 48h1M167 48h1M170 48h1M3 49h1M6 49h1M14 49h4M156 49h4M167 49h1M170 49h1M3 50h4M167 50h4M3 51h1M6 51h1M167 51h1M170 51h1M3 52h1M6 52h1M167 52h1M170 52h1M3 53h4M167 53h4M3 54h1M6 54h1M167 54h1M170 54h1M3 55h1M6 55h1M167 55h1M170 55h1M3 56h1M6 56h1M11 56h4M56 56h4M114 56h4M159 56h4M167 56h1M170 56h1M3 57h1M6 57h1M10 57h1M15 57h41M60 57h1M113 57h1M118 57h41M163 57h1M167 57h1M170 57h1M3 58h1M6 58h1M10 58h1M16 58h1M54 58h1M60 58h1M113 58h1M119 58h1M157 58h1M163 58h1M167 58h1M170 58h1M3 59h1M6 59h1M10 59h1M16 59h1M54 59h1M60 59h1M113 59h1M119 59h1M157 59h1M163 59h1M167 59h1M170 59h1M3 60h1M6 60h1M10 60h1M16 60h39M60 60h1M113 60h1M119 60h39M163 60h1M167 60h1M170 60h1M3 61h1M6 61h1M11 61h1M15 61h1M55 61h1M59 61h1M114 61h1M118 61h1M158 61h1M162 61h1M167 61h1M170 61h1M3 62h1M6 62h1M11 62h4M56 62h4M114 62h4M159 62h4M167 62h1M170 62h1M3 63h1M6 63h1M11 63h1M14 63h1M56 63h1M59 63h1M114 63h1M117 63h1M159 63h1M162 63h1M167 63h1M170 63h1M3 64h1M6 64h1M11 64h1M14 64h1M56 64h1M59 64h1M114 64h1M117 64h1M159 64h1M162 64h1M167 64h1M170 64h1M3 65h1M6 65h1M11 65h1M14 65h1M56 65h1M59 65h1M114 65h1M117 65h1M159 65h1M162 65h1M167 65h1M170 65h1M3 66h1M6 66h1M11 66h1M14 66h1M56 66h1M59 66h1M114 66h1M117 66h1M159 66h1M162 66h1M167 66h1M170 66h1M3 67h1M6 67h1M11 67h1M14 67h1M56 67h1M59 67h1M114 67h1M117 67h1M159 67h1M162 67h1M167 67h1M170 67h1M3 68h1M6 68h1M11 68h4M56 68h4M114 68h4M159 68h4M167 68h1M170 68h1M3 69h1M6 69h1M11 69h1M14 69h1M56 69h1M59 69h1M114 69h1M117 69h1M159 69h1M162 69h1M167 69h1M170 69h1M3 70h4M11 70h1M14 70h1M56 70h1M59 70h1M114 70h1M117 70h1M159 70h1M162 70h1M167 70h4M3 71h1M6 71h1M11 71h4M56 71h4M114 71h4M159 71h4M167 71h1M170 71h1M3 72h1M6 72h1M11 72h1M14 72h1M56 72h1M59 72h1M114 72h1M117 72h1M159 72h1M162 72h1M167 72h1M170 72h1M3 73h4M11 73h1M14 73h1M56 73h1M59 73h1M114 73h1M117 73h1M159 73h1M162 73h1M167 73h4M3 74h1M6 74h1M11 74h1M14 74h1M56 74h1M59 74h1M114 74h1M117 74h1M159 74h1M162 74h1M167 74h1M170 74h1M3 75h1M6 75h1M11 75h4M56 75h4M114 75h4M159 75h4M167 75h1M170 75h1M3 76h1M6 76h1M11 76h1M14 76h1M56 76h1M59 76h1M114 76h1M117 76h1M159 76h1M162 76h1M167 76h1M170 76h1M3 77h1M6 77h1M11 77h1M14 77h1M56 77h1M59 77h1M114 77h1M117 77h1M159 77h1M162 77h1M167 77h1M170 77h1M3 78h1M6 78h1M11 78h4M56 78h4M114 78h4M159 78h4M167 78h1M170 78h1M3 79h4M11 79h1M14 79h1M56 79h1M59 79h1M114 79h1M117 79h1M159 79h1M162 79h1M167 79h4M3 80h1M6 80h1M11 80h1M14 80h1M56 80h1M59 80h1M114 80h1M117 80h1M159 80h1M162 80h1M167 80h1M170 80h1M3 81h1M6 81h1M11 81h1M14 81h1M56 81h1M59 81h1M114 81h1M117 81h1M159 81h1M162 81h1M167 81h1M170 81h1M3 82h4M11 82h4M56 82h4M114 82h4M159 82h4M167 82h4M3 83h1M6 83h1M11 83h1M14 83h1M56 83h1M59 83h1M114 83h1M117 83h1M159 83h1M162 83h1M167 83h1M170 83h1M3 84h1M6 84h1M11 84h1M14 84h1M56 84h1M59 84h1M114 84h1M117 84h1M159 84h1M162 84h1M167 84h1M170 84h1M3 85h1M6 85h1M11 85h4M56 85h4M114 85h4M159 85h4M167 85h1M170 85h1M3 86h1M6 86h1M11 86h1M14 86h1M56 86h1M59 86h1M114 86h1M117 86h1M159 86h1M162 86h1M167 86h1M170 86h1M3 87h1M6 87h1M11 87h1M14 87h1M56 87h1M59 87h1M114 87h1M117 87h1M159 87h1M162 87h1M167 87h1M170 87h1M3 88h4M11 88h4M56 88h4M114 88h4M159 88h4M167 88h4M3 89h1M6 89h1M11 89h1M14 89h1M56 89h1M59 89h1M114 89h1M117 89h1M159 89h1M162 89h1M167 89h1M170 89h1M3 90h1M6 90h1M11 90h1M14 90h1M56 90h1M59 90h1M114 90h1M117 90h1M159 90h1M162 90h1M167 90h1M170 90h1M3 91h4M11 91h4M56 91h4M114 91h4M159 91h4M167 91h4M3 92h1M6 92h1M11 92h1M14 92h1M56 92h1M59 92h1M114 92h1M117 92h1M159 92h1M162 92h1M167 92h1M170 92h1M3 93h1M6 93h1M11 93h1M14 93h1M56 93h1M59 93h1M114 93h1M117 93h1M159 93h1M162 93h1M167 93h1M170 93h1M3 94h1M6 94h1M11 94h1M14 94h1M56 94h1M59 94h1M114 94h1M117 94h1M159 94h1M162 94h1M167 94h1M170 94h1M3 95h1M6 95h1M11 95h4M56 95h4M114 95h4M159 95h4M167 95h1M170 95h1M3 96h4M11 96h1M14 96h1M56 96h1M59 96h1M114 96h1M117 96h1M159 96h1M162 96h1M167 96h4M3 97h1M6 97h1M11 97h1M14 97h1M56 97h1M59 97h1M114 97h1M117 97h1M159 97h1M162 97h1M167 97h1M170 97h1M3 98h1M6 98h1M11 98h4M56 98h4M114 98h4M159 98h4M167 98h1M170 98h1M3 99h4M11 99h1M14 99h1M56 99h1M59 99h1M114 99h1M117 99h1M159 99h1M162 99h1M167 99h4M3 100h1M6 100h1M11 100h1M14 100h1M56 100h1M59 100h1M114 100h1M117 100h1M159 100h1M162 100h1M167 100h1M170 100h1M3 101h1M6 101h1M11 101h1M14 101h1M56 101h1M59 101h1M114 101h1M117 101h1M159 101h1M162 101h1M167 101h1M170 101h1M3 102h1M6 102h1M11 102h4M56 102h4M114 102h4M159 102h4M167 102h1M170 102h1M3 103h4M11 103h1M14 103h1M56 103h1M59 103h1M114 103h1M117 103h1M159 103h1M162 103h1M167 103h4M3 104h1M6 104h1M11 104h1M14 104h1M56 104h1M59 104h1M114 104h1M117 104h1M159 104h1M162 104h1M167 104h1M170 104h1M3 105h1M6 105h1M11 105h4M56 105h4M114 105h4M159 105h4M167 105h1M170 105h1M3 106h4M11 106h1M14 106h1M56 106h1M59 106h1M114 106h1M117 106h1M159 106h1M162 106h1M167 106h4M3 107h1M6 107h1M11 107h1M14 107h1M56 107h1M59 107h1M114 107h1M117 107h1M159 107h1M162 107h1M167 107h1M170 107h1M3 108h1M6 108h1M11 108h1M14 108h1M56 108h1M59 108h1M114 108h1M117 108h1M159 108h1M162 108h1M167 108h1M170 108h1M3 109h1M6 109h1M11 109h1M14 109h1M56 109h1M59 109h1M114 109h1M117 109h1M159 109h1M162 109h1M167 109h1M170 109h1M3 110h4M11 110h1M14 110h1M56 110h1M59 110h1M114 110h1M117 110h1M159 110h1M162 110h1M167 110h4M3 111h1M6 111h1M11 111h4M56 111h4M114 111h4M159 111h4M167 111h1M170 111h1M3 112h1M6 112h1M11 112h1M15 112h1M55 112h1M59 112h1M114 112h1M118 112h1M158 112h1M162 112h1M167 112h1M170 112h1M3 113h4M10 113h1M16 113h39M60 113h1M113 113h1M119 113h39M163 113h1M167 113h4M3 114h1M6 114h1M10 114h1M16 114h1M54 114h1M60 114h1M113 114h1M119 114h1M157 114h1M163 114h1M167 114h1M170 114h1M3 115h1M6 115h1M10 115h1M16 115h1M54 115h1M60 115h1M113 115h1M119 115h1M157 115h1M163 115h1M167 115h1M170 115h1M3 116h1M6 116h1M10 116h1M15 116h41M60 116h1M113 116h1M118 116h41M163 116h1M167 116h1M170 116h1M3 117h7M11 117h4M56 117h4M114 117h4M159 117h4M164 117h7M3 118h2M9 118h2M163 118h2M169 118h2M2 119h1M10 119h1M163 119h1M171 119h1M2 120h1M10 120h1M163 120h1M171 120h1M2 121h1M10 121h154M171 121h1M2 122h1M10 122h1M163 122h1M171 122h1M2 123h1M9 123h2M163 123h2M171 123h1M2 124h1M9 124h156M171 124h1M3 125h6M165 125h6" />
<path stroke="#d8c5b2" d="M50 3h1M123 3h1M44 4h1M129 4h1M57 5h1M116 5h1M3 7h2M169 7h2M3 8h2M169 8h2M14 18h1M159 18h1M14 48h1M159 48h1M11 57h1M59 57h1M114 57h1M162 57h1M11 116h1M59 116h1M114 116h1M162 116h1M3 123h2M169 123h2M3 124h2M169 124h2" />
<path stroke="#b49c83" d="M51 3h7M116 3h7M45 4h5M124 4h5M8 7h1M165 7h1M8 8h1M165 8h1M6 9h3M165 9h3M5 10h3M166 10h3M5 11h3M166 11h3M3 12h3M168 12h3M17 18h1M156 18h1M16 19h2M156 19h2M15 20h2M157 20h2M14 21h2M158 21h2M14 45h2M158 45h2M15 46h2M157 46h2M16 47h2M156 47h2M17 48h1M156 48h1M14 57h1M56 57h1M117 57h1M159 57h1M13 58h2M56 58h2M116 58h2M159 58h2M12 59h2M57 59h2M115 59h2M160 59h2M11 60h2M58 60h2M114 60h2M161 60h2M11 113h2M58 113h2M114 113h2M161 113h2M12 114h2M57 114h2M115 114h2M160 114h2M13 115h2M56 115h2M116 115h2M159 115h2M14 116h1M56 116h1M117 116h1M159 116h1M3 119h3M168 119h3M5 120h3M166 120h3M5 121h3M166 121h3M6 122h3M165 122h3M8 123h1M165 123h1M8 124h1M165 124h1" />
<path stroke="#a38e75" d="M50 4h11M113 4h11M45 5h8M58 5h7M109 5h7M121 5h8M49 6h19M106 6h19M9 9h1M164 9h1M8 10h2M164 10h2M8 11h2M164 11h2M6 12h4M164 12h4M5 13h4M165 13h4M18 19h1M155 19h1M17 20h2M155 20h2M16 21h3M155 21h3M15 22h3M156 22h3M15 44h3M156 44h3M16 45h3M155 45h3M17 46h2M155 46h2M18 47h1M155 47h1M15 58h1M55 58h1M118 58h1M158 58h1M14 59h2M55 59h2M117 59h2M158 59h2M13 60h3M55 60h3M116 60h3M158 60h3M12 61h3M56 61h3M115 61h3M159 61h3M12 112h3M56 112h3M115 112h3M159 112h3M13 113h3M55 113h3M116 113h3M158 113h3M14 114h2M55 114h2M117 114h2M158 114h2M15 115h1M55 115h1M118 115h1M158 115h1M5 118h4M165 118h4M6 119h4M164 119h4M8 120h2M164 120h2M8 121h2M164 121h2M9 122h1M164 122h1" />
<path stroke="#c4ab8f" d="M5 7h3M166 7h3M5 8h3M166 8h3M3 9h3M168 9h3M3 10h2M169 10h2M3 11h2M169 11h2M15 18h2M157 18h2M14 19h2M158 19h2M14 20h1M159 20h1M14 46h1M159 46h1M14 47h2M158 47h2M15 48h2M157 48h2M12 57h2M57 57h2M115 57h2M160 57h2M11 58h2M58 58h2M114 58h2M161 58h2M11 59h1M59 59h1M114 59h1M162 59h1M11 114h1M59 114h1M114 114h1M162 114h1M11 115h2M58 115h2M114 115h2M161 115h2M12 116h2M57 116h2M115 116h2M160 116h2M3 120h2M169 120h2M3 121h2M169 121h2M3 122h3M168 122h3M5 123h3M166 123h3M5 124h3M166 124h3" />
<path stroke="#433838" d="M11 8h2M23 8h4M34 8h2M45 8h4M63 8h5M71 8h5M92 8h6M105 8h2M117 8h2M125 8h5M144 8h4M161 8h2M11 9h3M159 9h4M5 15h1M168 15h1M5 16h1M168 16h1M5 17h1M168 17h1M22 19h2M34 19h101M136 19h1M150 19h2M20 20h5M148 20h6M5 22h1M168 22h1M5 23h1M168 23h1M5 24h1M16 24h1M157 24h1M168 24h1M16 25h1M157 25h1M5 29h1M168 29h1M5 30h1M16 30h1M157 30h1M168 30h1M5 31h1M16 31h1M157 31h1M168 31h1M16 32h1M157 32h1M16 33h1M157 33h1M16 34h1M157 34h1M16 35h1M157 35h1M5 36h1M16 36h1M157 36h1M168 36h1M5 37h1M16 37h1M157 37h1M168 37h1M5 38h1M16 38h1M157 38h1M168 38h1M5 39h1M16 39h1M157 39h1M168 39h1M5 40h1M16 40h1M157 40h1M168 40h1M16 41h1M157 41h1M16 42h1M157 42h1M5 45h1M168 45h1M5 46h1M20 46h5M148 46h6M168 46h1M5 47h1M22 47h2M27 47h4M38 47h97M136 47h1M150 47h2M168 47h1M5 48h1M168 48h1M5 49h1M168 49h1M5 54h1M168 54h1M5 55h1M168 55h1M5 56h1M168 56h1M5 57h1M168 57h1M5 58h1M19 58h2M31 58h4M36 58h1M50 58h2M122 58h2M134 58h4M139 58h1M153 58h2M168 58h1M5 59h1M17 59h5M48 59h6M120 59h5M151 59h6M168 59h1M5 60h1M168 60h1M5 61h1M168 61h1M5 62h1M168 62h1M5 63h1M13 63h1M57 63h1M116 63h1M160 63h1M168 63h1M5 64h1M13 64h1M57 64h1M116 64h1M160 64h1M168 64h1M5 65h1M13 65h1M57 65h1M116 65h1M160 65h1M168 65h1M5 66h1M13 66h1M57 66h1M116 66h1M160 66h1M168 66h1M5 67h1M13 67h1M57 67h1M116 67h1M160 67h1M168 67h1M5 68h1M168 68h1M5 69h1M168 69h1M13 72h1M57 72h1M116 72h1M160 72h1M13 73h1M57 73h1M116 73h1M160 73h1M5 74h1M13 74h1M57 74h1M116 74h1M160 74h1M168 74h1M5 75h1M168 75h1M5 76h1M168 76h1M5 77h1M168 77h1M5 78h1M168 78h1M13 79h1M57 79h1M116 79h1M160 79h1M13 80h1M57 80h1M116 80h1M160 80h1M13 81h1M57 81h1M116 81h1M160 81h1M5 83h1M168 83h1M5 84h1M168 84h1M5 85h1M168 85h1M5 86h1M13 86h1M57 86h1M116 86h1M160 86h1M168 86h1M5 87h1M13 87h1M57 87h1M116 87h1M160 87h1M168 87h1M5 92h1M13 92h1M57 92h1M116 92h1M160 92h1M168 92h1M5 93h1M13 93h1M57 93h1M116 93h1M160 93h1M168 93h1M5 94h1M13 94h1M57 94h1M116 94h1M160 94h1M168 94h1M5 95h1M168 95h1M13 99h1M57 99h1M116 99h1M160 99h1M5 100h1M13 100h1M57 100h1M116 100h1M160 100h1M168 100h1M5 101h1M13 101h1M57 101h1M116 101h1M160 101h1M168 101h1M5 102h1M168 102h1M13 106h1M57 106h1M116 106h1M160 106h1M5 107h1M13 107h1M57 107h1M116 107h1M160 107h1M168 107h1M5 108h1M13 108h1M57 108h1M116 108h1M160 108h1M168 108h1M5 109h1M13 109h1M57 109h1M116 109h1M160 109h1M168 109h1M13 110h1M57 110h1M116 110h1M160 110h1M5 114h1M17 114h5M48 114h6M120 114h5M151 114h6M168 114h1M5 115h1M19 115h2M24 115h4M36 115h1M50 115h2M122 115h2M127 115h4M139 115h1M153 115h2M168 115h1M5 116h1M168 116h1M11 122h3M159 122h4M11 123h2M16 123h4M32 123h3M45 123h4M63 123h5M72 123h5M93 123h6M105 123h2M117 123h2M125 123h5M144 123h4M161 123h2" />
<path stroke="#362e2e" d="M13 8h10M27 8h7M36 8h9M49 8h14M68 8h3M76 8h16M98 8h7M107 8h10M119 8h6M130 8h14M148 8h13M24 19h10M135 19h1M137 19h13M24 47h3M31 47h7M135 47h1M137 47h13M21 58h10M35 58h1M37 58h13M124 58h10M138 58h1M140 58h13M21 115h3M28 115h8M37 115h13M124 115h3M131 115h8M140 115h13M13 123h3M20 123h12M35 123h10M49 123h14M68 123h4M77 123h16M99 123h6M107 123h10M119 123h6M130 123h14M148 123h13" />
<path stroke="#2d2626" d="M14 9h145M25 20h123M25 46h123M22 59h26M125 59h26M22 114h26M125 114h26M14 122h145" />
<path stroke="#616161" d="M11 11h152M11 12h152M11 13h152M10 14h154M7 15h8M159 15h8M7 16h7M160 16h7M7 17h6M161 17h6M7 18h5M162 18h5M7 19h4M163 19h4M7 20h4M163 20h4M7 21h4M163 21h4M7 22h4M19 22h136M163 22h4M7 23h4M18 23h3M153 23h3M163 23h4M7 24h4M18 24h2M154 24h2M163 24h4M7 25h4M18 25h1M155 25h1M163 25h4M7 26h4M18 26h1M155 26h1M163 26h4M7 27h4M18 27h1M155 27h1M163 27h4M7 28h4M18 28h1M155 28h1M163 28h4M7 29h4M18 29h1M155 29h1M163 29h4M7 30h4M18 30h1M155 30h1M163 30h4M7 31h4M18 31h1M155 31h1M163 31h4M7 32h4M18 32h1M155 32h1M163 32h4M7 33h4M18 33h1M155 33h1M163 33h4M7 34h4M18 34h1M155 34h1M163 34h4M7 35h4M18 35h1M155 35h1M163 35h4M7 36h4M18 36h1M155 36h1M163 36h4M7 37h4M18 37h1M155 37h1M163 37h4M7 38h4M18 38h1M155 38h1M163 38h4M7 39h4M18 39h1M155 39h1M163 39h4M7 40h4M18 40h1M155 40h1M163 40h4M7 41h4M18 41h1M155 41h1M163 41h4M7 42h4M18 42h2M154 42h2M163 42h4M7 43h4M18 43h3M153 43h3M163 43h4M7 44h4M19 44h136M163 44h4M7 45h4M163 45h4M7 46h4M163 46h4M7 47h4M163 47h4M7 48h4M163 48h4M7 49h4M163 49h4M7 50h4M163 50h4M7 51h4M163 51h4M7 52h4M163 52h4M7 53h4M163 53h4M7 54h4M163 54h4M7 55h4M163 55h4M7 56h4M163 56h4M7 57h3M164 57h3M7 58h3M164 58h3M7 59h3M164 59h3M7 60h3M164 60h3M7 61h4M16 61h39M119 61h39M163 61h4M7 62h4M15 62h41M118 62h41M163 62h4M7 63h4M15 63h6M50 63h6M118 63h6M153 63h6M163 63h4M7 64h4M15 64h5M51 64h5M118 64h5M154 64h5M163 64h4M7 65h4M15 65h4M52 65h4M118 65h4M155 65h4M163 65h4M7 66h4M15 66h3M53 66h3M118 66h3M156 66h3M163 66h4M7 67h4M15 67h2M54 67h2M118 67h2M157 67h2M163 67h4M7 68h4M15 68h2M54 68h2M118 68h2M157 68h2M163 68h4M7 69h4M15 69h2M54 69h2M118 69h2M157 69h2M163 69h4M7 70h4M15 70h2M54 70h2M118 70h2M157 70h2M163 70h4M7 71h4M15 71h2M54 71h2M118 71h2M157 71h2M163 71h4M7 72h4M15 72h2M54 72h2M118 72h2M157 72h2M163 72h4M7 73h4M15 73h2M54 73h2M118 73h2M157 73h2M163 73h4M7 74h4M15 74h2M54 74h2M118 74h2M157 74h2M163 74h4M7 75h4M15 75h2M54 75h2M118 75h2M157 75h2M163 75h4M7 76h4M15 76h2M54 76h2M118 76h2M157 76h2M163 76h4M7 77h4M15 77h2M54 77h2M118 77h2M157 77h2M163 77h4M7 78h4M15 78h2M54 78h2M118 78h2M157 78h2M163 78h4M7 79h4M15 79h2M54 79h2M118 79h2M157 79h2M163 79h4M7 80h4M15 80h2M54 80h2M118 80h2M157 80h2M163 80h4M7 81h4M15 81h2M54 81h2M118 81h2M157 81h2M163 81h4M7 82h4M15 82h2M54 82h2M118 82h2M157 82h2M163 82h4M7 83h4M15 83h2M54 83h2M118 83h2M157 83h2M163 83h4M7 84h4M15 84h2M54 84h2M118 84h2M157 84h2M163 84h4M7 85h4M15 85h2M54 85h2M118 85h2M157 85h2M163 85h4M7 86h4M15 86h2M54 86h2M118 86h2M157 86h2M163 86h4M7 87h4M15 87h2M54 87h2M118 87h2M157 87h2M163 87h4M7 88h4M15 88h2M54 88h2M118 88h2M157 88h2M163 88h4M7 89h4M15 89h2M54 89h2M118 89h2M157 89h2M163 89h4M7 90h4M15 90h2M54 90h2M118 90h2M157 90h2M163 90h4M7 91h4M15 91h2M54 91h2M118 91h2M157 91h2M163 91h4M7 92h4M15 92h2M54 92h2M118 92h2M157 92h2M163 92h4M7 93h4M15 93h2M54 93h2M118 93h2M157 93h2M163 93h4M7 94h4M15 94h2M54 94h2M118 94h2M157 94h2M163 94h4M7 95h4M15 95h2M54 95h2M118 95h2M157 95h2M163 95h4M7 96h4M15 96h2M54 96h2M118 96h2M157 96h2M163 96h4M7 97h4M15 97h2M54 97h2M118 97h2M157 97h2M163 97h4M7 98h4M15 98h2M54 98h2M118 98h2M157 98h2M163 98h4M7 99h4M15 99h2M54 99h2M118 99h2M157 99h2M163 99h4M7 100h4M15 100h2M54 100h2M118 100h2M157 100h2M163 100h4M7 101h4M15 101h2M54 101h2M118 101h2M157 101h2M163 101h4M7 102h4M15 102h2M54 102h2M118 102h2M157 102h2M163 102h4M7 103h4M15 103h2M54 103h2M118 103h2M157 103h2M163 103h4M7 104h4M15 104h2M54 104h2M118 104h2M157 104h2M163 104h4M7 105h4M15 105h2M54 105h2M118 105h2M157 105h2M163 105h4M7 106h4M15 106h2M54 106h2M118 106h2M157 106h2M163 106h4M7 107h4M15 107h3M53 107h3M118 107h3M156 107h3M163 107h4M7 108h4M15 108h4M52 108h4M118 108h4M155 108h4M163 108h4M7 109h4M15 109h5M51 109h5M118 109h5M154 109h5M163 109h4M7 110h4M15 110h6M50 110h6M118 110h6M153 110h6M163 110h4M7 111h4M15 111h41M118 111h41M163 111h4M7 112h4M16 112h39M119 112h39M163 112h4M7 113h3M164 113h3M7 114h3M164 114h3M7 115h3M164 115h3M7 116h3M164 116h3M10 117h1M15 117h41M60 117h54M118 117h41M163 117h1M11 118h152M11 119h152M11 120h152" />
<path stroke="#534645" d="M4 15h1M169 15h1M4 16h1M169 16h1M4 17h1M169 17h1M20 19h2M152 19h2M4 22h1M169 22h1M4 23h1M169 23h1M4 24h1M169 24h1M4 29h1M169 29h1M4 30h1M15 30h1M158 30h1M169 30h1M4 31h1M15 31h1M158 31h1M169 31h1M15 32h1M158 32h1M15 33h1M158 33h1M15 34h1M158 34h1M15 35h1M158 35h1M4 36h1M15 36h1M158 36h1M169 36h1M4 37h1M15 37h1M158 37h1M169 37h1M4 38h1M15 38h1M158 38h1M169 38h1M4 39h1M15 39h1M158 39h1M169 39h1M4 40h1M15 40h1M158 40h1M169 40h1M4 45h1M169 45h1M4 46h1M169 46h1M4 47h1M20 47h2M152 47h2M169 47h1M4 48h1M169 48h1M4 49h1M169 49h1M4 54h1M169 54h1M4 55h1M169 55h1M4 56h1M169 56h1M4 57h1M169 57h1M4 58h1M17 58h2M52 58h2M120 58h2M155 58h2M169 58h1M4 59h1M169 59h1M4 60h1M169 60h1M4 61h1M169 61h1M4 62h1M169 62h1M4 63h1M169 63h1M4 64h1M169 64h1M4 65h1M12 65h1M58 65h1M115 65h1M161 65h1M169 65h1M4 66h1M12 66h1M58 66h1M115 66h1M161 66h1M169 66h1M4 67h1M12 67h1M58 67h1M115 67h1M161 67h1M169 67h1M4 68h1M169 68h1M4 69h1M169 69h1M12 72h1M58 72h1M115 72h1M161 72h1M12 73h1M58 73h1M115 73h1M161 73h1M4 74h1M12 74h1M58 74h1M115 74h1M161 74h1M169 74h1M4 75h1M169 75h1M4 76h1M169 76h1M4 77h1M169 77h1M4 78h1M169 78h1M12 79h1M58 79h1M115 79h1M161 79h1M12 80h1M58 80h1M115 80h1M161 80h1M12 81h1M58 81h1M115 81h1M161 81h1M4 83h1M169 83h1M4 84h1M169 84h1M4 85h1M169 85h1M4 86h1M12 86h1M58 86h1M115 86h1M161 86h1M169 86h1M4 87h1M12 87h1M58 87h1M115 87h1M161 87h1M169 87h1M4 92h1M12 92h1M58 92h1M115 92h1M161 92h1M169 92h1M4 93h1M12 93h1M58 93h1M115 93h1M161 93h1M169 93h1M4 94h1M12 94h1M58 94h1M115 94h1M161 94h1M169 94h1M4 95h1M169 95h1M12 99h1M58 99h1M115 99h1M161 99h1M4 100h1M12 100h1M58 100h1M115 100h1M161 100h1M169 100h1M4 101h1M12 101h1M58 101h1M115 101h1M161 101h1M169 101h1M4 102h1M169 102h1M12 106h1M58 106h1M115 106h1M161 106h1M4 107h1M12 107h1M58 107h1M115 107h1M161 107h1M169 107h1M4 108h1M12 108h1M58 108h1M115 108h1M161 108h1M169 108h1M4 109h1M169 109h1M4 114h1M169 114h1M4 115h1M17 115h2M52 115h2M120 115h2M155 115h2M169 115h1M4 116h1M169 116h1" />
<path stroke="#6f6f6f" d="M15 15h144M14 16h146M13 17h1M18 17h138M160 17h1M12 18h1M161 18h1M11 19h2M161 19h2M11 20h2M161 20h2M11 21h2M161 21h2M11 22h3M160 22h3M11 23h3M21 23h132M160 23h3M11 24h3M20 24h134M160 24h3M11 25h3M19 25h136M160 25h3M11 26h3M19 26h136M160 26h3M11 27h3M19 27h136M160 27h3M11 28h3M19 28h136M160 28h3M11 29h3M19 29h136M160 29h3M11 30h3M19 30h136M160 30h3M11 31h3M19 31h136M160 31h3M11 32h3M19 32h136M160 32h3M11 33h3M19 33h136M160 33h3M11 34h3M19 34h136M160 34h3M11 35h3M19 35h136M160 35h3M11 36h3M19 36h136M160 36h3M11 37h3M19 37h136M160 37h3M11 38h3M19 38h136M160 38h3M11 39h3M19 39h136M160 39h3M11 40h3M19 40h136M160 40h3M11 41h3M19 41h136M160 41h3M11 42h3M20 42h134M160 42h3M11 43h3M21 43h132M160 43h3M11 44h3M160 44h3M11 45h2M161 45h2M11 46h2M161 46h2M11 47h2M161 47h2M11 48h2M161 48h2M11 49h3M18 49h138M160 49h3M11 50h152M11 51h152M11 52h152M11 53h152M11 54h152M11 55h152M15 56h41M60 56h54M118 56h41M61 57h52M61 58h52M61 59h52M61 60h52M60 61h54M60 62h54M21 63h29M60 63h54M124 63h29M20 64h31M60 64h54M123 64h31M19 65h33M60 65h54M122 65h33M18 66h35M60 66h54M121 66h35M17 67h37M60 67h54M120 67h37M17 68h37M60 68h54M120 68h37M17 69h37M60 69h54M120 69h37M17 70h37M60 70h54M120 70h37M17 71h37M60 71h54M120 71h37M17 72h37M60 72h54M120 72h37M17 73h37M60 73h54M120 73h37M17 74h37M60 74h54M120 74h37M17 75h37M60 75h54M120 75h37M17 76h37M60 76h54M120 76h37M17 77h37M60 77h54M120 77h37M17 78h37M60 78h54M120 78h37M17 79h37M60 79h54M120 79h37M17 80h37M60 80h54M120 80h37M17 81h37M60 81h54M120 81h37M17 82h37M60 82h54M120 82h37M17 83h37M60 83h54M120 83h37M17 84h37M60 84h54M120 84h37M17 85h37M60 85h54M120 85h37M17 86h37M60 86h54M120 86h37M17 87h37M60 87h54M120 87h37M17 88h37M60 88h54M120 88h37M17 89h37M60 89h54M120 89h37M17 90h37M60 90h54M120 90h37M17 91h37M60 91h54M120 91h37M17 92h37M60 92h54M120 92h37M17 93h37M60 93h54M120 93h37M17 94h37M60 94h54M120 94h37M17 95h37M60 95h54M120 95h37M17 96h37M60 96h54M120 96h37M17 97h37M60 97h54M120 97h37M17 98h37M60 98h54M120 98h37M17 99h37M60 99h54M120 99h37M17 100h37M60 100h54M120 100h37M17 101h37M60 101h54M120 101h37M17 102h37M60 102h54M120 102h37M17 103h37M60 103h54M120 103h37M17 104h37M60 104h54M120 104h37M17 105h37M60 105h54M120 105h37M17 106h37M60 106h54M120 106h37M18 107h35M60 107h54M121 107h35M19 108h33M60 108h54M122 108h33M20 109h31M60 109h54M123 109h31M21 110h29M60 110h54M124 110h29M60 111h54M60 112h54M61 113h52M61 114h52M61 115h52M61 116h52" />
<path stroke="#9eadb6" d="M4 19h1M169 19h1M4 20h1M169 20h1M4 26h1M169 26h1M4 27h1M15 27h1M158 27h1M169 27h1M15 28h1M158 28h1M4 33h1M169 33h1M4 34h1M169 34h1M4 42h1M169 42h1M4 43h1M169 43h1M4 51h1M169 51h1M4 52h1M169 52h1M12 69h1M58 69h1M115 69h1M161 69h1M12 70h1M58 70h1M115 70h1M161 70h1M4 71h1M169 71h1M4 72h1M169 72h1M12 76h1M58 76h1M115 76h1M161 76h1M12 77h1M58 77h1M115 77h1M161 77h1M4 80h1M169 80h1M4 81h1M169 81h1M12 83h1M58 83h1M115 83h1M161 83h1M12 84h1M58 84h1M115 84h1M161 84h1M4 89h1M12 89h1M58 89h1M115 89h1M161 89h1M169 89h1M4 90h1M12 90h1M58 90h1M115 90h1M161 90h1M169 90h1M12 96h1M58 96h1M115 96h1M161 96h1M4 97h1M12 97h1M58 97h1M115 97h1M161 97h1M169 97h1M4 98h1M169 98h1M12 103h1M58 103h1M115 103h1M161 103h1M4 104h1M12 104h1M58 104h1M115 104h1M161 104h1M169 104h1M4 105h1M169 105h1M4 111h1M169 111h1M4 112h1M169 112h1" />
<path stroke="#737e84" d="M5 19h1M168 19h1M5 20h1M168 20h1M5 26h1M168 26h1M5 27h1M16 27h1M157 27h1M168 27h1M16 28h1M157 28h1M5 33h1M168 33h1M5 34h1M168 34h1M5 42h1M168 42h1M5 43h1M168 43h1M5 51h1M168 51h1M5 52h1M168 52h1M13 69h1M57 69h1M116 69h1M160 69h1M13 70h1M57 70h1M116 70h1M160 70h1M5 71h1M168 71h1M5 72h1M168 72h1M13 76h1M57 76h1M116 76h1M160 76h1M13 77h1M57 77h1M116 77h1M160 77h1M5 80h1M168 80h1M5 81h1M168 81h1M13 83h1M57 83h1M116 83h1M160 83h1M13 84h1M57 84h1M116 84h1M160 84h1M5 89h1M13 89h1M57 89h1M116 89h1M160 89h1M168 89h1M5 90h1M13 90h1M57 90h1M116 90h1M160 90h1M168 90h1M13 96h1M57 96h1M116 96h1M160 96h1M5 97h1M13 97h1M57 97h1M116 97h1M160 97h1M168 97h1M5 98h1M168 98h1M13 103h1M57 103h1M116 103h1M160 103h1M5 104h1M13 104h1M57 104h1M116 104h1M160 104h1M168 104h1M5 105h1M168 105h1M5 111h1M168 111h1M5 112h1M168 112h1" />
<path stroke="#5e504f" d="M15 24h1M158 24h1M15 25h1M158 25h1M15 41h1M158 41h1M15 42h1M158 42h1M12 63h1M58 63h1M115 63h1M161 63h1M12 64h1M58 64h1M115 64h1M161 64h1M12 109h1M58 109h1M115 109h1M161 109h1M12 110h1M58 110h1M115 110h1M161 110h1" />
</svg>