<svg xmlns="http://www.w3.org/2000/svg" viewBox="0 -0.5 37 29" shape-rendering="crispEdges">
<metadata>Made with Pixels to Svg https://codepen.io/shshaw/pen/XbxvNj</metadata>
<path stroke="#000000" d="M7 6h23M5 7h2M30 7h2M5 8h2M30 8h2M5 9h2M30 9h2M5 10h2M15 10h3M30 10h2M5 11h2M15 11h1M18 11h1M30 11h2M5 12h2M15 12h1M19 12h1M30 12h2M5 13h2M15 13h1M20 13h1M30 13h2M5 14h2M15 14h1M21 14h1M30 14h2M5 15h2M15 15h1M22 15h1M30 15h2M5 16h2M15 16h1M21 16h1M30 16h2M5 17h2M15 17h1M20 17h1M30 17h2M5 18h2M15 18h1M19 18h1M30 18h2M5 19h2M15 19h1M18 19h1M30 19h2M5 20h2M15 20h3M30 20h2M5 21h2M30 21h2M5 22h2M30 22h2M5 23h2M30 23h2M7 24h23" />
<path stroke="#4f4f4f" d="M4 7h1M32 7h1M4 8h1M32 8h1M4 9h1M32 9h1M4 10h1M32 10h1M4 11h1M32 11h1M4 12h1M32 12h1M4 13h1M32 13h1M4 14h1M32 14h1M4 15h1M32 15h1M4 16h1M32 16h1M4 17h1M32 17h1M4 18h1M32 18h1M4 19h1M32 19h1M4 20h1M32 20h1M4 21h1M32 21h1M4 22h1M32 22h1M4 23h1M32 23h1M5 24h2M30 24h2M6 25h25" />
<path stroke="#1139a7" d="M7 7h23M7 8h23M7 9h23M7 10h8M18 10h12M7 11h8M19 11h11M7 12h8M20 12h10M7 13h8M21 13h9M7 14h8M22 14h8M7 15h8M23 15h7M7 16h8M22 16h8M7 17h8M21 17h9M7 18h8M20 18h10M7 19h8M19 19h11M7 20h8M18 20h12M8 21h21" />
<path stroke="#ffffff" d="M16 11h2M16 12h3M16 13h4M16 14h5M16 15h6M16 16h5M16 17h4M16 18h3M16 19h2" />
<path stroke="#0f2f8b" d="M7 21h1M29 21h1M8 22h21" />
<path stroke="#0d2c83" d="M7 22h1M29 22h1M7 23h23" />
</svg>