<svg xmlns="http://www.w3.org/2000/svg" viewBox="0 -0.5 200 136" shape-rendering="crispEdges">
<metadata>Made with Pixels to Svg https://codepen.io/shshaw/pen/XbxvNj</metadata>
<path stroke="#000000" d="M13 9h83M104 9h83M12 10h1M96 10h2M102 10h2M187 10h1M10 11h2M98 11h1M101 11h1M188 11h2M9 12h1M98 12h1M101 12h1M190 12h1M8 13h1M98 13h1M101 13h1M191 13h1M8 14h1M98 14h1M101 14h1M191 14h1M8 15h1M94 15h1M105 15h1M191 15h1M8 16h1M94 16h1M105 16h1M191 16h1M8 17h1M32 17h1M36 17h1M40 17h1M47 17h1M56 17h1M64 17h1M71 17h1M80 17h1M94 17h1M105 17h1M130 17h1M138 17h1M147 17h1M149 17h1M154 17h1M161 17h1M169 17h1M191 17h1M8 18h1M28 18h5M36 18h1M40 18h1M44 18h1M48 18h1M56 18h1M60 18h5M68 18h1M72 18h3M78 18h3M98 18h1M101 18h1M127 18h1M131 18h1M135 18h5M143 18h5M151 18h1M154 18h1M158 18h1M162 18h1M166 18h1M170 18h1M191 18h1M8 19h1M25 19h1M31 19h1M36 19h1M40 19h1M47 19h2M56 19h1M63 19h1M68 19h5M78 19h1M98 19h1M101 19h1M127 19h1M131 19h1M135 19h1M139 19h1M146 19h1M154 19h1M158 19h1M162 19h1M166 19h1M170 19h1M191 19h1M8 20h1M26 20h3M32 20h1M36 20h1M40 20h1M44 20h1M48 20h1M52 20h1M56 20h1M60 20h4M68 20h1M72 20h1M78 20h1M98 20h1M101 20h1M131 20h1M135 20h2M139 20h1M143 20h4M149 20h1M154 20h1M158 20h1M162 20h1M170 20h1M191 20h1M8 21h1M31 21h3M39 21h2M47 21h3M55 21h2M64 21h2M71 21h2M79 21h1M98 21h1M101 21h1M127 21h1M131 21h2M138 21h2M147 21h1M149 21h3M154 21h1M161 21h2M166 21h1M170 21h1M191 21h1M8 22h1M25 22h7M34 22h6M41 22h7M50 22h6M57 22h8M66 22h6M74 22h6M98 22h1M101 22h1M124 22h8M133 22h6M140 22h10M152 22h10M163 22h8M191 22h1M8 23h1M98 23h1M101 23h1M191 23h1M8 24h1M98 24h1M101 24h1M191 24h1M8 25h1M98 25h1M101 25h1M191 25h1M8 26h1M98 26h1M101 26h1M191 26h1M8 27h1M94 27h1M105 27h1M191 27h1M8 28h1M94 28h1M105 28h1M191 28h1M8 29h1M94 29h1M105 29h1M191 29h1M8 30h1M98 30h1M101 30h1M191 30h1M8 31h1M98 31h1M101 31h1M191 31h1M8 32h1M98 32h1M101 32h1M191 32h1M8 33h1M98 33h1M101 33h1M191 33h1M8 34h1M98 34h1M101 34h1M191 34h1M8 35h1M98 35h1M101 35h1M191 35h1M8 36h1M98 36h1M101 36h1M191 36h1M8 37h1M98 37h1M101 37h1M191 37h1M8 38h1M98 38h1M101 38h1M191 38h1M8 39h1M94 39h1M105 39h1M191 39h1M8 40h1M94 40h1M105 40h1M191 40h1M8 41h1M94 41h1M105 41h1M132 41h7M140 41h8M149 41h4M154 41h9M191 41h1M8 42h1M98 42h1M101 42h1M131 42h1M135 42h1M139 42h2M148 42h2M153 42h2M162 42h1M191 42h1M8 43h1M98 43h1M101 43h1M131 43h1M135 43h1M139 43h2M144 43h1M148 43h2M153 43h2M158 43h1M162 43h1M191 43h1M8 44h1M98 44h1M101 44h1M131 44h1M139 44h2M144 44h1M148 44h2M153 44h2M158 44h1M162 44h1M191 44h1M8 45h1M98 45h1M101 45h1M131 45h1M135 45h1M139 45h2M148 45h2M153 45h2M161 45h2M191 45h1M8 46h1M98 46h1M101 46h1M131 46h1M135 46h1M139 46h2M144 46h1M148 46h2M153 46h2M158 46h1M162 46h1M191 46h1M8 47h1M98 47h1M101 47h1M131 47h1M135 47h1M139 47h2M144 47h1M148 47h2M153 47h2M158 47h1M162 47h1M191 47h1M8 48h1M98 48h1M101 48h1M132 48h7M140 48h8M149 48h4M154 48h9M191 48h1M8 49h1M98 49h1M101 49h1M191 49h1M8 50h1M98 50h1M101 50h1M191 50h1M8 51h1M94 51h1M105 51h1M191 51h1M8 52h1M94 52h1M105 52h1M191 52h1M8 53h1M94 53h1M105 53h1M191 53h1M8 54h1M98 54h1M101 54h1M191 54h1M8 55h1M98 55h1M101 55h1M191 55h1M8 56h1M98 56h1M101 56h1M191 56h1M8 57h1M98 57h1M101 57h1M191 57h1M8 58h1M98 58h1M101 58h1M191 58h1M8 59h1M98 59h1M101 59h1M191 59h1M8 60h1M98 60h1M101 60h1M191 60h1M8 61h1M98 61h1M101 61h1M191 61h1M8 62h1M98 62h1M101 62h1M191 62h1M8 63h1M94 63h1M105 63h1M132 63h8M141 63h3M145 63h4M150 63h3M155 63h2M160 63h3M191 63h1M8 64h1M94 64h1M105 64h1M131 64h1M140 64h1M144 64h1M149 64h1M153 64h2M157 64h3M163 64h1M191 64h1M8 65h1M94 65h1M105 65h1M131 65h1M136 65h5M144 65h1M148 65h2M153 65h2M158 65h2M163 65h1M191 65h1M8 66h1M98 66h1M101 66h1M131 66h1M136 66h5M147 66h3M153 66h2M159 66h1M163 66h1M191 66h1M8 67h1M98 67h1M101 67h1M131 67h1M140 67h1M145 67h5M153 67h2M163 67h1M191 67h1M8 68h1M98 68h1M101 68h1M132 68h5M140 68h1M147 68h3M153 68h2M157 68h1M163 68h1M191 68h1M8 69h1M98 69h1M101 69h1M131 69h1M140 69h1M144 69h1M148 69h2M153 69h2M157 69h3M163 69h1M191 69h1M8 70h1M98 70h1M101 70h1M131 70h1M140 70h1M144 70h1M149 70h1M153 70h2M157 70h3M163 70h1M191 70h1M8 71h1M98 71h1M101 71h1M132 71h8M141 71h8M150 71h8M160 71h4M191 71h1M8 72h1M98 72h1M101 72h1M191 72h1M8 73h1M98 73h1M101 73h1M191 73h1M8 74h1M98 74h1M101 74h1M191 74h1M8 75h1M94 75h1M105 75h1M191 75h1M8 76h1M94 76h1M105 76h1M191 76h1M8 77h1M94 77h1M105 77h1M191 77h1M8 78h1M98 78h1M101 78h1M191 78h1M8 79h1M98 79h1M101 79h1M191 79h1M8 80h1M98 80h1M101 80h1M191 80h1M8 81h1M98 81h1M101 81h1M191 81h1M8 82h1M98 82h1M101 82h1M191 82h1M8 83h1M98 83h1M101 83h1M191 83h1M8 84h1M98 84h1M101 84h1M191 84h1M8 85h1M98 85h1M101 85h1M191 85h1M8 86h1M98 86h1M101 86h1M133 86h7M141 86h3M146 86h4M151 86h3M155 86h8M191 86h1M8 87h1M94 87h1M105 87h1M132 87h1M140 87h1M144 87h2M150 87h1M154 87h1M163 87h1M191 87h1M8 88h1M94 88h1M105 88h1M132 88h1M135 88h6M144 88h2M150 88h1M154 88h3M161 88h3M191 88h1M8 89h1M94 89h1M105 89h1M132 89h1M139 89h2M144 89h2M150 89h1M154 89h3M161 89h1M191 89h1M8 90h1M98 90h1M101 90h1M132 90h1M139 90h2M144 90h2M150 90h1M154 90h3M161 90h1M191 90h1M8 91h1M98 91h1M101 91h1M133 91h3M140 91h1M144 91h2M150 91h1M154 91h3M161 91h1M191 91h1M8 92h1M98 92h1M101 92h1M132 92h1M139 92h3M149 92h2M154 92h2M162 92h1M191 92h1M8 93h1M98 93h1M101 93h1M132 93h8M142 93h8M151 93h4M156 93h7M191 93h1M8 94h1M98 94h1M101 94h1M191 94h1M8 95h1M98 95h1M101 95h1M191 95h1M8 96h1M98 96h1M101 96h1M191 96h1M8 97h1M98 97h1M101 97h1M191 97h1M8 98h1M98 98h1M101 98h1M191 98h1M8 99h1M94 99h1M105 99h1M191 99h1M8 100h1M94 100h1M105 100h1M191 100h1M8 101h1M94 101h1M105 101h1M191 101h1M8 102h1M98 102h1M101 102h1M191 102h1M8 103h1M98 103h1M101 103h1M191 103h1M8 104h1M98 104h1M101 104h1M191 104h1M8 105h1M98 105h1M101 105h1M191 105h1M8 106h1M98 106h1M101 106h1M191 106h1M8 107h1M98 107h1M101 107h1M191 107h1M8 108h1M98 108h1M101 108h1M191 108h1M8 109h1M98 109h1M101 109h1M191 109h1M8 110h1M98 110h1M101 110h1M191 110h1M8 111h1M94 111h1M105 111h1M191 111h1M8 112h1M94 112h1M105 112h1M191 112h1M8 113h1M94 113h1M105 113h1M191 113h1M8 114h1M98 114h1M101 114h1M191 114h1M8 115h1M98 115h1M101 115h1M191 115h1M8 116h1M98 116h1M101 116h1M191 116h1M9 117h1M98 117h1M101 117h1M190 117h1M10 118h2M98 118h1M101 118h1M188 118h2M12 119h1M96 119h2M102 119h2M187 119h1M13 120h84M103 120h84" />
<path stroke="#e0e0e0" d="M13 10h3M184 10h3M12 11h2M186 11h2M10 12h1M12 12h1M187 12h1M189 12h1M10 13h1M12 13h1M187 13h1M189 13h1M10 14h1M12 14h1M187 14h1M189 14h1M10 15h1M12 15h1M187 15h1M189 15h1M10 16h1M12 16h1M187 16h1M189 16h1M10 17h1M12 17h1M187 17h1M189 17h1M10 18h1M12 18h1M187 18h1M189 18h1M10 19h1M12 19h1M187 19h1M189 19h1M10 20h1M12 20h1M187 20h1M189 20h1M10 21h1M12 21h1M187 21h1M189 21h1M10 22h1M12 22h1M187 22h1M189 22h1M10 23h1M12 23h1M187 23h1M189 23h1M10 24h1M12 24h1M187 24h1M189 24h1M10 25h1M12 25h1M187 25h1M189 25h1M10 26h1M12 26h1M187 26h1M189 26h1M10 27h1M12 27h1M187 27h1M189 27h1M10 28h1M12 28h1M16 28h75M109 28h74M187 28h1M189 28h1M10 29h1M12 29h1M187 29h1M189 29h1M10 30h1M12 30h1M187 30h1M189 30h1M10 31h1M12 31h1M187 31h1M189 31h1M10 32h1M12 32h1M187 32h1M189 32h1M10 33h1M12 33h1M187 33h1M189 33h1M10 34h1M12 34h1M187 34h1M189 34h1M10 35h1M12 35h1M83 35h8M187 35h1M189 35h1M10 36h1M12 36h1M16 36h7M187 36h1M189 36h1M10 37h1M12 37h1M187 37h1M189 37h1M10 38h1M12 38h1M187 38h1M189 38h1M10 39h1M12 39h1M187 39h1M189 39h1M10 40h1M12 40h1M187 40h1M189 40h1M10 41h1M12 41h1M187 41h1M189 41h1M10 42h1M12 42h1M83 42h8M187 42h1M189 42h1M10 43h1M12 43h1M16 43h7M187 43h1M189 43h1M10 44h1M12 44h1M187 44h1M189 44h1M10 45h1M12 45h1M187 45h1M189 45h1M10 46h1M12 46h1M187 46h1M189 46h1M10 47h1M12 47h1M187 47h1M189 47h1M10 48h1M12 48h1M187 48h1M189 48h1M10 49h1M12 49h1M83 49h8M187 49h1M189 49h1M10 50h1M12 50h1M16 50h7M187 50h1M189 50h1M10 51h1M12 51h1M187 51h1M189 51h1M10 52h1M12 52h1M187 52h1M189 52h1M10 53h1M12 53h1M187 53h1M189 53h1M10 54h1M12 54h1M187 54h1M189 54h1M10 55h1M12 55h1M187 55h1M189 55h1M10 56h1M12 56h1M83 56h8M187 56h1M189 56h1M10 57h1M12 57h1M16 57h7M187 57h1M189 57h1M10 58h1M12 58h1M187 58h1M189 58h1M10 59h1M12 59h1M187 59h1M189 59h1M10 60h1M12 60h1M187 60h1M189 60h1M10 61h1M12 61h1M187 61h1M189 61h1M10 62h1M12 62h1M187 62h1M189 62h1M10 63h1M12 63h1M83 63h8M187 63h1M189 63h1M10 64h1M12 64h1M16 64h7M187 64h1M189 64h1M10 65h1M12 65h1M187 65h1M189 65h1M10 66h1M12 66h1M187 66h1M189 66h1M10 67h1M12 67h1M187 67h1M189 67h1M10 68h1M12 68h1M187 68h1M189 68h1M10 69h1M12 69h1M187 69h1M189 69h1M10 70h1M12 70h1M83 70h8M187 70h1M189 70h1M10 71h1M12 71h1M16 71h7M187 71h1M189 71h1M10 72h1M12 72h1M187 72h1M189 72h1M10 73h1M12 73h1M187 73h1M189 73h1M10 74h1M12 74h1M187 74h1M189 74h1M10 75h1M12 75h1M187 75h1M189 75h1M10 76h1M12 76h1M187 76h1M189 76h1M10 77h1M12 77h1M83 77h8M187 77h1M189 77h1M10 78h1M12 78h1M16 78h7M187 78h1M189 78h1M10 79h1M12 79h1M187 79h1M189 79h1M10 80h1M12 80h1M187 80h1M189 80h1M10 81h1M12 81h1M187 81h1M189 81h1M10 82h1M12 82h1M187 82h1M189 82h1M10 83h1M12 83h1M187 83h1M189 83h1M10 84h1M12 84h1M83 84h8M187 84h1M189 84h1M10 85h1M12 85h1M16 85h7M187 85h1M189 85h1M10 86h1M12 86h1M187 86h1M189 86h1M10 87h1M12 87h1M187 87h1M189 87h1M10 88h1M12 88h1M187 88h1M189 88h1M10 89h1M12 89h1M187 89h1M189 89h1M10 90h1M12 90h1M187 90h1M189 90h1M10 91h1M12 91h1M187 91h1M189 91h1M10 92h1M12 92h1M16 92h7M83 92h8M187 92h1M189 92h1M10 93h1M12 93h1M187 93h1M189 93h1M10 94h1M12 94h1M187 94h1M189 94h1M10 95h1M12 95h1M187 95h1M189 95h1M10 96h1M12 96h1M187 96h1M189 96h1M10 97h1M12 97h1M187 97h1M189 97h1M10 98h1M12 98h1M187 98h1M189 98h1M10 99h1M12 99h1M16 99h7M83 99h8M187 99h1M189 99h1M10 100h1M12 100h1M187 100h1M189 100h1M10 101h1M12 101h1M187 101h1M189 101h1M10 102h1M12 102h1M187 102h1M189 102h1M10 103h1M12 103h1M187 103h1M189 103h1M10 104h1M12 104h1M187 104h1M189 104h1M10 105h1M12 105h1M187 105h1M189 105h1M10 106h1M12 106h1M16 106h75M187 106h1M189 106h1M10 107h1M12 107h1M187 107h1M189 107h1M10 108h1M12 108h1M187 108h1M189 108h1M10 109h1M12 109h1M187 109h1M189 109h1M10 110h1M12 110h1M187 110h1M189 110h1M10 111h1M12 111h1M187 111h1M189 111h1M10 112h1M12 112h1M187 112h1M189 112h1M10 113h1M12 113h1M16 113h75M187 113h1M189 113h1M10 114h1M12 114h1M187 114h1M189 114h1M10 115h1M12 115h1M187 115h1M189 115h1M10 116h1M12 116h1M187 116h1M189 116h1M10 117h1M12 117h1M187 117h1M189 117h1M12 118h2M186 118h2M13 119h2M185 119h2" />
<path stroke="#f9f9f9" d="M16 10h80M104 10h80M14 11h84M102 11h84M13 12h85M102 12h85M13 13h85M102 13h85M13 14h85M102 14h85M13 15h9M84 15h10M106 15h11M178 15h9M13 16h9M84 16h10M106 16h11M178 16h9M13 17h9M84 17h10M106 17h11M178 17h9M13 18h9M84 18h14M102 18h15M178 18h9M13 19h9M84 19h14M102 19h15M178 19h9M13 20h9M84 20h14M102 20h15M178 20h9M13 21h9M84 21h14M102 21h15M178 21h9M13 22h9M84 22h14M102 22h15M178 22h9M13 23h9M84 23h14M102 23h15M178 23h9M13 24h9M84 24h14M102 24h15M178 24h9M13 25h85M102 25h85M13 26h85M102 26h85M13 27h81M106 27h81M13 28h3M91 28h3M106 28h3M183 28h4M13 29h81M106 29h81M13 30h85M102 30h85M13 31h13M80 31h18M102 31h85M13 32h12M81 32h17M102 32h85M13 33h11M82 33h16M102 33h85M13 34h10M83 34h15M102 34h85M13 35h10M91 35h7M102 35h85M13 36h3M83 36h15M102 36h85M13 37h10M83 37h15M102 37h16M178 37h9M13 38h10M83 38h15M102 38h14M179 38h8M13 39h10M83 39h11M106 39h9M180 39h7M13 40h10M83 40h11M106 40h9M180 40h7M13 41h10M83 41h11M106 41h9M180 41h7M13 42h10M91 42h7M102 42h13M180 42h7M13 43h3M83 43h15M102 43h13M180 43h7M13 44h10M83 44h15M102 44h13M180 44h7M13 45h10M83 45h15M102 45h13M180 45h7M13 46h10M83 46h15M102 46h13M180 46h7M13 47h10M83 47h15M102 47h13M180 47h7M13 48h10M83 48h15M102 48h13M180 48h7M13 49h10M91 49h7M102 49h13M180 49h7M13 50h3M83 50h15M102 50h13M180 50h7M13 51h10M83 51h11M106 51h10M179 51h8M13 52h10M83 52h11M106 52h12M178 52h9M13 53h10M83 53h11M106 53h81M13 54h10M83 54h15M102 54h85M13 55h10M83 55h15M102 55h85M13 56h10M91 56h7M102 56h85M13 57h3M83 57h15M102 57h85M13 58h10M83 58h15M102 58h85M13 59h10M83 59h15M102 59h16M177 59h10M13 60h10M83 60h15M102 60h14M179 60h8M13 61h10M83 61h15M102 61h13M180 61h7M13 62h10M83 62h15M102 62h13M180 62h7M13 63h10M91 63h3M106 63h9M180 63h7M13 64h3M83 64h11M106 64h9M180 64h7M13 65h10M83 65h11M106 65h9M180 65h7M13 66h10M83 66h15M102 66h13M180 66h7M13 67h10M83 67h15M102 67h13M180 67h7M13 68h10M83 68h15M102 68h13M180 68h7M13 69h10M83 69h15M102 69h13M180 69h7M13 70h10M91 70h7M102 70h13M180 70h7M13 71h3M83 71h15M102 71h13M180 71h7M13 72h10M83 72h15M102 72h13M180 72h7M13 73h10M83 73h15M102 73h14M179 73h8M13 74h10M83 74h15M102 74h16M177 74h10M13 75h10M83 75h11M106 75h81M13 76h10M83 76h11M106 76h81M13 77h10M91 77h3M106 77h81M13 78h3M83 78h15M102 78h85M13 79h10M83 79h15M102 79h85M13 80h10M83 80h15M102 80h85M13 81h10M83 81h15M102 81h85M13 82h10M83 82h15M102 82h16M177 82h10M13 83h10M83 83h15M102 83h14M179 83h8M13 84h10M91 84h7M102 84h13M180 84h7M13 85h3M83 85h15M102 85h13M180 85h7M13 86h10M83 86h15M102 86h13M180 86h7M13 87h10M83 87h11M106 87h9M180 87h7M13 88h10M83 88h11M106 88h9M180 88h7M13 89h10M83 89h11M106 89h9M180 89h7M13 90h10M83 90h15M102 90h13M180 90h7M13 91h10M83 91h15M102 91h13M180 91h7M13 92h3M91 92h7M102 92h13M180 92h7M13 93h10M83 93h15M102 93h13M180 93h7M13 94h10M83 94h15M102 94h13M180 94h7M13 95h10M83 95h15M102 95h13M180 95h7M13 96h10M83 96h15M102 96h14M179 96h8M13 97h10M83 97h15M102 97h16M177 97h10M13 98h10M83 98h15M102 98h85M13 99h3M91 99h3M106 99h81M13 100h11M82 100h12M106 100h81M13 101h12M81 101h13M106 101h81M13 102h13M80 102h18M102 102h85M13 103h85M102 103h85M13 104h85M102 104h85M13 105h85M102 105h85M13 106h3M91 106h7M102 106h85M13 107h85M102 107h85M13 108h85M102 108h85M13 109h85M102 109h85M13 110h85M102 110h85M13 111h81M106 111h81M13 112h81M106 112h81M13 113h3M91 113h3M106 113h81M13 114h85M102 114h85M13 115h85M102 115h85M13 116h85M102 116h85M13 117h85M102 117h85M14 118h84M102 118h84M15 119h81M104 119h81" />
<path stroke="#bfbfbf" d="M11 12h1M188 12h1M9 13h1M11 13h1M188 13h1M190 13h1M9 14h1M11 14h1M188 14h1M190 14h1M9 15h1M11 15h1M188 15h1M190 15h1M9 16h1M11 16h1M188 16h1M190 16h1M9 17h1M11 17h1M188 17h1M190 17h1M9 18h1M11 18h1M188 18h1M190 18h1M9 19h1M11 19h1M188 19h1M190 19h1M9 20h1M11 20h1M188 20h1M190 20h1M9 21h1M11 21h1M188 21h1M190 21h1M9 22h1M11 22h1M188 22h1M190 22h1M9 23h1M11 23h1M188 23h1M190 23h1M9 24h1M11 24h1M188 24h1M190 24h1M9 25h1M11 25h1M188 25h1M190 25h1M9 26h1M11 26h1M188 26h1M190 26h1M9 27h1M11 27h1M188 27h1M190 27h1M9 28h1M11 28h1M188 28h1M190 28h1M9 29h1M11 29h1M188 29h1M190 29h1M9 30h1M11 30h1M188 30h1M190 30h1M9 31h1M11 31h1M188 31h1M190 31h1M9 32h1M11 32h1M188 32h1M190 32h1M9 33h1M11 33h1M188 33h1M190 33h1M9 34h1M11 34h1M188 34h1M190 34h1M9 35h1M11 35h1M188 35h1M190 35h1M9 36h1M11 36h1M188 36h1M190 36h1M9 37h1M11 37h1M188 37h1M190 37h1M9 38h1M11 38h1M188 38h1M190 38h1M9 39h1M11 39h1M188 39h1M190 39h1M9 40h1M11 40h1M188 40h1M190 40h1M9 41h1M11 41h1M188 41h1M190 41h1M9 42h1M11 42h1M188 42h1M190 42h1M9 43h1M11 43h1M188 43h1M190 43h1M9 44h1M11 44h1M188 44h1M190 44h1M9 45h1M11 45h1M188 45h1M190 45h1M9 46h1M11 46h1M188 46h1M190 46h1M9 47h1M11 47h1M188 47h1M190 47h1M9 48h1M11 48h1M188 48h1M190 48h1M9 49h1M11 49h1M188 49h1M190 49h1M9 50h1M11 50h1M188 50h1M190 50h1M9 51h1M11 51h1M188 51h1M190 51h1M9 52h1M11 52h1M188 52h1M190 52h1M9 53h1M11 53h1M188 53h1M190 53h1M9 54h1M11 54h1M188 54h1M190 54h1M9 55h1M11 55h1M188 55h1M190 55h1M9 56h1M11 56h1M188 56h1M190 56h1M9 57h1M11 57h1M188 57h1M190 57h1M9 58h1M11 58h1M188 58h1M190 58h1M9 59h1M11 59h1M188 59h1M190 59h1M9 60h1M11 60h1M188 60h1M190 60h1M9 61h1M11 61h1M188 61h1M190 61h1M9 62h1M11 62h1M188 62h1M190 62h1M9 63h1M11 63h1M188 63h1M190 63h1M9 64h1M11 64h1M188 64h1M190 64h1M9 65h1M11 65h1M188 65h1M190 65h1M9 66h1M11 66h1M188 66h1M190 66h1M9 67h1M11 67h1M188 67h1M190 67h1M9 68h1M11 68h1M188 68h1M190 68h1M9 69h1M11 69h1M188 69h1M190 69h1M9 70h1M11 70h1M188 70h1M190 70h1M9 71h1M11 71h1M188 71h1M190 71h1M9 72h1M11 72h1M188 72h1M190 72h1M9 73h1M11 73h1M188 73h1M190 73h1M9 74h1M11 74h1M188 74h1M190 74h1M9 75h1M11 75h1M188 75h1M190 75h1M9 76h1M11 76h1M188 76h1M190 76h1M9 77h1M11 77h1M188 77h1M190 77h1M9 78h1M11 78h1M188 78h1M190 78h1M9 79h1M11 79h1M188 79h1M190 79h1M9 80h1M11 80h1M188 80h1M190 80h1M9 81h1M11 81h1M188 81h1M190 81h1M9 82h1M11 82h1M188 82h1M190 82h1M9 83h1M11 83h1M188 83h1M190 83h1M9 84h1M11 84h1M188 84h1M190 84h1M9 85h1M11 85h1M188 85h1M190 85h1M9 86h1M11 86h1M188 86h1M190 86h1M9 87h1M11 87h1M188 87h1M190 87h1M9 88h1M11 88h1M188 88h1M190 88h1M9 89h1M11 89h1M188 89h1M190 89h1M9 90h1M11 90h1M188 90h1M190 90h1M9 91h1M11 91h1M188 91h1M190 91h1M9 92h1M11 92h1M188 92h1M190 92h1M9 93h1M11 93h1M188 93h1M190 93h1M9 94h1M11 94h1M188 94h1M190 94h1M9 95h1M11 95h1M188 95h1M190 95h1M9 96h1M11 96h1M188 96h1M190 96h1M9 97h1M11 97h1M188 97h1M190 97h1M9 98h1M11 98h1M188 98h1M190 98h1M9 99h1M11 99h1M188 99h1M190 99h1M9 100h1M11 100h1M188 100h1M190 100h1M9 101h1M11 101h1M188 101h1M190 101h1M9 102h1M11 102h1M188 102h1M190 102h1M9 103h1M11 103h1M188 103h1M190 103h1M9 104h1M11 104h1M188 104h1M190 104h1M9 105h1M11 105h1M188 105h1M190 105h1M9 106h1M11 106h1M188 106h1M190 106h1M9 107h1M11 107h1M188 107h1M190 107h1M9 108h1M11 108h1M188 108h1M190 108h1M9 109h1M11 109h1M188 109h1M190 109h1M9 110h1M11 110h1M188 110h1M190 110h1M9 111h1M11 111h1M188 111h1M190 111h1M9 112h1M11 112h1M188 112h1M190 112h1M9 113h1M11 113h1M188 113h1M190 113h1M9 114h1M11 114h1M188 114h1M190 114h1M9 115h1M11 115h1M188 115h1M190 115h1M9 116h1M11 116h1M188 116h1M190 116h1M11 117h1M188 117h1" />
<path stroke="#6a5b36" d="M22 15h62M117 15h61M22 16h1M83 16h1M117 16h1M177 16h1M22 17h1M83 17h1M117 17h1M177 17h1M22 18h1M83 18h1M117 18h1M177 18h1M22 19h1M83 19h1M117 19h1M177 19h1M22 20h1M83 20h1M117 20h1M177 20h1M22 21h1M83 21h1M117 21h1M177 21h1M22 22h1M83 22h1M117 22h1M177 22h1M22 23h1M83 23h1M117 23h1M177 23h1M22 24h62M117 24h61M26 31h54M25 32h1M80 32h1M24 33h1M81 33h1M23 34h1M82 34h1M23 35h1M82 35h1M23 36h1M82 36h1M23 37h1M82 37h1M118 37h60M23 38h1M82 38h1M116 38h4M175 38h4M23 39h1M82 39h1M115 39h4M176 39h4M23 40h1M82 40h1M115 40h3M178 40h2M23 41h1M82 41h1M115 41h1M179 41h1M23 42h1M82 42h1M115 42h1M179 42h1M23 43h1M82 43h1M115 43h1M179 43h1M23 44h1M82 44h1M115 44h1M179 44h1M23 45h1M82 45h1M115 45h1M179 45h1M23 46h1M82 46h1M115 46h1M179 46h1M23 47h1M82 47h1M115 47h1M179 47h1M23 48h1M82 48h1M115 48h1M179 48h1M23 49h1M82 49h1M115 49h3M178 49h2M23 50h1M82 50h1M115 50h4M176 50h4M23 51h1M82 51h1M116 51h4M175 51h4M23 52h1M82 52h1M118 52h60M23 53h1M82 53h1M23 54h1M82 54h1M23 55h1M82 55h1M23 56h1M82 56h1M23 57h1M82 57h1M23 58h1M82 58h1M23 59h1M82 59h1M118 59h59M23 60h1M82 60h1M116 60h4M175 60h4M23 61h1M82 61h1M115 61h4M176 61h4M23 62h1M82 62h1M115 62h3M177 62h3M23 63h1M82 63h1M115 63h1M179 63h1M23 64h1M82 64h1M115 64h1M179 64h1M23 65h1M82 65h1M115 65h1M179 65h1M23 66h1M82 66h1M115 66h1M179 66h1M23 67h1M82 67h1M115 67h1M179 67h1M23 68h1M82 68h1M115 68h1M179 68h1M23 69h1M82 69h1M115 69h1M179 69h1M23 70h1M82 70h1M115 70h1M179 70h1M23 71h1M82 71h1M115 71h3M177 71h3M23 72h1M82 72h1M115 72h4M176 72h4M23 73h1M82 73h1M116 73h4M175 73h4M23 74h1M82 74h1M118 74h59M23 75h1M82 75h1M23 76h1M82 76h1M23 77h1M82 77h1M23 78h1M82 78h1M23 79h1M82 79h1M23 80h1M82 80h1M23 81h1M82 81h1M23 82h1M82 82h1M118 82h59M23 83h1M82 83h1M116 83h4M175 83h4M23 84h1M82 84h1M115 84h4M176 84h4M23 85h1M82 85h1M115 85h3M177 85h3M23 86h1M82 86h1M115 86h1M179 86h1M23 87h1M82 87h1M115 87h1M179 87h1M23 88h1M82 88h1M115 88h1M179 88h1M23 89h1M82 89h1M115 89h1M179 89h1M23 90h1M82 90h1M115 90h1M179 90h1M23 91h1M82 91h1M115 91h1M179 91h1M23 92h1M82 92h1M115 92h1M179 92h1M23 93h1M82 93h1M115 93h1M179 93h1M23 94h1M82 94h1M115 94h3M177 94h3M23 95h1M82 95h1M115 95h4M176 95h4M23 96h1M82 96h1M116 96h4M175 96h4M23 97h1M82 97h1M118 97h59M23 98h1M82 98h1M23 99h1M82 99h1M24 100h1M81 100h1M25 101h1M80 101h1M26 102h54" />
<path stroke="#858585" d="M95 15h10M95 27h10M95 39h10M95 51h10M95 63h10M95 75h10M95 87h10M95 99h10M95 111h10" />
<path stroke="#998e71" d="M23 16h60M118 16h59M23 17h3M48 17h5M65 17h1M72 17h1M81 17h2M118 17h7M131 17h2M139 17h1M150 17h2M162 17h2M170 17h7M23 18h2M49 18h4M81 18h2M118 18h6M171 18h6M23 19h2M32 19h1M51 19h2M64 19h1M73 19h2M79 19h4M118 19h6M147 19h1M171 19h6M23 20h3M64 20h1M73 20h2M79 20h4M118 20h6M147 20h1M171 20h6M23 21h2M73 21h1M80 21h3M118 21h6M171 21h6M23 22h2M32 22h2M40 22h1M48 22h2M56 22h1M65 22h1M72 22h2M80 22h3M118 22h6M132 22h1M139 22h1M150 22h2M162 22h1M171 22h6M23 23h60M118 23h59M120 38h55M119 39h57M118 40h60M116 41h16M139 41h1M148 41h1M153 41h1M163 41h16M116 42h15M163 42h16M116 43h15M163 43h16M116 44h15M163 44h16M116 45h15M163 45h16M116 46h15M163 46h16M116 47h15M163 47h16M116 48h16M139 48h1M148 48h1M153 48h1M163 48h16M118 49h60M119 50h57M120 51h55M120 60h55M119 61h57M118 62h59M116 63h16M140 63h1M144 63h1M149 63h1M153 63h2M157 63h3M163 63h16M116 64h15M164 64h15M116 65h15M164 65h15M116 66h15M164 66h15M116 67h15M164 67h15M116 68h16M164 68h15M116 69h15M164 69h15M116 70h15M164 70h15M118 71h14M140 71h1M149 71h1M158 71h2M164 71h13M119 72h57M120 73h55M120 83h55M119 84h57M118 85h59M116 86h17M140 86h1M144 86h2M150 86h1M154 86h1M163 86h16M116 87h16M164 87h15M116 88h16M164 88h15M116 89h16M162 89h17M116 90h16M162 90h17M116 91h17M162 91h17M116 92h16M163 92h16M116 93h16M140 93h2M150 93h1M155 93h1M163 93h16M118 94h59M119 95h57M120 96h55" />
<path stroke="#696a6a" d="M95 16h10M95 17h10M95 28h10M95 29h10M95 40h10M95 41h10M95 52h10M95 53h10M95 64h10M95 65h10M95 76h10M95 77h10M95 88h10M95 89h10M95 100h10M95 101h10M95 112h10M95 113h10" />
<path stroke="#ffffff" d="M26 17h6M33 17h3M37 17h3M41 17h6M53 17h3M57 17h7M66 17h5M73 17h7M125 17h5M133 17h5M140 17h7M148 17h1M152 17h2M155 17h6M164 17h5M25 18h3M33 18h3M37 18h3M41 18h3M45 18h3M53 18h3M57 18h3M65 18h3M69 18h3M75 18h3M124 18h3M128 18h3M132 18h3M140 18h3M148 18h3M152 18h2M155 18h3M159 18h3M163 18h3M167 18h3M26 19h5M33 19h3M37 19h3M41 19h6M49 19h2M53 19h3M57 19h6M65 19h3M75 19h3M124 19h3M128 19h3M132 19h3M136 19h3M140 19h6M148 19h6M155 19h3M159 19h3M163 19h3M167 19h3M29 20h3M33 20h3M37 20h3M41 20h3M45 20h3M49 20h3M53 20h3M57 20h3M65 20h3M69 20h3M75 20h3M124 20h7M132 20h3M137 20h2M140 20h3M148 20h1M150 20h4M155 20h3M159 20h3M163 20h7M25 21h6M34 21h5M41 21h6M50 21h5M57 21h7M66 21h5M74 21h5M124 21h3M128 21h3M133 21h5M140 21h7M148 21h1M152 21h2M155 21h6M163 21h3M167 21h3" />
<path stroke="#687b87" d="M26 32h54M25 33h56M24 34h5M77 34h5M24 35h4M78 35h4M24 36h3M79 36h3M24 37h2M80 37h2M24 38h2M80 38h2M24 39h2M80 39h2M24 40h2M80 40h2M24 41h2M80 41h2M24 42h2M80 42h2M24 43h2M80 43h2M24 44h2M80 44h2M24 45h2M80 45h2M24 46h2M80 46h2M24 47h2M80 47h2M24 48h2M80 48h2M24 49h2M80 49h2M24 50h2M80 50h2M24 51h2M80 51h2M24 52h2M80 52h2M24 53h2M80 53h2M24 54h2M80 54h2M24 55h2M80 55h2M24 56h2M80 56h2M24 57h2M80 57h2M24 58h2M80 58h2M24 59h2M80 59h2M24 60h2M80 60h2M24 61h2M80 61h2M24 62h2M80 62h2M24 63h2M80 63h2M24 64h2M80 64h2M24 65h2M80 65h2M24 66h2M80 66h2M24 67h2M80 67h2M24 68h2M80 68h2M24 69h2M80 69h2M24 70h2M80 70h2M24 71h2M80 71h2M24 72h2M80 72h2M24 73h2M80 73h2M24 74h2M80 74h2M24 75h2M80 75h2M24 76h2M80 76h2M24 77h2M80 77h2M24 78h2M80 78h2M24 79h2M80 79h2M24 80h2M80 80h2M24 81h2M80 81h2M24 82h2M80 82h2M24 83h2M80 83h2M24 84h2M80 84h2M24 85h2M80 85h2M24 86h2M80 86h2M24 87h2M80 87h2M24 88h2M80 88h2M24 89h2M80 89h2M24 90h2M80 90h2M24 91h2M80 91h2M24 92h2M80 92h2M24 93h2M80 93h2M24 94h2M80 94h2M24 95h2M80 95h2M24 96h2M80 96h2M24 97h3M79 97h3M24 98h4M78 98h4M24 99h5M77 99h5M25 100h56M26 101h54" />
<path stroke="#93a3ad" d="M29 34h48M28 35h50M27 36h5M74 36h5M26 37h5M75 37h5M26 38h4M76 38h4M26 39h3M77 39h3M26 40h2M78 40h2M26 41h2M78 41h2M26 42h2M78 42h2M26 43h2M78 43h2M26 44h2M78 44h2M26 45h2M78 45h2M26 46h2M78 46h2M26 47h2M78 47h2M26 48h2M78 48h2M26 49h2M78 49h2M26 50h2M78 50h2M26 51h2M78 51h2M26 52h2M78 52h2M26 53h2M78 53h2M26 54h2M78 54h2M26 55h2M78 55h2M26 56h2M78 56h2M26 57h2M78 57h2M26 58h2M78 58h2M26 59h2M78 59h2M26 60h2M78 60h2M26 61h2M78 61h2M26 62h2M78 62h2M26 63h2M78 63h2M26 64h2M78 64h2M26 65h2M78 65h2M26 66h2M78 66h2M26 67h2M78 67h2M26 68h2M78 68h2M26 69h2M78 69h2M26 70h2M78 70h2M26 71h2M78 71h2M26 72h2M78 72h2M26 73h2M78 73h2M26 74h2M78 74h2M26 75h2M78 75h2M26 76h2M78 76h2M26 77h2M78 77h2M26 78h2M78 78h2M26 79h2M78 79h2M26 80h2M78 80h2M26 81h2M78 81h2M26 82h2M78 82h2M26 83h2M78 83h2M26 84h2M78 84h2M26 85h2M78 85h2M26 86h2M78 86h2M26 87h2M78 87h2M26 88h2M78 88h2M26 89h2M78 89h2M26 90h2M78 90h2M26 91h2M78 91h2M26 92h2M78 92h2M26 93h2M78 93h2M26 94h3M77 94h3M26 95h4M76 95h4M26 96h5M75 96h5M27 97h5M74 97h5M28 98h50M29 99h48" />
<path stroke="#9eadb6" d="M32 36h42M31 37h44M30 38h46M29 39h48M28 40h50M28 41h50M28 42h50M28 43h50M28 44h50M28 45h50M28 46h50M28 47h50M28 48h50M28 49h50M28 50h50M28 51h50M28 52h50M28 53h50M28 54h50M28 55h50M28 56h50M28 57h50M28 58h50M28 59h50M28 60h50M28 61h50M28 62h50M28 63h50M28 64h50M28 65h50M28 66h50M28 67h50M28 68h50M28 69h50M28 70h50M28 71h50M28 72h50M28 73h50M28 74h50M28 75h50M28 76h50M28 77h50M28 78h50M28 79h50M28 80h50M28 81h50M28 82h50M28 83h50M28 84h50M28 85h50M28 86h50M28 87h50M28 88h50M28 89h50M28 90h50M28 91h50M28 92h50M28 93h50M29 94h48M30 95h46M31 96h44M32 97h42" />
<path stroke="#deae43" d="M132 42h3M136 42h3M141 42h7M150 42h3M155 42h7M132 43h3M136 43h3M141 43h3M145 43h3M150 43h3M155 43h3M159 43h3M132 44h7M141 44h3M145 44h3M150 44h3M155 44h3M159 44h3M132 45h3M136 45h3M141 45h7M150 45h3M155 45h6M132 46h3M136 46h3M141 46h3M145 46h3M150 46h3M155 46h3M159 46h3M132 47h3M136 47h3M141 47h3M145 47h3M150 47h3M155 47h3M159 47h3" />
<path stroke="#fdf0cd" d="M132 64h8M141 64h3M145 64h4M150 64h3M155 64h2M160 64h3M132 65h4M141 65h3M145 65h3M150 65h3M155 65h3M160 65h3M132 66h4M141 66h6M150 66h3M155 66h4M160 66h3M132 67h8M141 67h4M150 67h3M155 67h8M137 68h3M141 68h6M150 68h3M155 68h2M158 68h5M132 69h8M141 69h3M145 69h3M150 69h3M155 69h2M160 69h3M132 70h8M141 70h3M145 70h4M150 70h3M155 70h2M160 70h3" />
<path stroke="#8b8b8b" d="M133 87h7M141 87h3M146 87h4M151 87h3M155 87h8M133 88h2M141 88h3M146 88h4M151 88h3M157 88h4M133 89h6M141 89h3M146 89h4M151 89h3M157 89h4M133 90h6M141 90h3M146 90h4M151 90h3M157 90h4M136 91h4M141 91h3M146 91h4M151 91h3M157 91h4M133 92h6M142 92h7M151 92h3M156 92h6" />
</svg>