<svg xmlns="http://www.w3.org/2000/svg" viewBox="0 -0.5 184 112" shape-rendering="crispEdges">
<metadata>Made with Pixels to Svg https://codepen.io/shshaw/pen/XbxvNj</metadata>
<path stroke="#000000" d="M5 0h83M96 0h83M4 1h1M88 1h2M94 1h2M179 1h1M2 2h2M90 2h1M93 2h1M180 2h2M1 3h1M90 3h1M93 3h1M182 3h1M0 4h1M90 4h1M93 4h1M183 4h1M0 5h1M90 5h1M93 5h1M183 5h1M0 6h1M86 6h1M97 6h1M183 6h1M0 7h1M86 7h1M97 7h1M183 7h1M0 8h1M24 8h1M28 8h1M32 8h1M39 8h1M48 8h1M56 8h1M63 8h1M72 8h1M86 8h1M97 8h1M122 8h1M130 8h1M139 8h1M141 8h1M146 8h1M153 8h1M161 8h1M183 8h1M0 9h1M20 9h5M28 9h1M32 9h1M36 9h1M40 9h1M48 9h1M52 9h5M60 9h1M64 9h3M70 9h3M90 9h1M93 9h1M119 9h1M123 9h1M127 9h5M135 9h5M143 9h1M146 9h1M150 9h1M154 9h1M158 9h1M162 9h1M183 9h1M0 10h1M17 10h1M23 10h1M28 10h1M32 10h1M39 10h2M48 10h1M55 10h1M60 10h5M70 10h1M90 10h1M93 10h1M119 10h1M123 10h1M127 10h1M131 10h1M138 10h1M146 10h1M150 10h1M154 10h1M158 10h1M162 10h1M183 10h1M0 11h1M18 11h3M24 11h1M28 11h1M32 11h1M36 11h1M40 11h1M44 11h1M48 11h1M52 11h4M60 11h1M64 11h1M70 11h1M90 11h1M93 11h1M123 11h1M127 11h2M131 11h1M135 11h4M141 11h1M146 11h1M150 11h1M154 11h1M162 11h1M183 11h1M0 12h1M23 12h3M31 12h2M39 12h3M47 12h2M56 12h2M63 12h2M71 12h1M90 12h1M93 12h1M119 12h1M123 12h2M130 12h2M139 12h1M141 12h3M146 12h1M153 12h2M158 12h1M162 12h1M183 12h1M0 13h1M17 13h7M26 13h6M33 13h7M42 13h6M49 13h8M58 13h6M66 13h6M90 13h1M93 13h1M116 13h8M125 13h6M132 13h10M144 13h10M155 13h8M183 13h1M0 14h1M90 14h1M93 14h1M183 14h1M0 15h1M90 15h1M93 15h1M183 15h1M0 16h1M90 16h1M93 16h1M183 16h1M0 17h1M90 17h1M93 17h1M183 17h1M0 18h1M86 18h1M97 18h1M183 18h1M0 19h1M86 19h1M97 19h1M183 19h1M0 20h1M86 20h1M97 20h1M183 20h1M0 21h1M90 21h1M93 21h1M183 21h1M0 22h1M90 22h1M93 22h1M183 22h1M0 23h1M90 23h1M93 23h1M183 23h1M0 24h1M90 24h1M93 24h1M183 24h1M0 25h1M90 25h1M93 25h1M183 25h1M0 26h1M90 26h1M93 26h1M183 26h1M0 27h1M90 27h1M93 27h1M183 27h1M0 28h1M90 28h1M93 28h1M183 28h1M0 29h1M90 29h1M93 29h1M183 29h1M0 30h1M86 30h1M97 30h1M183 30h1M0 31h1M86 31h1M97 31h1M183 31h1M0 32h1M86 32h1M97 32h1M124 32h7M132 32h8M141 32h4M146 32h9M183 32h1M0 33h1M90 33h1M93 33h1M123 33h1M127 33h1M131 33h2M140 33h2M145 33h2M154 33h1M183 33h1M0 34h1M90 34h1M93 34h1M123 34h1M127 34h1M131 34h2M136 34h1M140 34h2M145 34h2M150 34h1M154 34h1M183 34h1M0 35h1M90 35h1M93 35h1M123 35h1M131 35h2M136 35h1M140 35h2M145 35h2M150 35h1M154 35h1M183 35h1M0 36h1M90 36h1M93 36h1M123 36h1M127 36h1M131 36h2M140 36h2M145 36h2M153 36h2M183 36h1M0 37h1M90 37h1M93 37h1M123 37h1M127 37h1M131 37h2M136 37h1M140 37h2M145 37h2M150 37h1M154 37h1M183 37h1M0 38h1M90 38h1M93 38h1M123 38h1M127 38h1M131 38h2M136 38h1M140 38h2M145 38h2M150 38h1M154 38h1M183 38h1M0 39h1M90 39h1M93 39h1M124 39h7M132 39h8M141 39h4M146 39h9M183 39h1M0 40h1M90 40h1M93 40h1M183 40h1M0 41h1M90 41h1M93 41h1M183 41h1M0 42h1M86 42h1M97 42h1M183 42h1M0 43h1M86 43h1M97 43h1M183 43h1M0 44h1M86 44h1M97 44h1M183 44h1M0 45h1M90 45h1M93 45h1M183 45h1M0 46h1M90 46h1M93 46h1M183 46h1M0 47h1M90 47h1M93 47h1M183 47h1M0 48h1M90 48h1M93 48h1M183 48h1M0 49h1M90 49h1M93 49h1M183 49h1M0 50h1M90 50h1M93 50h1M183 50h1M0 51h1M90 51h1M93 51h1M183 51h1M0 52h1M90 52h1M93 52h1M183 52h1M0 53h1M90 53h1M93 53h1M183 53h1M0 54h1M86 54h1M97 54h1M124 54h8M133 54h3M137 54h4M142 54h3M147 54h2M152 54h3M183 54h1M0 55h1M86 55h1M97 55h1M123 55h1M132 55h1M136 55h1M141 55h1M145 55h2M149 55h3M155 55h1M183 55h1M0 56h1M86 56h1M97 56h1M123 56h1M128 56h5M136 56h1M140 56h2M145 56h2M150 56h2M155 56h1M183 56h1M0 57h1M90 57h1M93 57h1M123 57h1M128 57h5M139 57h3M145 57h2M151 57h1M155 57h1M183 57h1M0 58h1M90 58h1M93 58h1M123 58h1M132 58h1M137 58h5M145 58h2M155 58h1M183 58h1M0 59h1M90 59h1M93 59h1M124 59h5M132 59h1M139 59h3M145 59h2M149 59h1M155 59h1M183 59h1M0 60h1M90 60h1M93 60h1M123 60h1M132 60h1M136 60h1M140 60h2M145 60h2M149 60h3M155 60h1M183 60h1M0 61h1M90 61h1M93 61h1M123 61h1M132 61h1M136 61h1M141 61h1M145 61h2M149 61h3M155 61h1M183 61h1M0 62h1M90 62h1M93 62h1M124 62h8M133 62h8M142 62h8M152 62h4M183 62h1M0 63h1M90 63h1M93 63h1M183 63h1M0 64h1M90 64h1M93 64h1M183 64h1M0 65h1M90 65h1M93 65h1M183 65h1M0 66h1M86 66h1M97 66h1M183 66h1M0 67h1M86 67h1M97 67h1M183 67h1M0 68h1M86 68h1M97 68h1M183 68h1M0 69h1M90 69h1M93 69h1M183 69h1M0 70h1M90 70h1M93 70h1M183 70h1M0 71h1M90 71h1M93 71h1M183 71h1M0 72h1M90 72h1M93 72h1M183 72h1M0 73h1M90 73h1M93 73h1M183 73h1M0 74h1M90 74h1M93 74h1M183 74h1M0 75h1M90 75h1M93 75h1M183 75h1M0 76h1M90 76h1M93 76h1M183 76h1M0 77h1M90 77h1M93 77h1M125 77h7M133 77h3M138 77h4M143 77h3M147 77h8M183 77h1M0 78h1M86 78h1M97 78h1M124 78h1M132 78h1M136 78h2M142 78h1M146 78h1M155 78h1M183 78h1M0 79h1M86 79h1M97 79h1M124 79h1M127 79h6M136 79h2M142 79h1M146 79h3M153 79h3M183 79h1M0 80h1M86 80h1M97 80h1M124 80h1M131 80h2M136 80h2M142 80h1M146 80h3M153 80h1M183 80h1M0 81h1M90 81h1M93 81h1M124 81h1M131 81h2M136 81h2M142 81h1M146 81h3M153 81h1M183 81h1M0 82h1M90 82h1M93 82h1M125 82h3M132 82h1M136 82h2M142 82h1M146 82h3M153 82h1M183 82h1M0 83h1M90 83h1M93 83h1M124 83h1M131 83h3M141 83h2M146 83h2M154 83h1M183 83h1M0 84h1M90 84h1M93 84h1M124 84h8M134 84h8M143 84h4M148 84h7M183 84h1M0 85h1M90 85h1M93 85h1M183 85h1M0 86h1M90 86h1M93 86h1M183 86h1M0 87h1M90 87h1M93 87h1M183 87h1M0 88h1M90 88h1M93 88h1M183 88h1M0 89h1M90 89h1M93 89h1M183 89h1M0 90h1M86 90h1M97 90h1M183 90h1M0 91h1M86 91h1M97 91h1M183 91h1M0 92h1M86 92h1M97 92h1M183 92h1M0 93h1M90 93h1M93 93h1M183 93h1M0 94h1M90 94h1M93 94h1M183 94h1M0 95h1M90 95h1M93 95h1M183 95h1M0 96h1M90 96h1M93 96h1M183 96h1M0 97h1M90 97h1M93 97h1M183 97h1M0 98h1M90 98h1M93 98h1M183 98h1M0 99h1M90 99h1M93 99h1M183 99h1M0 100h1M90 100h1M93 100h1M183 100h1M0 101h1M90 101h1M93 101h1M183 101h1M0 102h1M86 102h1M97 102h1M183 102h1M0 103h1M86 103h1M97 103h1M183 103h1M0 104h1M86 104h1M97 104h1M183 104h1M0 105h1M90 105h1M93 105h1M183 105h1M0 106h1M90 106h1M93 106h1M183 106h1M0 107h1M90 107h1M93 107h1M183 107h1M1 108h1M90 108h1M93 108h1M182 108h1M2 109h2M90 109h1M93 109h1M180 109h2M4 110h1M88 110h2M94 110h2M179 110h1M5 111h84M95 111h84" />
<path stroke="#e0e0e0" d="M5 1h3M176 1h3M4 2h2M178 2h2M2 3h1M4 3h1M179 3h1M181 3h1M2 4h1M4 4h1M179 4h1M181 4h1M2 5h1M4 5h1M179 5h1M181 5h1M2 6h1M4 6h1M179 6h1M181 6h1M2 7h1M4 7h1M179 7h1M181 7h1M2 8h1M4 8h1M179 8h1M181 8h1M2 9h1M4 9h1M179 9h1M181 9h1M2 10h1M4 10h1M179 10h1M181 10h1M2 11h1M4 11h1M179 11h1M181 11h1M2 12h1M4 12h1M179 12h1M181 12h1M2 13h1M4 13h1M179 13h1M181 13h1M2 14h1M4 14h1M179 14h1M181 14h1M2 15h1M4 15h1M179 15h1M181 15h1M2 16h1M4 16h1M179 16h1M181 16h1M2 17h1M4 17h1M179 17h1M181 17h1M2 18h1M4 18h1M179 18h1M181 18h1M2 19h1M4 19h1M8 19h75M101 19h74M179 19h1M181 19h1M2 20h1M4 20h1M179 20h1M181 20h1M2 21h1M4 21h1M179 21h1M181 21h1M2 22h1M4 22h1M179 22h1M181 22h1M2 23h1M4 23h1M179 23h1M181 23h1M2 24h1M4 24h1M179 24h1M181 24h1M2 25h1M4 25h1M179 25h1M181 25h1M2 26h1M4 26h1M75 26h8M179 26h1M181 26h1M2 27h1M4 27h1M8 27h7M179 27h1M181 27h1M2 28h1M4 28h1M179 28h1M181 28h1M2 29h1M4 29h1M179 29h1M181 29h1M2 30h1M4 30h1M179 30h1M181 30h1M2 31h1M4 31h1M179 31h1M181 31h1M2 32h1M4 32h1M179 32h1M181 32h1M2 33h1M4 33h1M75 33h8M179 33h1M181 33h1M2 34h1M4 34h1M8 34h7M179 34h1M181 34h1M2 35h1M4 35h1M179 35h1M181 35h1M2 36h1M4 36h1M179 36h1M181 36h1M2 37h1M4 37h1M179 37h1M181 37h1M2 38h1M4 38h1M179 38h1M181 38h1M2 39h1M4 39h1M179 39h1M181 39h1M2 40h1M4 40h1M75 40h8M179 40h1M181 40h1M2 41h1M4 41h1M8 41h7M179 41h1M181 41h1M2 42h1M4 42h1M179 42h1M181 42h1M2 43h1M4 43h1M179 43h1M181 43h1M2 44h1M4 44h1M179 44h1M181 44h1M2 45h1M4 45h1M179 45h1M181 45h1M2 46h1M4 46h1M179 46h1M181 46h1M2 47h1M4 47h1M75 47h8M179 47h1M181 47h1M2 48h1M4 48h1M8 48h7M179 48h1M181 48h1M2 49h1M4 49h1M179 49h1M181 49h1M2 50h1M4 50h1M179 50h1M181 50h1M2 51h1M4 51h1M179 51h1M181 51h1M2 52h1M4 52h1M179 52h1M181 52h1M2 53h1M4 53h1M179 53h1M181 53h1M2 54h1M4 54h1M75 54h8M179 54h1M181 54h1M2 55h1M4 55h1M8 55h7M179 55h1M181 55h1M2 56h1M4 56h1M179 56h1M181 56h1M2 57h1M4 57h1M179 57h1M181 57h1M2 58h1M4 58h1M179 58h1M181 58h1M2 59h1M4 59h1M179 59h1M181 59h1M2 60h1M4 60h1M179 60h1M181 60h1M2 61h1M4 61h1M75 61h8M179 61h1M181 61h1M2 62h1M4 62h1M8 62h7M179 62h1M181 62h1M2 63h1M4 63h1M179 63h1M181 63h1M2 64h1M4 64h1M179 64h1M181 64h1M2 65h1M4 65h1M179 65h1M181 65h1M2 66h1M4 66h1M179 66h1M181 66h1M2 67h1M4 67h1M179 67h1M181 67h1M2 68h1M4 68h1M75 68h8M179 68h1M181 68h1M2 69h1M4 69h1M8 69h7M179 69h1M181 69h1M2 70h1M4 70h1M179 70h1M181 70h1M2 71h1M4 71h1M179 71h1M181 71h1M2 72h1M4 72h1M179 72h1M181 72h1M2 73h1M4 73h1M179 73h1M181 73h1M2 74h1M4 74h1M179 74h1M181 74h1M2 75h1M4 75h1M75 75h8M179 75h1M181 75h1M2 76h1M4 76h1M8 76h7M179 76h1M181 76h1M2 77h1M4 77h1M179 77h1M181 77h1M2 78h1M4 78h1M179 78h1M181 78h1M2 79h1M4 79h1M179 79h1M181 79h1M2 80h1M4 80h1M179 80h1M181 80h1M2 81h1M4 81h1M179 81h1M181 81h1M2 82h1M4 82h1M179 82h1M181 82h1M2 83h1M4 83h1M8 83h7M75 83h8M179 83h1M181 83h1M2 84h1M4 84h1M179 84h1M181 84h1M2 85h1M4 85h1M179 85h1M181 85h1M2 86h1M4 86h1M179 86h1M181 86h1M2 87h1M4 87h1M179 87h1M181 87h1M2 88h1M4 88h1M179 88h1M181 88h1M2 89h1M4 89h1M179 89h1M181 89h1M2 90h1M4 90h1M8 90h7M75 90h8M179 90h1M181 90h1M2 91h1M4 91h1M179 91h1M181 91h1M2 92h1M4 92h1M179 92h1M181 92h1M2 93h1M4 93h1M179 93h1M181 93h1M2 94h1M4 94h1M179 94h1M181 94h1M2 95h1M4 95h1M179 95h1M181 95h1M2 96h1M4 96h1M179 96h1M181 96h1M2 97h1M4 97h1M8 97h75M179 97h1M181 97h1M2 98h1M4 98h1M179 98h1M181 98h1M2 99h1M4 99h1M179 99h1M181 99h1M2 100h1M4 100h1M179 100h1M181 100h1M2 101h1M4 101h1M179 101h1M181 101h1M2 102h1M4 102h1M179 102h1M181 102h1M2 103h1M4 103h1M179 103h1M181 103h1M2 104h1M4 104h1M8 104h75M179 104h1M181 104h1M2 105h1M4 105h1M179 105h1M181 105h1M2 106h1M4 106h1M179 106h1M181 106h1M2 107h1M4 107h1M179 107h1M181 107h1M2 108h1M4 108h1M179 108h1M181 108h1M4 109h2M178 109h2M5 110h2M177 110h2" />
<path stroke="#f9f9f9" d="M8 1h80M96 1h80M6 2h84M94 2h84M5 3h85M94 3h85M5 4h85M94 4h85M5 5h85M94 5h85M5 6h9M76 6h10M98 6h11M170 6h9M5 7h9M76 7h10M98 7h11M170 7h9M5 8h9M76 8h10M98 8h11M170 8h9M5 9h9M76 9h14M94 9h15M170 9h9M5 10h9M76 10h14M94 10h15M170 10h9M5 11h9M76 11h14M94 11h15M170 11h9M5 12h9M76 12h14M94 12h15M170 12h9M5 13h9M76 13h14M94 13h15M170 13h9M5 14h9M76 14h14M94 14h15M170 14h9M5 15h9M76 15h14M94 15h15M170 15h9M5 16h85M94 16h85M5 17h85M94 17h85M5 18h81M98 18h81M5 19h3M83 19h3M98 19h3M175 19h4M5 20h81M98 20h81M5 21h85M94 21h85M5 22h13M72 22h18M94 22h85M5 23h12M73 23h17M94 23h85M5 24h11M74 24h16M94 24h85M5 25h10M75 25h15M94 25h85M5 26h10M83 26h7M94 26h85M5 27h3M75 27h15M94 27h85M5 28h10M75 28h15M94 28h16M170 28h9M5 29h10M75 29h15M94 29h14M171 29h8M5 30h10M75 30h11M98 30h9M172 30h7M5 31h10M75 31h11M98 31h9M172 31h7M5 32h10M75 32h11M98 32h9M172 32h7M5 33h10M83 33h7M94 33h13M172 33h7M5 34h3M75 34h15M94 34h13M172 34h7M5 35h10M75 35h15M94 35h13M172 35h7M5 36h10M75 36h15M94 36h13M172 36h7M5 37h10M75 37h15M94 37h13M172 37h7M5 38h10M75 38h15M94 38h13M172 38h7M5 39h10M75 39h15M94 39h13M172 39h7M5 40h10M83 40h7M94 40h13M172 40h7M5 41h3M75 41h15M94 41h13M172 41h7M5 42h10M75 42h11M98 42h10M171 42h8M5 43h10M75 43h11M98 43h12M170 43h9M5 44h10M75 44h11M98 44h81M5 45h10M75 45h15M94 45h85M5 46h10M75 46h15M94 46h85M5 47h10M83 47h7M94 47h85M5 48h3M75 48h15M94 48h85M5 49h10M75 49h15M94 49h85M5 50h10M75 50h15M94 50h16M169 50h10M5 51h10M75 51h15M94 51h14M171 51h8M5 52h10M75 52h15M94 52h13M172 52h7M5 53h10M75 53h15M94 53h13M172 53h7M5 54h10M83 54h3M98 54h9M172 54h7M5 55h3M75 55h11M98 55h9M172 55h7M5 56h10M75 56h11M98 56h9M172 56h7M5 57h10M75 57h15M94 57h13M172 57h7M5 58h10M75 58h15M94 58h13M172 58h7M5 59h10M75 59h15M94 59h13M172 59h7M5 60h10M75 60h15M94 60h13M172 60h7M5 61h10M83 61h7M94 61h13M172 61h7M5 62h3M75 62h15M94 62h13M172 62h7M5 63h10M75 63h15M94 63h13M172 63h7M5 64h10M75 64h15M94 64h14M171 64h8M5 65h10M75 65h15M94 65h16M169 65h10M5 66h10M75 66h11M98 66h81M5 67h10M75 67h11M98 67h81M5 68h10M83 68h3M98 68h81M5 69h3M75 69h15M94 69h85M5 70h10M75 70h15M94 70h85M5 71h10M75 71h15M94 71h85M5 72h10M75 72h15M94 72h85M5 73h10M75 73h15M94 73h16M169 73h10M5 74h10M75 74h15M94 74h14M171 74h8M5 75h10M83 75h7M94 75h13M172 75h7M5 76h3M75 76h15M94 76h13M172 76h7M5 77h10M75 77h15M94 77h13M172 77h7M5 78h10M75 78h11M98 78h9M172 78h7M5 79h10M75 79h11M98 79h9M172 79h7M5 80h10M75 80h11M98 80h9M172 80h7M5 81h10M75 81h15M94 81h13M172 81h7M5 82h10M75 82h15M94 82h13M172 82h7M5 83h3M83 83h7M94 83h13M172 83h7M5 84h10M75 84h15M94 84h13M172 84h7M5 85h10M75 85h15M94 85h13M172 85h7M5 86h10M75 86h15M94 86h13M172 86h7M5 87h10M75 87h15M94 87h14M171 87h8M5 88h10M75 88h15M94 88h16M169 88h10M5 89h10M75 89h15M94 89h85M5 90h3M83 90h3M98 90h81M5 91h11M74 91h12M98 91h81M5 92h12M73 92h13M98 92h81M5 93h13M72 93h18M94 93h85M5 94h85M94 94h85M5 95h85M94 95h85M5 96h85M94 96h85M5 97h3M83 97h7M94 97h85M5 98h85M94 98h85M5 99h85M94 99h85M5 100h85M94 100h85M5 101h85M94 101h85M5 102h81M98 102h81M5 103h81M98 103h81M5 104h3M83 104h3M98 104h81M5 105h85M94 105h85M5 106h85M94 106h85M5 107h85M94 107h85M5 108h85M94 108h85M6 109h84M94 109h84M7 110h81M96 110h81" />
<path stroke="#bfbfbf" d="M3 3h1M180 3h1M1 4h1M3 4h1M180 4h1M182 4h1M1 5h1M3 5h1M180 5h1M182 5h1M1 6h1M3 6h1M180 6h1M182 6h1M1 7h1M3 7h1M180 7h1M182 7h1M1 8h1M3 8h1M180 8h1M182 8h1M1 9h1M3 9h1M180 9h1M182 9h1M1 10h1M3 10h1M180 10h1M182 10h1M1 11h1M3 11h1M180 11h1M182 11h1M1 12h1M3 12h1M180 12h1M182 12h1M1 13h1M3 13h1M180 13h1M182 13h1M1 14h1M3 14h1M180 14h1M182 14h1M1 15h1M3 15h1M180 15h1M182 15h1M1 16h1M3 16h1M180 16h1M182 16h1M1 17h1M3 17h1M180 17h1M182 17h1M1 18h1M3 18h1M180 18h1M182 18h1M1 19h1M3 19h1M180 19h1M182 19h1M1 20h1M3 20h1M180 20h1M182 20h1M1 21h1M3 21h1M180 21h1M182 21h1M1 22h1M3 22h1M180 22h1M182 22h1M1 23h1M3 23h1M180 23h1M182 23h1M1 24h1M3 24h1M180 24h1M182 24h1M1 25h1M3 25h1M180 25h1M182 25h1M1 26h1M3 26h1M180 26h1M182 26h1M1 27h1M3 27h1M180 27h1M182 27h1M1 28h1M3 28h1M180 28h1M182 28h1M1 29h1M3 29h1M180 29h1M182 29h1M1 30h1M3 30h1M180 30h1M182 30h1M1 31h1M3 31h1M180 31h1M182 31h1M1 32h1M3 32h1M180 32h1M182 32h1M1 33h1M3 33h1M180 33h1M182 33h1M1 34h1M3 34h1M180 34h1M182 34h1M1 35h1M3 35h1M180 35h1M182 35h1M1 36h1M3 36h1M180 36h1M182 36h1M1 37h1M3 37h1M180 37h1M182 37h1M1 38h1M3 38h1M180 38h1M182 38h1M1 39h1M3 39h1M180 39h1M182 39h1M1 40h1M3 40h1M180 40h1M182 40h1M1 41h1M3 41h1M180 41h1M182 41h1M1 42h1M3 42h1M180 42h1M182 42h1M1 43h1M3 43h1M180 43h1M182 43h1M1 44h1M3 44h1M180 44h1M182 44h1M1 45h1M3 45h1M180 45h1M182 45h1M1 46h1M3 46h1M180 46h1M182 46h1M1 47h1M3 47h1M180 47h1M182 47h1M1 48h1M3 48h1M180 48h1M182 48h1M1 49h1M3 49h1M180 49h1M182 49h1M1 50h1M3 50h1M180 50h1M182 50h1M1 51h1M3 51h1M180 51h1M182 51h1M1 52h1M3 52h1M180 52h1M182 52h1M1 53h1M3 53h1M180 53h1M182 53h1M1 54h1M3 54h1M180 54h1M182 54h1M1 55h1M3 55h1M180 55h1M182 55h1M1 56h1M3 56h1M180 56h1M182 56h1M1 57h1M3 57h1M180 57h1M182 57h1M1 58h1M3 58h1M180 58h1M182 58h1M1 59h1M3 59h1M180 59h1M182 59h1M1 60h1M3 60h1M180 60h1M182 60h1M1 61h1M3 61h1M180 61h1M182 61h1M1 62h1M3 62h1M180 62h1M182 62h1M1 63h1M3 63h1M180 63h1M182 63h1M1 64h1M3 64h1M180 64h1M182 64h1M1 65h1M3 65h1M180 65h1M182 65h1M1 66h1M3 66h1M180 66h1M182 66h1M1 67h1M3 67h1M180 67h1M182 67h1M1 68h1M3 68h1M180 68h1M182 68h1M1 69h1M3 69h1M180 69h1M182 69h1M1 70h1M3 70h1M180 70h1M182 70h1M1 71h1M3 71h1M180 71h1M182 71h1M1 72h1M3 72h1M180 72h1M182 72h1M1 73h1M3 73h1M180 73h1M182 73h1M1 74h1M3 74h1M180 74h1M182 74h1M1 75h1M3 75h1M180 75h1M182 75h1M1 76h1M3 76h1M180 76h1M182 76h1M1 77h1M3 77h1M180 77h1M182 77h1M1 78h1M3 78h1M180 78h1M182 78h1M1 79h1M3 79h1M180 79h1M182 79h1M1 80h1M3 80h1M180 80h1M182 80h1M1 81h1M3 81h1M180 81h1M182 81h1M1 82h1M3 82h1M180 82h1M182 82h1M1 83h1M3 83h1M180 83h1M182 83h1M1 84h1M3 84h1M180 84h1M182 84h1M1 85h1M3 85h1M180 85h1M182 85h1M1 86h1M3 86h1M180 86h1M182 86h1M1 87h1M3 87h1M180 87h1M182 87h1M1 88h1M3 88h1M180 88h1M182 88h1M1 89h1M3 89h1M180 89h1M182 89h1M1 90h1M3 90h1M180 90h1M182 90h1M1 91h1M3 91h1M180 91h1M182 91h1M1 92h1M3 92h1M180 92h1M182 92h1M1 93h1M3 93h1M180 93h1M182 93h1M1 94h1M3 94h1M180 94h1M182 94h1M1 95h1M3 95h1M180 95h1M182 95h1M1 96h1M3 96h1M180 96h1M182 96h1M1 97h1M3 97h1M180 97h1M182 97h1M1 98h1M3 98h1M180 98h1M182 98h1M1 99h1M3 99h1M180 99h1M182 99h1M1 100h1M3 100h1M180 100h1M182 100h1M1 101h1M3 101h1M180 101h1M182 101h1M1 102h1M3 102h1M180 102h1M182 102h1M1 103h1M3 103h1M180 103h1M182 103h1M1 104h1M3 104h1M180 104h1M182 104h1M1 105h1M3 105h1M180 105h1M182 105h1M1 106h1M3 106h1M180 106h1M182 106h1M1 107h1M3 107h1M180 107h1M182 107h1M3 108h1M180 108h1" />
<path stroke="#6a5b36" d="M14 6h62M109 6h61M14 7h1M75 7h1M109 7h1M169 7h1M14 8h1M75 8h1M109 8h1M169 8h1M14 9h1M75 9h1M109 9h1M169 9h1M14 10h1M75 10h1M109 10h1M169 10h1M14 11h1M75 11h1M109 11h1M169 11h1M14 12h1M75 12h1M109 12h1M169 12h1M14 13h1M75 13h1M109 13h1M169 13h1M14 14h1M75 14h1M109 14h1M169 14h1M14 15h62M109 15h61M18 22h54M17 23h1M72 23h1M16 24h1M73 24h1M15 25h1M74 25h1M15 26h1M74 26h1M15 27h1M74 27h1M15 28h1M74 28h1M110 28h60M15 29h1M74 29h1M108 29h4M167 29h4M15 30h1M74 30h1M107 30h4M168 30h4M15 31h1M74 31h1M107 31h3M170 31h2M15 32h1M74 32h1M107 32h1M171 32h1M15 33h1M74 33h1M107 33h1M171 33h1M15 34h1M74 34h1M107 34h1M171 34h1M15 35h1M74 35h1M107 35h1M171 35h1M15 36h1M74 36h1M107 36h1M171 36h1M15 37h1M74 37h1M107 37h1M171 37h1M15 38h1M74 38h1M107 38h1M171 38h1M15 39h1M74 39h1M107 39h1M171 39h1M15 40h1M74 40h1M107 40h3M170 40h2M15 41h1M74 41h1M107 41h4M168 41h4M15 42h1M74 42h1M108 42h4M167 42h4M15 43h1M74 43h1M110 43h60M15 44h1M74 44h1M15 45h1M74 45h1M15 46h1M74 46h1M15 47h1M74 47h1M15 48h1M74 48h1M15 49h1M74 49h1M15 50h1M74 50h1M110 50h59M15 51h1M74 51h1M108 51h4M167 51h4M15 52h1M74 52h1M107 52h4M168 52h4M15 53h1M74 53h1M107 53h3M169 53h3M15 54h1M74 54h1M107 54h1M171 54h1M15 55h1M74 55h1M107 55h1M171 55h1M15 56h1M74 56h1M107 56h1M171 56h1M15 57h1M74 57h1M107 57h1M171 57h1M15 58h1M74 58h1M107 58h1M171 58h1M15 59h1M74 59h1M107 59h1M171 59h1M15 60h1M74 60h1M107 60h1M171 60h1M15 61h1M74 61h1M107 61h1M171 61h1M15 62h1M74 62h1M107 62h3M169 62h3M15 63h1M74 63h1M107 63h4M168 63h4M15 64h1M74 64h1M108 64h4M167 64h4M15 65h1M74 65h1M110 65h59M15 66h1M74 66h1M15 67h1M74 67h1M15 68h1M74 68h1M15 69h1M74 69h1M15 70h1M74 70h1M15 71h1M74 71h1M15 72h1M74 72h1M15 73h1M74 73h1M110 73h59M15 74h1M74 74h1M108 74h4M167 74h4M15 75h1M74 75h1M107 75h4M168 75h4M15 76h1M74 76h1M107 76h3M169 76h3M15 77h1M74 77h1M107 77h1M171 77h1M15 78h1M74 78h1M107 78h1M171 78h1M15 79h1M74 79h1M107 79h1M171 79h1M15 80h1M74 80h1M107 80h1M171 80h1M15 81h1M74 81h1M107 81h1M171 81h1M15 82h1M74 82h1M107 82h1M171 82h1M15 83h1M74 83h1M107 83h1M171 83h1M15 84h1M74 84h1M107 84h1M171 84h1M15 85h1M74 85h1M107 85h3M169 85h3M15 86h1M74 86h1M107 86h4M168 86h4M15 87h1M74 87h1M108 87h4M167 87h4M15 88h1M74 88h1M110 88h59M15 89h1M74 89h1M15 90h1M74 90h1M16 91h1M73 91h1M17 92h1M72 92h1M18 93h54" />
<path stroke="#858585" d="M87 6h10M87 18h10M87 30h10M87 42h10M87 54h10M87 66h10M87 78h10M87 90h10M87 102h10" />
<path stroke="#998e71" d="M15 7h60M110 7h59M15 8h3M40 8h5M57 8h1M64 8h1M73 8h2M110 8h7M123 8h2M131 8h1M142 8h2M154 8h2M162 8h7M15 9h2M41 9h4M73 9h2M110 9h6M163 9h6M15 10h2M24 10h1M43 10h2M56 10h1M65 10h2M71 10h4M110 10h6M139 10h1M163 10h6M15 11h3M56 11h1M65 11h2M71 11h4M110 11h6M139 11h1M163 11h6M15 12h2M65 12h1M72 12h3M110 12h6M163 12h6M15 13h2M24 13h2M32 13h1M40 13h2M48 13h1M57 13h1M64 13h2M72 13h3M110 13h6M124 13h1M131 13h1M142 13h2M154 13h1M163 13h6M15 14h60M110 14h59M112 29h55M111 30h57M110 31h60M108 32h16M131 32h1M140 32h1M145 32h1M155 32h16M108 33h15M155 33h16M108 34h15M155 34h16M108 35h15M155 35h16M108 36h15M155 36h16M108 37h15M155 37h16M108 38h15M155 38h16M108 39h16M131 39h1M140 39h1M145 39h1M155 39h16M110 40h60M111 41h57M112 42h55M112 51h55M111 52h57M110 53h59M108 54h16M132 54h1M136 54h1M141 54h1M145 54h2M149 54h3M155 54h16M108 55h15M156 55h15M108 56h15M156 56h15M108 57h15M156 57h15M108 58h15M156 58h15M108 59h16M156 59h15M108 60h15M156 60h15M108 61h15M156 61h15M110 62h14M132 62h1M141 62h1M150 62h2M156 62h13M111 63h57M112 64h55M112 74h55M111 75h57M110 76h59M108 77h17M132 77h1M136 77h2M142 77h1M146 77h1M155 77h16M108 78h16M156 78h15M108 79h16M156 79h15M108 80h16M154 80h17M108 81h16M154 81h17M108 82h17M154 82h17M108 83h16M155 83h16M108 84h16M132 84h2M142 84h1M147 84h1M155 84h16M110 85h59M111 86h57M112 87h55" />
<path stroke="#696a6a" d="M87 7h10M87 8h10M87 19h10M87 20h10M87 31h10M87 32h10M87 43h10M87 44h10M87 55h10M87 56h10M87 67h10M87 68h10M87 79h10M87 80h10M87 91h10M87 92h10M87 103h10M87 104h10" />
<path stroke="#ffffff" d="M18 8h6M25 8h3M29 8h3M33 8h6M45 8h3M49 8h7M58 8h5M65 8h7M117 8h5M125 8h5M132 8h7M140 8h1M144 8h2M147 8h6M156 8h5M17 9h3M25 9h3M29 9h3M33 9h3M37 9h3M45 9h3M49 9h3M57 9h3M61 9h3M67 9h3M116 9h3M120 9h3M124 9h3M132 9h3M140 9h3M144 9h2M147 9h3M151 9h3M155 9h3M159 9h3M18 10h5M25 10h3M29 10h3M33 10h6M41 10h2M45 10h3M49 10h6M57 10h3M67 10h3M116 10h3M120 10h3M124 10h3M128 10h3M132 10h6M140 10h6M147 10h3M151 10h3M155 10h3M159 10h3M21 11h3M25 11h3M29 11h3M33 11h3M37 11h3M41 11h3M45 11h3M49 11h3M57 11h3M61 11h3M67 11h3M116 11h7M124 11h3M129 11h2M132 11h3M140 11h1M142 11h4M147 11h3M151 11h3M155 11h7M17 12h6M26 12h5M33 12h6M42 12h5M49 12h7M58 12h5M66 12h5M116 12h3M120 12h3M125 12h5M132 12h7M140 12h1M144 12h2M147 12h6M155 12h3M159 12h3" />
<path stroke="#687b87" d="M18 23h54M17 24h56M16 25h5M69 25h5M16 26h4M70 26h4M16 27h3M71 27h3M16 28h2M72 28h2M16 29h2M72 29h2M16 30h2M72 30h2M16 31h2M72 31h2M16 32h2M72 32h2M16 33h2M72 33h2M16 34h2M72 34h2M16 35h2M72 35h2M16 36h2M72 36h2M16 37h2M72 37h2M16 38h2M72 38h2M16 39h2M72 39h2M16 40h2M72 40h2M16 41h2M72 41h2M16 42h2M72 42h2M16 43h2M72 43h2M16 44h2M72 44h2M16 45h2M72 45h2M16 46h2M72 46h2M16 47h2M72 47h2M16 48h2M72 48h2M16 49h2M72 49h2M16 50h2M72 50h2M16 51h2M72 51h2M16 52h2M72 52h2M16 53h2M72 53h2M16 54h2M72 54h2M16 55h2M72 55h2M16 56h2M72 56h2M16 57h2M72 57h2M16 58h2M72 58h2M16 59h2M72 59h2M16 60h2M72 60h2M16 61h2M72 61h2M16 62h2M72 62h2M16 63h2M72 63h2M16 64h2M72 64h2M16 65h2M72 65h2M16 66h2M72 66h2M16 67h2M72 67h2M16 68h2M72 68h2M16 69h2M72 69h2M16 70h2M72 70h2M16 71h2M72 71h2M16 72h2M72 72h2M16 73h2M72 73h2M16 74h2M72 74h2M16 75h2M72 75h2M16 76h2M72 76h2M16 77h2M72 77h2M16 78h2M72 78h2M16 79h2M72 79h2M16 80h2M72 80h2M16 81h2M72 81h2M16 82h2M72 82h2M16 83h2M72 83h2M16 84h2M72 84h2M16 85h2M72 85h2M16 86h2M72 86h2M16 87h2M72 87h2M16 88h3M71 88h3M16 89h4M70 89h4M16 90h5M69 90h5M17 91h56M18 92h54" />
<path stroke="#93a3ad" d="M21 25h48M20 26h50M19 27h5M66 27h5M18 28h5M67 28h5M18 29h4M68 29h4M18 30h3M69 30h3M18 31h2M70 31h2M18 32h2M70 32h2M18 33h2M70 33h2M18 34h2M70 34h2M18 35h2M70 35h2M18 36h2M70 36h2M18 37h2M70 37h2M18 38h2M70 38h2M18 39h2M70 39h2M18 40h2M70 40h2M18 41h2M70 41h2M18 42h2M70 42h2M18 43h2M70 43h2M18 44h2M70 44h2M18 45h2M70 45h2M18 46h2M70 46h2M18 47h2M70 47h2M18 48h2M70 48h2M18 49h2M70 49h2M18 50h2M70 50h2M18 51h2M70 51h2M18 52h2M70 52h2M18 53h2M70 53h2M18 54h2M70 54h2M18 55h2M70 55h2M18 56h2M70 56h2M18 57h2M70 57h2M18 58h2M70 58h2M18 59h2M70 59h2M18 60h2M70 60h2M18 61h2M70 61h2M18 62h2M70 62h2M18 63h2M70 63h2M18 64h2M70 64h2M18 65h2M70 65h2M18 66h2M70 66h2M18 67h2M70 67h2M18 68h2M70 68h2M18 69h2M70 69h2M18 70h2M70 70h2M18 71h2M70 71h2M18 72h2M70 72h2M18 73h2M70 73h2M18 74h2M70 74h2M18 75h2M70 75h2M18 76h2M70 76h2M18 77h2M70 77h2M18 78h2M70 78h2M18 79h2M70 79h2M18 80h2M70 80h2M18 81h2M70 81h2M18 82h2M70 82h2M18 83h2M70 83h2M18 84h2M70 84h2M18 85h3M69 85h3M18 86h4M68 86h4M18 87h5M67 87h5M19 88h5M66 88h5M20 89h50M21 90h48" />
<path stroke="#9eadb6" d="M24 27h42M23 28h44M22 29h46M21 30h48M20 31h50M20 32h50M20 33h50M20 34h50M20 35h50M20 36h50M20 37h50M20 38h50M20 39h50M20 40h50M20 41h50M20 42h50M20 43h50M20 44h50M20 45h50M20 46h50M20 47h50M20 48h50M20 49h50M20 50h50M20 51h50M20 52h50M20 53h50M20 54h50M20 55h50M20 56h50M20 57h50M20 58h50M20 59h50M20 60h50M20 61h50M20 62h50M20 63h50M20 64h50M20 65h50M20 66h50M20 67h50M20 68h50M20 69h50M20 70h50M20 71h50M20 72h50M20 73h50M20 74h50M20 75h50M20 76h50M20 77h50M20 78h50M20 79h50M20 80h50M20 81h50M20 82h50M20 83h50M20 84h50M21 85h48M22 86h46M23 87h44M24 88h42" />
<path stroke="#deae43" d="M124 33h3M128 33h3M133 33h7M142 33h3M147 33h7M124 34h3M128 34h3M133 34h3M137 34h3M142 34h3M147 34h3M151 34h3M124 35h7M133 35h3M137 35h3M142 35h3M147 35h3M151 35h3M124 36h3M128 36h3M133 36h7M142 36h3M147 36h6M124 37h3M128 37h3M133 37h3M137 37h3M142 37h3M147 37h3M151 37h3M124 38h3M128 38h3M133 38h3M137 38h3M142 38h3M147 38h3M151 38h3" />
<path stroke="#fdf0cd" d="M124 55h8M133 55h3M137 55h4M142 55h3M147 55h2M152 55h3M124 56h4M133 56h3M137 56h3M142 56h3M147 56h3M152 56h3M124 57h4M133 57h6M142 57h3M147 57h4M152 57h3M124 58h8M133 58h4M142 58h3M147 58h8M129 59h3M133 59h6M142 59h3M147 59h2M150 59h5M124 60h8M133 60h3M137 60h3M142 60h3M147 60h2M152 60h3M124 61h8M133 61h3M137 61h4M142 61h3M147 61h2M152 61h3" />
<path stroke="#8b8b8b" d="M125 78h7M133 78h3M138 78h4M143 78h3M147 78h8M125 79h2M133 79h3M138 79h4M143 79h3M149 79h4M125 80h6M133 80h3M138 80h4M143 80h3M149 80h4M125 81h6M133 81h3M138 81h4M143 81h3M149 81h4M128 82h4M133 82h3M138 82h4M143 82h3M149 82h4M125 83h6M134 83h7M143 83h3M148 83h6" />
</svg>