<svg xmlns="http://www.w3.org/2000/svg" viewBox="0 -0.5 114 121" shape-rendering="crispEdges">
<metadata>Made with Pixels to Svg https://codepen.io/shshaw/pen/XbxvNj</metadata>
<path stroke="#b0a395" d="M0 0h103M0 1h103M0 2h4M7 2h6M15 2h4M23 2h3M28 2h4M34 2h2M38 2h4M44 2h1M48 2h4M54 2h4M62 2h3M67 2h7M89 2h2M101 2h2M0 3h4M8 3h4M16 3h1M23 3h3M28 3h4M34 3h2M38 3h4M44 3h1M48 3h3M55 3h1M62 3h3M67 3h7M89 3h2M101 3h2M0 4h4M6 4h1M9 4h3M14 4h1M16 4h1M22 4h4M28 4h4M34 4h2M38 4h4M44 4h1M48 4h3M53 4h1M55 4h1M61 4h4M67 4h24M101 4h2M0 5h4M6 5h1M9 5h3M14 5h1M16 5h4M22 5h3M27 5h5M34 5h1M37 5h5M48 5h3M53 5h1M55 5h4M61 5h3M66 5h8M88 5h3M101 5h2M0 6h3M5 6h2M9 6h2M13 6h2M16 6h4M22 6h3M27 6h5M34 6h1M37 6h4M48 6h2M52 6h2M55 6h4M61 6h3M66 6h25M101 6h2M0 7h3M5 7h2M9 7h2M13 7h1M16 7h3M21 7h4M27 7h5M36 7h5M43 7h1M45 7h1M48 7h2M52 7h1M55 7h3M60 7h4M66 7h8M84 7h7M101 7h2M0 8h3M5 8h1M9 8h2M16 8h3M21 8h4M27 8h6M35 8h6M43 8h3M48 8h2M55 8h3M60 8h4M66 8h25M101 8h2M0 9h2M4 9h2M8 9h2M16 9h3M21 9h3M26 9h6M35 9h5M42 9h4M48 9h1M55 9h3M60 9h3M65 9h9M84 9h7M101 9h2M0 10h2M7 10h3M12 10h2M16 10h1M23 10h1M31 10h1M34 10h6M42 10h4M48 10h1M51 10h2M55 10h1M62 10h1M70 10h21M101 10h2M0 11h2M6 11h4M12 11h2M16 11h1M23 11h1M31 11h1M34 11h6M42 11h4M48 11h1M51 11h2M55 11h1M62 11h1M70 11h4M86 11h5M101 11h2M0 12h103M0 13h103M0 14h2M101 14h2M0 15h2M3 15h97M101 15h2M0 16h2M3 16h97M101 16h2M0 17h2M3 17h97M101 17h2M0 18h2M3 18h97M101 18h2M0 19h2M3 19h97M101 19h2M0 20h2M3 20h97M101 20h2M0 21h2M3 21h97M101 21h2M0 22h2M3 22h97M101 22h2M0 23h2M3 23h97M101 23h2M0 24h2M3 24h97M101 24h2M0 25h2M3 25h97M101 25h2M0 26h2M3 26h97M101 26h2M0 27h2M3 27h97M101 27h2M0 28h2M3 28h97M101 28h2M0 29h2M3 29h97M101 29h2M0 30h2M3 30h97M101 30h2M0 31h2M3 31h97M101 31h2M0 32h2M3 32h97M101 32h2M0 33h2M3 33h97M101 33h2M0 34h2M3 34h97M101 34h2M0 35h2M3 35h97M101 35h2M0 36h2M3 36h97M101 36h2M0 37h2M3 37h97M101 37h2M0 38h2M3 38h97M101 38h2M0 39h2M3 39h97M101 39h2M0 40h2M3 40h97M101 40h2M0 41h2M3 41h97M101 41h2M0 42h2M3 42h97M101 42h2M0 43h2M3 43h97M101 43h2M0 44h2M3 44h97M101 44h2M0 45h2M3 45h97M101 45h2M0 46h2M3 46h97M101 46h2M0 47h2M3 47h97M101 47h2M0 48h2M3 48h97M101 48h2M0 49h2M101 49h2M0 50h103M0 51h103M0 52h2M39 52h2M70 52h1M101 52h2M0 53h2M39 53h2M70 53h33M0 54h2M39 54h32M101 54h2M0 55h2M39 55h2M70 55h33M0 56h2M39 56h2M70 56h1M101 56h2M0 57h2M39 57h64M0 58h2M39 58h2M70 58h1M101 58h2M0 59h2M39 59h2M70 59h33M0 60h2M39 60h32M101 60h2M0 61h2M39 61h2M70 61h33M0 62h2M39 62h2M70 62h1M101 62h2M0 63h2M39 63h64M0 64h2M39 64h2M70 64h1M101 64h2M0 65h2M39 65h2M70 65h33M0 66h2M39 66h32M101 66h2M0 67h2M39 67h2M58 67h45M0 68h2M39 68h2M58 68h1M70 68h1M101 68h2M0 69h2M39 69h64M0 70h2M39 70h2M70 70h1M101 70h2M0 71h2M39 71h64M0 72h2M39 72h2M70 72h1M101 72h2M0 73h2M39 73h64M0 74h2M39 74h2M70 74h1M101 74h2M0 75h2M39 75h64M0 76h2M39 76h2M70 76h1M101 76h2M0 77h2M39 77h64M0 78h2M39 78h2M70 78h1M101 78h2M0 79h2M39 79h64M0 80h2M39 80h2M70 80h1M101 80h2M0 81h2M39 81h64M0 82h2M39 82h2M70 82h1M101 82h2M0 83h2M39 83h64M0 84h2M39 84h2M70 84h1M101 84h2M0 85h2M39 85h64M0 86h2M39 86h2M70 86h1M101 86h2M0 87h2M39 87h64M0 88h2M39 88h2M70 88h1M101 88h2M0 89h2M39 89h64M0 90h2M39 90h2M70 90h1M101 90h2M0 91h103M0 92h103M0 93h2M32 93h1M57 93h2M101 93h2M0 94h2M32 94h27M101 94h2M0 95h33M57 95h2M101 95h2M0 96h2M32 96h27M101 96h2" />
<path stroke="#a3988b" d="M103 0h2M103 1h2M103 2h2M103 3h2M103 4h2M103 5h2M103 6h2M103 7h2M103 8h2M103 9h2M103 10h2M103 11h2M103 12h2M103 13h2M103 14h2M103 15h2M103 16h2M103 17h2M103 18h2M103 19h2M103 20h2M103 21h2M103 22h2M103 23h2M103 24h2M103 25h2M103 26h2M103 27h2M103 28h2M103 29h2M103 30h2M103 31h2M103 32h2M103 33h2M103 34h2M103 35h2M103 36h2M103 37h2M103 38h2M103 39h2M103 40h2M103 41h2M103 42h2M103 43h2M103 44h2M103 45h2M103 46h2M103 47h2M103 48h2M103 49h2M103 50h2M103 51h2M103 52h2M103 53h2M103 54h2M103 55h2M103 56h2M103 57h2M103 58h2M103 59h2M103 60h2M103 61h2M103 62h2M103 63h2M103 64h2M103 65h2M103 66h2M103 67h2M103 68h2M103 69h2M103 70h2M103 71h2M103 72h2M103 73h2M103 74h2M103 75h2M103 76h2M103 77h2M103 78h2M103 79h2M103 80h2M103 81h2M103 82h2M103 83h2M103 84h2M103 85h2M103 86h2M103 87h2M103 88h2M103 89h2M103 90h2M103 91h2M103 92h2M103 93h2M103 94h2M103 95h2M103 96h2M103 97h2M103 98h2M103 99h2M103 100h2M0 101h33M57 101h2M101 101h4M0 102h2M32 102h27M101 102h4M0 103h2M32 103h1M57 103h2M101 103h4M0 104h59M101 104h4M0 105h2M32 105h1M57 105h2M101 105h4M0 106h2M32 106h27M101 106h4M103 107h2M103 108h2M108 108h3M103 109h2M107 109h5M103 110h2M106 110h2M110 110h3M103 111h2M106 111h1M111 111h2M103 112h2M106 112h1M110 112h1M112 112h2M103 113h2M106 113h2M109 113h2M112 113h2M104 114h2M107 114h4M112 114h2M104 115h2M108 115h2M112 115h2M105 116h2M112 116h2M105 117h3M111 117h3M106 118h7M107 119h5" />
<path stroke="#807468" d="M4 2h3M13 2h2M19 2h4M26 2h2M32 2h2M36 2h2M42 2h2M45 2h3M52 2h2M58 2h4M65 2h2M74 2h15M91 2h10M4 3h4M12 3h4M17 3h6M26 3h2M32 3h2M36 3h2M42 3h2M45 3h3M51 3h4M56 3h6M65 3h2M74 3h15M91 3h10M4 4h2M7 4h2M12 4h2M15 4h1M17 4h5M26 4h2M32 4h2M36 4h2M42 4h2M45 4h3M51 4h2M54 4h1M56 4h5M65 4h2M91 4h10M4 5h2M7 5h2M12 5h2M15 5h1M20 5h2M25 5h2M32 5h2M35 5h2M42 5h6M51 5h2M54 5h1M59 5h2M64 5h2M74 5h14M91 5h10M3 6h2M7 6h2M11 6h2M15 6h1M20 6h2M25 6h2M32 6h2M35 6h2M41 6h7M50 6h2M54 6h1M59 6h2M64 6h2M91 6h10M3 7h2M7 7h2M11 7h2M14 7h2M19 7h2M25 7h2M32 7h4M41 7h2M44 7h1M46 7h2M50 7h2M53 7h2M58 7h2M64 7h2M74 7h10M91 7h10M3 8h2M6 8h3M11 8h5M19 8h2M25 8h2M33 8h2M41 8h2M46 8h2M50 8h5M58 8h2M64 8h2M91 8h10M2 9h2M6 9h2M10 9h6M19 9h2M24 9h2M32 9h3M40 9h2M46 9h2M49 9h6M58 9h2M63 9h2M74 9h10M91 9h10M2 10h5M10 10h2M14 10h2M17 10h6M24 10h7M32 10h2M40 10h2M46 10h2M49 10h2M53 10h2M56 10h6M63 10h7M91 10h10M2 11h4M10 11h2M14 11h2M17 11h6M24 11h7M32 11h2M40 11h2M46 11h2M49 11h2M53 11h2M56 11h6M63 11h7M74 11h12M91 11h10M2 14h99M2 15h1M100 15h1M2 16h1M100 16h1M2 17h1M100 17h1M2 18h1M100 18h1M2 19h1M100 19h1M2 20h1M100 20h1M2 21h1M100 21h1M2 22h1M100 22h1M2 23h1M100 23h1M2 24h1M100 24h1M2 25h1M100 25h1M2 26h1M100 26h1M2 27h1M100 27h1M2 28h1M100 28h1M2 29h1M100 29h1M2 30h1M100 30h1M2 31h1M100 31h1M2 32h1M100 32h1M2 33h1M100 33h1M2 34h1M100 34h1M2 35h1M100 35h1M2 36h1M100 36h1M2 37h1M100 37h1M2 38h1M100 38h1M2 39h1M100 39h1M2 40h1M100 40h1M2 41h1M100 41h1M2 42h1M100 42h1M2 43h1M100 43h1M2 44h1M100 44h1M2 45h1M100 45h1M2 46h1M100 46h1M2 47h1M100 47h1M2 48h1M100 48h1M2 49h99M2 52h37M41 52h29M71 52h30M2 53h24M27 53h12M41 53h29M2 54h11M14 54h13M28 54h11M71 54h30M2 55h6M9 55h5M15 55h12M28 55h4M33 55h6M41 55h29M2 56h4M8 56h7M16 56h16M33 56h6M41 56h29M71 56h30M2 57h29M32 57h7M2 58h1M4 58h18M24 58h15M41 58h29M71 58h30M2 59h1M4 59h20M26 59h13M41 59h29M2 60h1M4 60h5M10 60h6M21 60h11M33 60h6M71 60h30M2 61h8M12 61h3M22 61h8M32 61h7M41 61h29M2 62h12M22 62h17M41 62h29M71 62h30M2 63h9M22 63h17M2 64h13M22 64h13M36 64h3M41 64h29M71 64h30M2 65h12M22 65h14M37 65h2M41 65h29M2 66h12M22 66h2M31 66h5M37 66h2M71 66h30M2 67h3M6 67h8M22 67h1M32 67h7M41 67h17M2 68h2M5 68h10M33 68h6M41 68h17M59 68h11M71 68h30M2 69h2M5 69h11M21 69h1M33 69h6M2 70h9M12 70h5M20 70h1M33 70h6M41 70h29M71 70h30M2 71h9M12 71h2M32 71h7M2 72h8M11 72h2M31 72h8M41 72h29M71 72h30M2 73h10M30 73h4M35 73h4M2 74h10M26 74h1M28 74h5M34 74h5M41 74h29M71 74h30M2 75h11M24 75h3M28 75h4M33 75h6M2 76h13M24 76h2M29 76h10M41 76h29M71 76h30M2 77h4M8 77h7M24 77h15M2 78h3M6 78h9M24 78h15M41 78h29M71 78h30M2 79h14M24 79h2M27 79h12M2 80h8M11 80h5M24 80h3M28 80h8M37 80h2M41 80h29M71 80h30M2 81h8M11 81h5M24 81h4M29 81h6M36 81h3M2 82h9M12 82h4M24 82h11M36 82h3M41 82h29M71 82h30M2 83h14M24 83h15M2 84h14M24 84h15M41 84h29M71 84h30M2 85h14M24 85h15M2 86h2M7 86h9M24 86h5M30 86h9M41 86h29M71 86h30M2 87h13M20 87h1M24 87h6M32 87h7M2 88h13M20 88h1M24 88h15M41 88h29M71 88h30M2 89h13M20 89h1M24 89h15M2 90h13M24 90h15M41 90h29M71 90h30M2 93h30M33 93h24M59 93h42M2 94h30M59 94h42M33 95h24M59 95h42M2 96h30M59 96h42M2 97h30M33 97h24M59 97h42M59 98h42M2 99h30M33 99h24M59 99h42M2 100h30M59 100h42M33 101h24M59 101h42M2 102h30M59 102h42M2 103h30M33 103h24M59 103h42M59 104h42M2 105h30M33 105h24M59 105h42M2 106h30M59 106h42M108 110h2M107 111h4M107 112h3M111 112h1M105 113h1M108 113h1M111 113h1M106 114h1M111 114h1M106 115h2M110 115h2M107 116h5M108 117h3" />
<path stroke="#6b5f54" d="M26 53h1M13 54h1M27 54h1M8 55h1M14 55h1M27 55h1M32 55h1M6 56h2M15 56h1M32 56h1M31 57h1M3 58h1M22 58h2M3 59h1M24 59h2M3 60h1M9 60h1M32 60h1M10 61h2M30 61h2M35 64h1M36 65h1M36 66h1M5 67h1M4 68h1M4 69h1M11 70h1M11 71h1M10 72h1M34 73h1M33 74h1M32 75h1M6 77h2M5 78h1M26 79h1M10 80h1M27 80h1M36 80h1M10 81h1M28 81h1M35 81h1M11 82h1M35 82h1M4 86h3M29 86h1M30 87h2" />
<path stroke="#706458" d="M16 60h5M15 61h7M14 62h4M20 62h2M11 63h11" />
<path stroke="#a19487" d="M18 62h2M15 64h7M14 65h3M19 65h2M14 66h8M14 67h8M15 68h3M21 68h3M31 68h2M16 69h5M22 69h2M31 69h2M17 70h3M22 70h1M32 70h1M17 71h3M23 71h1" />
<path stroke="#96897b" d="M17 65h2M21 65h1M18 68h3" />
<path stroke="#baada0" d="M24 66h7M23 67h9M24 68h3M28 68h3M24 69h2M28 69h3M23 70h4M28 70h4M25 71h1M29 71h1M25 72h5M26 73h3M27 74h1M27 75h1M26 76h3" />
<path stroke="#ab9e90" d="M27 68h1M26 69h2M21 70h1M27 70h1M14 71h3M20 71h3M24 71h1M26 71h3M30 71h2M13 72h12M30 72h1M12 73h14M29 73h1M12 74h14M13 75h11M15 76h9M15 77h9M15 78h9M16 79h8M16 80h8M16 81h8" />
<path stroke="#a39789" d="M16 82h8M16 83h8M16 84h8M16 85h8M16 86h8M15 87h5M21 87h3M15 88h5M21 88h3M15 89h5M21 89h3M15 90h9" />
<path stroke="#ab9f91" d="M0 97h2M32 97h1M57 97h2M101 97h2M0 98h59M101 98h2M0 99h2M32 99h1M57 99h2M101 99h2M0 100h2M32 100h27M101 100h2" />
<path stroke="#998e82" d="M0 107h33M57 107h2M101 107h2M0 108h2M24 108h35M101 108h2M105 108h3M0 109h2M24 109h1M32 109h1M57 109h2M101 109h2M105 109h2M0 110h59M101 110h2M0 111h2M32 111h1M57 111h2M101 111h2" />
<path stroke="#7a6f63" d="M33 107h24M59 107h42M2 108h22M59 108h42M2 109h22M25 109h7M33 109h24M59 109h42M59 110h42M2 111h30M33 111h24M59 111h42" />
<path stroke="#8c8277" d="M105 110h1M105 111h1M0 112h59M101 112h2M105 112h1M0 113h2M32 113h1M57 113h2M102 113h1M1 114h59M102 114h2M1 115h2M33 115h1M58 115h2M103 115h1M2 116h59M104 116h1M2 117h2M34 117h1M60 117h2M105 118h1M106 119h1" />
<path stroke="#786c61" d="M59 112h42M2 113h30M33 113h24M59 113h43M60 114h42M3 115h30M34 115h24M60 115h43M61 116h43M4 117h30M35 117h25M62 117h43" />
<path stroke="#827970" d="M3 118h60M5 119h2M35 119h1M62 119h3M7 120h104" />
<path stroke="#70655a" d="M63 118h42M7 119h28M36 119h26M65 119h41" />
</svg>