<svg xmlns="http://www.w3.org/2000/svg" viewBox="0 -0.5 145 69" shape-rendering="crispEdges">
<metadata>Made with Pixels to Svg https://codepen.io/shshaw/pen/XbxvNj</metadata>
<path stroke="#000000" d="M4 4h4M137 4h4M3 5h1M8 5h129M141 5h1M3 6h1M9 6h1M135 6h1M141 6h1M3 7h1M9 7h1M135 7h1M141 7h1M3 8h1M9 8h127M141 8h1M4 9h1M8 9h1M136 9h1M140 9h1M4 10h4M137 10h4M4 11h1M7 11h1M137 11h1M140 11h1M4 12h1M7 12h1M137 12h1M140 12h1M4 13h1M7 13h1M117 13h7M137 13h1M140 13h1M4 14h1M7 14h1M115 14h2M124 14h2M137 14h1M140 14h1M4 15h1M7 15h1M18 15h86M114 15h1M126 15h1M137 15h1M140 15h1M4 16h4M18 16h1M103 16h1M113 16h1M127 16h1M137 16h4M4 17h1M7 17h1M18 17h1M20 17h82M103 17h1M112 17h1M128 17h1M137 17h1M140 17h1M4 18h1M7 18h1M18 18h1M20 18h1M101 18h1M103 18h1M111 18h1M129 18h1M137 18h1M140 18h1M4 19h4M18 19h1M20 19h1M101 19h1M103 19h1M111 19h1M129 19h1M137 19h4M4 20h1M7 20h1M18 20h1M20 20h1M101 20h1M103 20h1M110 20h1M130 20h1M137 20h1M140 20h1M4 21h1M7 21h1M18 21h1M20 21h1M101 21h1M103 21h1M110 21h1M130 21h1M137 21h1M140 21h1M4 22h1M7 22h1M18 22h1M20 22h1M101 22h1M103 22h1M110 22h1M130 22h1M137 22h1M140 22h1M4 23h4M18 23h1M20 23h1M101 23h1M103 23h1M110 23h1M130 23h1M137 23h4M4 24h1M7 24h1M18 24h1M20 24h1M101 24h1M103 24h1M110 24h1M130 24h1M137 24h1M140 24h1M4 25h1M7 25h1M18 25h1M20 25h1M101 25h1M103 25h1M110 25h1M130 25h1M137 25h1M140 25h1M4 26h4M18 26h1M20 26h1M101 26h1M103 26h1M110 26h1M130 26h1M137 26h4M4 27h1M7 27h1M18 27h1M20 27h1M101 27h1M103 27h1M111 27h1M129 27h1M137 27h1M140 27h1M4 28h1M7 28h1M18 28h1M20 28h1M101 28h1M103 28h1M111 28h1M129 28h1M137 28h1M140 28h1M4 29h1M7 29h1M18 29h1M20 29h1M101 29h1M103 29h1M112 29h1M128 29h1M137 29h1M140 29h1M4 30h4M18 30h1M20 30h82M103 30h1M113 30h1M127 30h1M137 30h4M4 31h1M7 31h1M18 31h1M103 31h1M114 31h1M126 31h1M137 31h1M140 31h1M4 32h1M7 32h1M18 32h86M115 32h2M124 32h2M137 32h1M140 32h1M4 33h4M117 33h7M137 33h4M4 34h1M7 34h1M137 34h1M140 34h1M4 35h1M7 35h1M137 35h1M140 35h1M4 36h4M117 36h7M137 36h4M4 37h1M7 37h1M115 37h2M124 37h2M137 37h1M140 37h1M4 38h1M7 38h1M18 38h3M26 38h3M36 38h3M44 38h3M54 38h3M62 38h3M72 38h3M80 38h3M90 38h3M98 38h3M114 38h1M126 38h1M137 38h1M140 38h1M4 39h4M17 39h1M21 39h1M25 39h1M29 39h1M35 39h1M39 39h1M43 39h1M47 39h1M53 39h1M57 39h1M61 39h1M65 39h1M71 39h1M75 39h1M79 39h1M83 39h1M89 39h1M93 39h1M97 39h1M101 39h1M113 39h1M127 39h1M137 39h4M4 40h1M7 40h1M16 40h1M22 40h1M24 40h1M30 40h1M34 40h1M40 40h1M42 40h1M48 40h1M52 40h1M58 40h1M60 40h1M66 40h1M70 40h1M76 40h1M78 40h1M84 40h1M88 40h1M94 40h1M96 40h1M102 40h1M112 40h1M128 40h1M137 40h1M140 40h1M4 41h1M7 41h1M15 41h1M23 41h1M31 41h1M33 41h1M41 41h1M49 41h1M51 41h1M59 41h1M67 41h1M69 41h1M77 41h1M85 41h1M87 41h1M95 41h1M103 41h1M111 41h1M129 41h1M137 41h1M140 41h1M4 42h1M7 42h1M15 42h1M31 42h1M33 42h1M49 42h1M51 42h1M67 42h1M69 42h1M85 42h1M87 42h1M103 42h1M111 42h1M129 42h1M137 42h1M140 42h1M4 43h4M15 43h1M31 43h1M33 43h1M49 43h1M51 43h1M67 43h1M69 43h1M85 43h1M87 43h1M103 43h1M110 43h1M130 43h1M137 43h4M4 44h1M7 44h1M15 44h1M31 44h1M33 44h1M49 44h1M51 44h1M67 44h1M69 44h1M85 44h1M87 44h1M103 44h1M110 44h1M130 44h1M137 44h1M140 44h1M4 45h1M7 45h1M16 45h1M30 45h1M34 45h1M48 45h1M52 45h1M66 45h1M70 45h1M84 45h1M88 45h1M102 45h1M110 45h1M130 45h1M137 45h1M140 45h1M4 46h4M17 46h1M29 46h1M35 46h1M47 46h1M53 46h1M65 46h1M71 46h1M83 46h1M89 46h1M101 46h1M110 46h1M130 46h1M137 46h4M4 47h1M7 47h1M18 47h1M28 47h1M36 47h1M46 47h1M54 47h1M64 47h1M72 47h1M82 47h1M90 47h1M100 47h1M110 47h1M130 47h1M137 47h1M140 47h1M4 48h1M7 48h1M19 48h1M27 48h1M37 48h1M45 48h1M55 48h1M63 48h1M73 48h1M81 48h1M91 48h1M99 48h1M110 48h1M130 48h1M137 48h1M140 48h1M4 49h1M7 49h1M20 49h1M26 49h1M38 49h1M44 49h1M56 49h1M62 49h1M74 49h1M80 49h1M92 49h1M98 49h1M110 49h1M130 49h1M137 49h1M140 49h1M4 50h4M21 50h1M25 50h1M39 50h1M43 50h1M57 50h1M61 50h1M75 50h1M79 50h1M93 50h1M97 50h1M111 50h1M129 50h1M137 50h4M4 51h1M7 51h1M22 51h1M24 51h1M40 51h1M42 51h1M58 51h1M60 51h1M76 51h1M78 51h1M94 51h1M96 51h1M111 51h1M129 51h1M137 51h1M140 51h1M4 52h1M7 52h1M23 52h1M41 52h1M59 52h1M77 52h1M95 52h1M112 52h1M128 52h1M137 52h1M140 52h1M4 53h4M113 53h1M127 53h1M137 53h4M4 54h1M7 54h1M114 54h1M126 54h1M137 54h1M140 54h1M4 55h1M7 55h1M115 55h2M124 55h2M137 55h1M140 55h1M4 56h1M7 56h1M117 56h7M137 56h1M140 56h1M4 57h1M7 57h1M137 57h1M140 57h1M4 58h1M7 58h1M137 58h1M140 58h1M4 59h4M137 59h4M4 60h1M8 60h1M136 60h1M140 60h1M3 61h1M9 61h127M141 61h1M3 62h1M9 62h1M135 62h1M141 62h1M3 63h1M9 63h1M135 63h1M141 63h1M3 64h1M8 64h129M141 64h1M4 65h4M137 65h4" />
<path stroke="#d8c5b2" d="M4 5h1M140 5h1M19 16h1M102 16h1M19 31h1M102 31h1M4 64h1M140 64h1" />
<path stroke="#c4ab8f" d="M5 5h2M138 5h2M4 6h2M139 6h2M4 7h1M140 7h1M118 41h2M121 41h2M124 41h2M115 42h2M118 42h2M121 42h2M124 42h2M115 43h2M118 43h2M115 44h2M118 44h1M115 45h2M118 45h1M121 45h6M117 46h1M121 46h6M117 47h1M125 47h2M115 48h6M125 48h2M115 49h11M116 50h10M116 51h9M117 52h7M120 53h1M4 62h1M140 62h1M4 63h2M139 63h2M5 64h2M138 64h2" />
<path stroke="#b49c83" d="M7 5h1M137 5h1M6 6h2M137 6h2M5 7h2M138 7h2M4 8h2M139 8h2M20 16h1M101 16h1M19 17h1M102 17h1M19 30h1M102 30h1M20 31h1M101 31h1M4 61h2M139 61h2M5 62h2M138 62h2M6 63h2M137 63h2M7 64h1M137 64h1" />
<path stroke="#a38e75" d="M8 6h1M136 6h1M7 7h2M136 7h2M6 8h3M136 8h3M5 9h3M137 9h3M121 43h2M124 43h2M119 44h1M119 45h1M115 47h2M118 47h3M121 48h4M126 49h1M115 50h1M125 51h1M116 52h1M124 52h1M117 53h3M121 53h3M5 60h3M137 60h3M6 61h3M136 61h3M7 62h2M136 62h2M8 63h1M136 63h1" />
<path stroke="#534645" d="M10 6h2M133 6h2M5 13h1M139 13h1M5 14h1M139 14h1M5 15h1M139 15h1M21 16h3M98 16h3M19 18h1M102 18h1M19 19h1M102 19h1M5 20h1M19 20h1M102 20h1M139 20h1M5 21h1M139 21h1M5 22h1M139 22h1M5 27h1M19 27h1M139 27h1M5 28h1M19 28h1M139 28h1M5 29h1M19 29h1M139 29h1M21 31h3M5 34h1M139 34h1M5 35h1M139 35h1M5 40h1M118 40h2M121 40h2M124 40h2M139 40h1M5 41h1M115 41h3M120 41h1M123 41h1M126 41h1M139 41h1M5 42h1M114 42h1M117 42h1M120 42h1M123 42h1M126 42h1M139 42h1M114 43h1M117 43h1M120 43h1M123 43h1M126 43h1M114 44h1M117 44h1M120 44h7M114 45h1M117 45h1M120 45h1M127 45h1M114 46h3M118 46h3M127 46h1M5 47h1M114 47h1M121 47h4M127 47h1M139 47h1M5 48h1M114 48h1M127 48h1M139 48h1M5 49h1M114 49h1M127 49h1M139 49h1M114 50h1M126 50h1M115 51h1M126 51h1M115 52h1M125 52h1M116 53h1M124 53h1M5 54h1M139 54h1M5 55h1M139 55h1M5 56h1M139 56h1M10 63h2M133 63h2" />
<path stroke="#433838" d="M12 6h2M24 6h4M35 6h2M46 6h4M64 6h5M75 6h2M87 6h2M95 6h5M114 6h4M131 6h2M10 7h5M129 7h6M6 11h1M138 11h1M6 12h1M138 12h1M6 13h1M138 13h1M6 14h1M138 14h1M6 15h1M138 15h1M6 20h1M138 20h1M6 21h1M138 21h1M6 22h1M138 22h1M6 27h1M138 27h1M6 28h1M138 28h1M6 29h1M138 29h1M6 34h1M138 34h1M6 35h1M138 35h1M6 40h1M138 40h1M6 41h1M138 41h1M6 42h1M138 42h1M6 47h1M138 47h1M6 48h1M138 48h1M6 49h1M138 49h1M6 54h1M138 54h1M6 55h1M138 55h1M6 56h1M138 56h1M6 57h1M138 57h1M6 58h1M138 58h1M10 62h5M129 62h6M12 63h2M17 63h4M33 63h3M46 63h4M64 63h5M75 63h2M87 63h2M95 63h5M114 63h4M131 63h2" />
<path stroke="#362e2e" d="M14 6h10M28 6h7M37 6h9M50 6h14M69 6h6M77 6h10M89 6h6M100 6h14M118 6h13M24 16h74M19 21h1M102 21h1M19 22h1M102 22h1M19 23h1M102 23h1M19 24h1M102 24h1M19 25h1M102 25h1M19 26h1M102 26h1M102 27h1M102 28h1M102 29h1M24 31h77M14 63h3M21 63h12M36 63h10M50 63h14M69 63h6M77 63h10M89 63h6M100 63h14M118 63h13" />
<path stroke="#2d2626" d="M15 7h114M15 62h114" />
<path stroke="#616161" d="M9 9h127M8 10h129M8 11h6M131 11h6M8 12h5M132 12h5M8 13h4M133 13h4M8 14h3M134 14h3M8 15h2M135 15h2M8 16h2M135 16h2M8 17h2M135 17h2M8 18h2M135 18h2M8 19h2M135 19h2M8 20h2M135 20h2M8 21h2M135 21h2M8 22h2M135 22h2M8 23h2M135 23h2M8 24h2M135 24h2M8 25h2M135 25h2M8 26h2M135 26h2M8 27h2M135 27h2M8 28h2M135 28h2M8 29h2M135 29h2M8 30h2M135 30h2M8 31h2M135 31h2M8 32h2M135 32h2M8 33h2M135 33h2M8 34h2M135 34h2M8 35h2M135 35h2M8 36h2M135 36h2M8 37h2M135 37h2M8 38h2M135 38h2M8 39h2M135 39h2M8 40h2M135 40h2M8 41h2M135 41h2M8 42h2M135 42h2M8 43h2M135 43h2M8 44h2M135 44h2M8 45h2M135 45h2M8 46h2M135 46h2M8 47h2M135 47h2M8 48h2M135 48h2M8 49h2M135 49h2M8 50h2M135 50h2M8 51h2M135 51h2M8 52h2M135 52h2M8 53h2M135 53h2M8 54h2M135 54h2M8 55h3M134 55h3M8 56h4M133 56h4M8 57h5M132 57h5M8 58h6M131 58h6M8 59h129M9 60h127" />
<path stroke="#5e504f" d="M5 11h1M139 11h1M5 12h1M139 12h1M5 57h1M139 57h1M5 58h1M139 58h1" />
<path stroke="#6f6f6f" d="M14 11h117M13 12h119M12 13h105M124 13h9M11 14h104M127 14h7M10 15h8M105 15h9M128 15h7M10 16h8M106 16h7M129 16h6M10 17h8M106 17h6M130 17h5M10 18h8M106 18h5M131 18h4M10 19h8M106 19h5M131 19h4M10 20h8M106 20h4M132 20h3M10 21h8M106 21h4M132 21h3M10 22h8M106 22h4M132 22h3M10 23h8M106 23h4M132 23h3M10 24h8M106 24h4M132 24h3M10 25h8M106 25h4M132 25h3M10 26h8M106 26h4M132 26h3M10 27h8M106 27h5M131 27h4M10 28h8M106 28h5M131 28h4M10 29h8M106 29h5M131 29h4M10 30h8M106 30h6M129 30h6M10 31h8M106 31h7M128 31h7M10 32h8M106 32h8M127 32h8M10 33h9M106 33h9M127 33h8M10 34h10M106 34h11M124 34h11M10 35h125M10 36h107M124 36h11M10 37h105M127 37h8M10 38h8M21 38h5M30 38h6M39 38h5M48 38h6M57 38h5M66 38h6M75 38h5M84 38h6M93 38h5M102 38h12M128 38h7M10 39h7M22 39h3M31 39h4M40 39h3M49 39h4M58 39h3M67 39h4M76 39h3M85 39h4M94 39h3M103 39h10M129 39h6M10 40h6M23 40h1M32 40h2M41 40h1M50 40h2M59 40h1M68 40h2M77 40h1M86 40h2M95 40h1M104 40h8M130 40h5M10 41h5M105 41h6M131 41h4M10 42h5M105 42h6M131 42h4M10 43h5M105 43h5M132 43h3M10 44h5M105 44h5M132 44h3M10 45h6M33 45h1M51 45h1M69 45h1M87 45h1M105 45h5M132 45h3M10 46h7M32 46h3M50 46h3M68 46h3M86 46h3M104 46h6M132 46h3M10 47h8M31 47h5M49 47h5M67 47h5M85 47h5M103 47h7M132 47h3M10 48h9M30 48h7M48 48h7M66 48h7M84 48h7M102 48h8M132 48h3M10 49h10M29 49h9M47 49h9M65 49h9M83 49h9M101 49h9M132 49h3M10 50h11M28 50h11M46 50h11M64 50h11M82 50h11M100 50h11M131 50h4M10 51h12M27 51h13M45 51h13M63 51h13M81 51h13M99 51h12M131 51h4M10 52h13M26 52h15M44 52h15M62 52h15M80 52h15M98 52h13M131 52h4M10 53h14M25 53h17M43 53h17M61 53h17M79 53h17M97 53h15M129 53h6M10 54h103M128 54h7M11 55h103M127 55h7M12 56h103M127 56h6M13 57h104M124 57h8M14 58h117" />
<path stroke="#3c5c17" d="M117 14h7M115 15h2M124 15h2M114 16h1M126 16h1M113 17h1M127 17h1M112 18h1M128 18h1M112 19h1M128 19h1M111 20h1M129 20h1M111 21h1M129 21h1M111 22h1M129 22h1M111 23h1M129 23h1M111 24h1M129 24h1M111 25h1M129 25h1M111 26h1M129 26h1M112 27h1M128 27h1M112 28h1M128 28h1M113 29h1M127 29h1M114 30h1M126 30h1M115 31h2M125 31h1M117 32h7" />
<path stroke="#525252" d="M126 14h1M104 15h1M127 15h1M104 16h2M128 16h1M104 17h2M129 17h1M104 18h2M130 18h1M104 19h2M130 19h1M104 20h2M131 20h1M104 21h2M131 21h1M104 22h2M131 22h1M104 23h2M131 23h1M104 24h2M131 24h1M104 25h2M131 25h1M104 26h2M131 26h1M104 27h2M130 27h1M104 28h2M130 28h1M104 29h2M111 29h1M129 29h2M104 30h2M112 30h1M128 30h1M104 31h2M113 31h1M127 31h1M104 32h2M114 32h1M126 32h1M19 33h87M115 33h2M124 33h3M20 34h86M117 34h7M126 37h1M29 38h1M47 38h1M65 38h1M83 38h1M101 38h1M127 38h1M30 39h1M48 39h1M66 39h1M84 39h1M102 39h1M128 39h1M31 40h1M49 40h1M67 40h1M85 40h1M103 40h1M129 40h1M32 41h1M50 41h1M68 41h1M86 41h1M104 41h1M130 41h1M32 42h1M50 42h1M68 42h1M86 42h1M104 42h1M130 42h1M32 43h1M50 43h1M68 43h1M86 43h1M104 43h1M131 43h1M32 44h1M50 44h1M68 44h1M86 44h1M104 44h1M131 44h1M31 45h2M49 45h2M67 45h2M85 45h2M103 45h2M131 45h1M30 46h2M48 46h2M66 46h2M84 46h2M102 46h2M131 46h1M29 47h2M47 47h2M65 47h2M83 47h2M101 47h2M131 47h1M28 48h2M46 48h2M64 48h2M82 48h2M100 48h2M131 48h1M27 49h2M45 49h2M63 49h2M81 49h2M99 49h2M131 49h1M26 50h2M44 50h2M62 50h2M80 50h2M98 50h2M130 50h1M25 51h2M43 51h2M61 51h2M79 51h2M97 51h2M130 51h1M24 52h2M42 52h2M60 52h2M78 52h2M96 52h2M111 52h1M129 52h2M24 53h1M42 53h1M60 53h1M78 53h1M96 53h1M112 53h1M128 53h1M113 54h1M127 54h1M114 55h1M126 55h1M115 56h2M124 56h3M117 57h7" />
<path stroke="#49711e" d="M117 15h7M115 16h11M114 17h13M113 18h1M118 18h10M113 19h1M119 19h9M112 20h2M120 20h9M112 21h2M121 21h8M112 22h3M121 22h3M127 22h2M112 23h4M121 23h2M127 23h2M112 24h5M127 24h2M112 25h7M126 25h3M112 26h7M124 26h5M113 27h6M121 27h7M113 28h6M121 28h7M114 29h5M121 29h6M115 30h11M117 31h8" />
<path stroke="#9eadb6" d="M5 17h1M139 17h1M5 18h1M139 18h1M5 24h1M139 24h1M5 25h1M139 25h1M5 31h1M139 31h1M5 32h1M139 32h1M5 37h1M139 37h1M5 38h1M139 38h1M5 44h1M139 44h1M5 45h1M139 45h1M5 51h1M139 51h1M5 52h1M139 52h1" />
<path stroke="#737e84" d="M6 17h1M138 17h1M6 18h1M138 18h1M6 24h1M138 24h1M6 25h1M138 25h1M6 31h1M138 31h1M6 32h1M138 32h1M6 37h1M138 37h1M6 38h1M138 38h1M6 44h1M138 44h1M6 45h1M138 45h1M6 51h1M138 51h1M6 52h1M138 52h1" />
<path stroke="#393939" d="M21 18h80M21 19h80M21 20h80M21 21h80M21 22h80M21 23h80M21 24h80M21 25h80M21 26h80M21 27h80M21 28h80M21 29h80M18 39h3M26 39h3M36 39h3M44 39h3M54 39h3M62 39h3M72 39h3M80 39h3M90 39h3M98 39h3M17 40h5M25 40h5M35 40h5M43 40h5M53 40h5M61 40h5M71 40h5M79 40h5M89 40h5M97 40h5M16 41h7M24 41h7M34 41h7M42 41h7M52 41h7M60 41h7M70 41h7M78 41h7M88 41h7M96 41h7M16 42h15M34 42h15M52 42h15M70 42h15M88 42h15M16 43h15M34 43h15M52 43h15M70 43h15M88 43h15M16 44h15M34 44h15M52 44h15M70 44h15M88 44h15M17 45h13M35 45h13M53 45h13M71 45h13M89 45h13M18 46h11M36 46h11M54 46h11M72 46h11M90 46h11M19 47h9M37 47h9M55 47h9M73 47h9M91 47h9M20 48h7M38 48h7M56 48h7M74 48h7M92 48h7M21 49h5M39 49h5M57 49h5M75 49h5M93 49h5M22 50h3M40 50h3M58 50h3M76 50h3M94 50h3M23 51h1M41 51h1M59 51h1M77 51h1M95 51h1" />
<path stroke="#9cf24b" d="M114 18h4M114 19h1M116 19h1M118 19h1M114 20h2M118 20h2M114 21h3M118 21h3M115 22h3M119 22h2M124 22h3M116 23h1M120 23h1M123 23h2M126 23h1M117 24h3M121 24h1M126 24h1M119 25h1M121 25h1M124 25h2M122 26h2" />
<path stroke="#5ac33e" d="M115 19h1M116 20h1M117 21h1M118 22h1M119 23h1M125 23h1M120 24h1M124 24h1M120 25h1M122 25h2M119 26h3M119 27h2M119 28h2M119 29h2" />
<path stroke="#8eda43" d="M117 19h1M117 20h1M117 23h2M122 24h2M125 24h1" />
<path stroke="#b02920" d="M117 37h7M115 38h2M124 38h2M114 39h1M126 39h1M113 40h1M127 40h1M112 41h1M128 41h1M112 42h1M128 42h1M111 43h1M129 43h1M111 44h1M129 44h1M111 45h1M129 45h1M111 46h1M129 46h1M111 47h1M129 47h1M111 48h1M129 48h1M111 49h1M129 49h1M112 50h1M128 50h1M112 51h1M128 51h1M113 52h1M127 52h1M114 53h1M126 53h1M115 54h2M124 54h2M117 55h7" />
<path stroke="#eb392c" d="M117 38h7M115 39h11M114 40h4M120 40h1M123 40h1M126 40h1M113 41h2M127 41h1M113 42h1M127 42h1M112 43h2M127 43h2M112 44h2M127 44h2M112 45h2M128 45h1M112 46h2M128 46h1M112 47h2M128 47h1M112 48h2M128 48h1M112 49h2M128 49h1M113 50h1M127 50h1M113 51h2M127 51h1M114 52h1M126 52h1M115 53h1M125 53h1M117 54h7" />
</svg>