<svg xmlns="http://www.w3.org/2000/svg" viewBox="0 -0.5 15 12" shape-rendering="crispEdges">
<metadata>Made with Pixels to Svg https://codepen.io/shshaw/pen/XbxvNj</metadata>
<path stroke="#000000" d="M6 0h2M5 1h1M8 1h1M4 2h1M8 2h1M3 3h1M9 3h3M2 4h1M12 4h1M2 5h1M12 5h1M2 6h2M9 6h4M2 7h1M4 7h1M8 7h1M12 7h1M3 8h1M5 8h1M8 8h1M10 8h2M4 9h1M6 9h2M9 9h1M5 10h1M8 10h1M6 11h2" />
<path stroke="#5f8037" d="M6 1h2M5 2h1M7 2h1M4 3h1M6 3h3M3 4h1M5 4h5M3 5h5M4 6h3M5 7h2" />
<path stroke="#a7cd79" d="M6 2h1M5 3h1M4 4h1" />
<path stroke="#475f29" d="M10 4h2M8 5h4M7 6h2M7 7h1M6 8h2" />
<path stroke="#525252" d="M3 7h1M9 7h3M4 8h1M9 8h1M5 9h1M8 9h1M6 10h2" />
</svg>