<svg xmlns="http://www.w3.org/2000/svg" viewBox="0 -0.5 15 12" shape-rendering="crispEdges">
<metadata>Made with Pixels to Svg https://codepen.io/shshaw/pen/XbxvNj</metadata>
<path stroke="#000000" d="M7 0h2M6 1h1M9 1h1M6 2h1M10 2h1M3 3h3M11 3h1M2 4h1M12 4h1M2 5h1M12 5h1M2 6h4M11 6h2M2 7h1M6 7h1M10 7h1M12 7h1M3 8h2M6 8h1M9 8h1M11 8h1M5 9h1M7 9h2M10 9h1M6 10h1M9 10h1M7 11h2" />
<path stroke="#5f8037" d="M7 1h2M7 2h1M9 2h1M6 3h3M10 3h1M5 4h5M11 4h1M7 5h5M8 6h3M8 7h2" />
<path stroke="#a7cd79" d="M8 2h1M9 3h1M10 4h1" />
<path stroke="#475f29" d="M3 4h2M3 5h4M6 6h2M7 7h1M7 8h2" />
<path stroke="#525252" d="M3 7h3M11 7h1M5 8h1M10 8h1M6 9h1M9 9h1M7 10h2" />
</svg>