<svg xmlns="http://www.w3.org/2000/svg" viewBox="0 -0.5 15 12" shape-rendering="crispEdges">
<metadata>Made with Pixels to Svg https://codepen.io/shshaw/pen/XbxvNj</metadata>
<path stroke="#000000" d="M6 2h2M5 3h1M8 3h1M4 4h1M8 4h1M3 5h1M9 5h3M2 6h1M12 6h1M2 7h1M12 7h1M3 8h1M9 8h3M4 9h1M8 9h1M5 10h1M8 10h1M6 11h2" />
<path stroke="#5f8037" d="M6 3h2M5 4h1M7 4h1M4 5h1M6 5h3M3 6h1M5 6h5M3 7h5M4 8h3M5 9h2" />
<path stroke="#a7cd79" d="M6 4h1M5 5h1M4 6h1" />
<path stroke="#475f29" d="M10 6h2M8 7h4M7 8h2M7 9h1M6 10h2" />
</svg>