<svg xmlns="http://www.w3.org/2000/svg" viewBox="0 -0.5 15 12" shape-rendering="crispEdges">
<metadata>Made with Pixels to Svg https://codepen.io/shshaw/pen/XbxvNj</metadata>
<path stroke="#000000" d="M7 2h2M6 3h1M9 3h1M6 4h1M10 4h1M3 5h3M11 5h1M2 6h1M12 6h1M2 7h1M12 7h1M3 8h3M11 8h1M6 9h1M10 9h1M6 10h1M9 10h1M7 11h2" />
<path stroke="#5f8037" d="M7 3h2M7 4h1M9 4h1M6 5h3M10 5h1M5 6h5M11 6h1M7 7h5M8 8h3M8 9h2" />
<path stroke="#a7cd79" d="M8 4h1M9 5h1M10 6h1" />
<path stroke="#475f29" d="M3 6h2M3 7h4M6 8h2M7 9h1M7 10h2" />
</svg>