<svg xmlns="http://www.w3.org/2000/svg" viewBox="0 -0.5 37 29" shape-rendering="crispEdges">
<metadata>Made with Pixels to Svg https://codepen.io/shshaw/pen/XbxvNj</metadata>
<path stroke="#000000" d="M7 3h23M6 4h1M30 4h1M6 5h1M30 5h1M6 6h1M30 6h1M5 7h2M15 7h3M30 7h2M5 8h2M15 8h1M18 8h1M30 8h2M5 9h2M15 9h1M19 9h1M30 9h2M5 10h2M15 10h1M20 10h1M30 10h2M5 11h2M15 11h1M21 11h1M30 11h2M5 12h2M15 12h1M22 12h1M30 12h2M5 13h2M15 13h1M21 13h1M30 13h2M5 14h2M15 14h1M20 14h1M30 14h2M5 15h2M15 15h1M19 15h1M30 15h2M5 16h2M15 16h1M18 16h1M30 16h2M5 17h2M15 17h3M30 17h2M5 18h2M30 18h2M5 19h2M30 19h2M5 20h2M30 20h2M5 21h1M7 21h23M31 21h1M5 22h1M31 22h1M5 23h2M30 23h2M6 24h25" />
<path stroke="#1139a7" d="M7 4h23M7 5h23M7 6h23M7 7h8M18 7h12M7 8h8M19 8h11M7 9h8M20 9h10M7 10h8M21 10h9M7 11h8M22 11h8M7 12h8M23 12h7M7 13h8M22 13h8M7 14h8M21 14h9M7 15h8M20 15h10M7 16h8M19 16h11M7 17h8M18 17h12M8 18h21" />
<path stroke="#4f4f4f" d="M5 5h1M31 5h1M5 6h1M31 6h1M4 7h1M32 7h1M4 8h1M32 8h1M4 9h1M32 9h1M4 10h1M32 10h1M4 11h1M32 11h1M4 12h1M32 12h1M4 13h1M32 13h1M4 14h1M32 14h1M4 15h1M32 15h1M4 16h1M32 16h1M4 17h1M32 17h1M4 18h1M32 18h1M4 19h1M32 19h1M4 20h1M32 20h1M4 21h1M6 21h1M30 21h1M32 21h1M4 22h1M6 22h25M32 22h1M4 23h1M7 23h23M32 23h1M5 24h1M31 24h1M6 25h25" />
<path stroke="#ffffff" d="M16 8h2M16 9h3M16 10h4M16 11h5M16 12h6M16 13h5M16 14h4M16 15h3M16 16h2" />
<path stroke="#0f2f8b" d="M7 18h1M29 18h1M8 19h21" />
<path stroke="#0d2c83" d="M7 19h1M29 19h1M7 20h23" />
</svg>