<svg xmlns="http://www.w3.org/2000/svg" viewBox="0 -0.5 179 129" shape-rendering="crispEdges">
<metadata>Made with Pixels to Svg https://codepen.io/shshaw/pen/XbxvNj</metadata>
<path stroke="#000000" d="M53 2h8M119 2h8M46 3h7M61 3h3M116 3h3M127 3h7M46 4h1M64 4h4M112 4h4M133 4h1M47 5h1M56 5h4M68 5h3M109 5h3M120 5h4M132 5h1M6 6h6M47 6h5M71 6h3M106 6h3M128 6h5M168 6h6M5 7h1M12 7h156M174 7h1M5 8h1M12 8h2M166 8h2M174 8h1M5 9h1M13 9h1M166 9h1M174 9h1M5 10h1M13 10h154M174 10h1M5 11h1M13 11h1M166 11h1M174 11h1M5 12h1M13 12h1M166 12h1M174 12h1M6 13h2M12 13h2M166 13h2M172 13h2M6 14h7M167 14h7M6 15h1M9 15h1M170 15h1M173 15h1M6 16h1M9 16h1M170 16h1M173 16h1M6 17h1M9 17h1M170 17h1M173 17h1M6 18h4M170 18h4M6 19h1M9 19h1M170 19h1M173 19h1M6 20h1M9 20h1M170 20h1M173 20h1M6 21h4M170 21h4M6 22h1M9 22h1M170 22h1M173 22h1M6 23h1M9 23h1M170 23h1M173 23h1M6 24h1M9 24h1M170 24h1M173 24h1M6 25h4M170 25h4M6 26h1M9 26h1M170 26h1M173 26h1M6 27h1M9 27h1M170 27h1M173 27h1M6 28h4M170 28h4M6 29h1M9 29h1M170 29h1M173 29h1M6 30h1M9 30h1M170 30h1M173 30h1M6 31h1M9 31h1M170 31h1M173 31h1M6 32h4M170 32h4M6 33h1M9 33h1M170 33h1M173 33h1M6 34h1M9 34h1M170 34h1M173 34h1M6 35h4M170 35h4M6 36h1M9 36h1M170 36h1M173 36h1M6 37h1M9 37h1M170 37h1M173 37h1M6 38h1M9 38h1M170 38h1M173 38h1M6 39h1M9 39h1M170 39h1M173 39h1M6 40h1M9 40h1M170 40h1M173 40h1M6 41h4M170 41h4M6 42h1M9 42h1M170 42h1M173 42h1M6 43h1M9 43h1M170 43h1M173 43h1M6 44h4M170 44h4M6 45h1M9 45h1M170 45h1M173 45h1M6 46h1M9 46h1M170 46h1M173 46h1M6 47h1M9 47h1M170 47h1M173 47h1M6 48h1M9 48h1M170 48h1M173 48h1M6 49h1M9 49h1M170 49h1M173 49h1M6 50h4M170 50h4M6 51h1M9 51h1M170 51h1M173 51h1M6 52h1M9 52h1M170 52h1M173 52h1M6 53h4M170 53h4M6 54h1M9 54h1M170 54h1M173 54h1M6 55h1M9 55h1M170 55h1M173 55h1M6 56h1M9 56h1M170 56h1M173 56h1M6 57h1M9 57h1M170 57h1M173 57h1M6 58h1M9 58h1M170 58h1M173 58h1M6 59h1M9 59h1M170 59h1M173 59h1M6 60h1M9 60h1M170 60h1M173 60h1M6 61h1M9 61h1M170 61h1M173 61h1M6 62h1M9 62h1M170 62h1M173 62h1M6 63h1M9 63h1M170 63h1M173 63h1M6 64h1M9 64h1M170 64h1M173 64h1M6 65h1M9 65h1M170 65h1M173 65h1M6 66h1M9 66h1M170 66h1M173 66h1M6 67h1M9 67h1M170 67h1M173 67h1M6 68h1M9 68h1M170 68h1M173 68h1M6 69h1M9 69h1M170 69h1M173 69h1M6 70h4M170 70h4M6 71h1M9 71h1M170 71h1M173 71h1M6 72h1M9 72h1M170 72h1M173 72h1M6 73h4M170 73h4M6 74h1M9 74h1M170 74h1M173 74h1M6 75h1M9 75h1M170 75h1M173 75h1M6 76h1M9 76h1M170 76h1M173 76h1M6 77h1M9 77h1M170 77h1M173 77h1M6 78h1M9 78h1M170 78h1M173 78h1M6 79h4M170 79h4M6 80h1M9 80h1M170 80h1M173 80h1M6 81h1M9 81h1M170 81h1M173 81h1M6 82h4M170 82h4M6 83h1M9 83h1M170 83h1M173 83h1M6 84h1M9 84h1M170 84h1M173 84h1M6 85h1M9 85h1M170 85h1M173 85h1M6 86h1M9 86h1M170 86h1M173 86h1M6 87h1M9 87h1M170 87h1M173 87h1M6 88h4M170 88h4M6 89h1M9 89h1M170 89h1M173 89h1M6 90h1M9 90h1M170 90h1M173 90h1M6 91h4M170 91h4M6 92h1M9 92h1M170 92h1M173 92h1M6 93h1M9 93h1M170 93h1M173 93h1M6 94h1M9 94h1M170 94h1M173 94h1M6 95h1M9 95h1M170 95h1M173 95h1M6 96h4M170 96h4M6 97h1M9 97h1M170 97h1M173 97h1M6 98h1M9 98h1M170 98h1M173 98h1M6 99h4M170 99h4M6 100h1M9 100h1M170 100h1M173 100h1M6 101h1M9 101h1M170 101h1M173 101h1M6 102h1M9 102h1M170 102h1M173 102h1M6 103h4M170 103h4M6 104h1M9 104h1M170 104h1M173 104h1M6 105h1M9 105h1M170 105h1M173 105h1M6 106h4M170 106h4M6 107h1M9 107h1M170 107h1M173 107h1M6 108h1M9 108h1M170 108h1M173 108h1M6 109h1M9 109h1M170 109h1M173 109h1M6 110h4M170 110h4M6 111h1M9 111h1M170 111h1M173 111h1M6 112h1M9 112h1M170 112h1M173 112h1M6 113h4M170 113h4M6 114h1M9 114h1M170 114h1M173 114h1M6 115h1M9 115h1M170 115h1M173 115h1M6 116h1M9 116h1M170 116h1M173 116h1M6 117h7M167 117h7M6 118h2M12 118h2M166 118h2M172 118h2M5 119h1M13 119h1M166 119h1M174 119h1M5 120h1M13 120h1M166 120h1M174 120h1M5 121h1M13 121h154M174 121h1M5 122h1M13 122h1M166 122h1M174 122h1M5 123h1M12 123h2M166 123h2M174 123h1M5 124h1M12 124h156M174 124h1M6 125h6M168 125h6" />
<path stroke="#d8c5b2" d="M53 3h1M126 3h1M47 4h1M132 4h1M60 5h1M119 5h1M6 7h2M172 7h2M6 8h2M172 8h2M6 123h2M172 123h2M6 124h2M172 124h2" />
<path stroke="#b49c83" d="M54 3h7M119 3h7M48 4h5M127 4h5M11 7h1M168 7h1M11 8h1M168 8h1M9 9h3M168 9h3M8 10h3M169 10h3M8 11h3M169 11h3M6 12h3M171 12h3M6 119h3M171 119h3M8 120h3M169 120h3M8 121h3M169 121h3M9 122h3M168 122h3M11 123h1M168 123h1M11 124h1M168 124h1" />
<path stroke="#a38e75" d="M53 4h11M116 4h11M48 5h8M61 5h7M112 5h7M124 5h8M52 6h19M109 6h19M12 9h1M167 9h1M11 10h2M167 10h2M11 11h2M167 11h2M9 12h4M167 12h4M8 13h4M168 13h4M8 118h4M168 118h4M9 119h4M167 119h4M11 120h2M167 120h2M11 121h2M167 121h2M12 122h1M167 122h1" />
<path stroke="#c4ab8f" d="M8 7h3M169 7h3M8 8h3M169 8h3M6 9h3M171 9h3M6 10h2M172 10h2M6 11h2M172 11h2M6 120h2M172 120h2M6 121h2M172 121h2M6 122h3M171 122h3M8 123h3M169 123h3M8 124h3M169 124h3" />
<path stroke="#433838" d="M14 8h2M26 8h4M37 8h2M48 8h4M66 8h5M74 8h5M95 8h6M108 8h2M120 8h2M128 8h5M147 8h4M164 8h2M14 9h3M162 9h4M8 15h1M171 15h1M8 16h1M171 16h1M8 17h1M171 17h1M8 22h1M171 22h1M8 23h1M171 23h1M8 24h1M171 24h1M8 29h1M171 29h1M8 30h1M171 30h1M8 31h1M171 31h1M8 36h1M171 36h1M8 37h1M171 37h1M8 38h1M171 38h1M8 39h1M171 39h1M8 40h1M171 40h1M8 45h1M171 45h1M8 46h1M171 46h1M8 47h1M171 47h1M8 48h1M171 48h1M8 49h1M171 49h1M8 54h1M171 54h1M8 55h1M171 55h1M8 56h1M171 56h1M8 57h1M171 57h1M8 58h1M171 58h1M8 59h1M171 59h1M8 60h1M171 60h1M8 61h1M171 61h1M8 62h1M171 62h1M8 63h1M171 63h1M8 64h1M171 64h1M8 65h1M171 65h1M8 66h1M171 66h1M8 67h1M171 67h1M8 68h1M171 68h1M8 69h1M171 69h1M8 74h1M171 74h1M8 75h1M171 75h1M8 76h1M171 76h1M8 77h1M171 77h1M8 78h1M171 78h1M8 83h1M171 83h1M8 84h1M171 84h1M8 85h1M171 85h1M8 86h1M171 86h1M8 87h1M171 87h1M8 92h1M171 92h1M8 93h1M171 93h1M8 94h1M171 94h1M8 95h1M171 95h1M8 100h1M171 100h1M8 101h1M171 101h1M8 102h1M171 102h1M8 107h1M171 107h1M8 108h1M171 108h1M8 109h1M171 109h1M8 114h1M171 114h1M8 115h1M171 115h1M8 116h1M171 116h1M14 122h3M162 122h4M14 123h2M19 123h4M35 123h3M48 123h4M66 123h5M75 123h5M96 123h6M108 123h2M120 123h2M128 123h5M147 123h4M164 123h2" />
<path stroke="#362e2e" d="M16 8h10M30 8h7M39 8h9M52 8h14M71 8h3M79 8h16M101 8h7M110 8h10M122 8h6M133 8h14M151 8h13M16 123h3M23 123h12M38 123h10M52 123h14M71 123h4M80 123h16M102 123h6M110 123h10M122 123h6M133 123h14M151 123h13" />
<path stroke="#2d2626" d="M17 9h145M17 122h145" />
<path stroke="#616161" d="M14 11h152M14 12h152M14 13h152M13 14h154M10 15h8M162 15h8M10 16h7M163 16h7M10 17h6M164 17h6M10 18h5M165 18h5M10 19h4M166 19h4M10 20h4M166 20h4M10 21h4M166 21h4M10 22h4M166 22h4M10 23h4M166 23h4M10 24h4M166 24h4M10 25h4M166 25h4M10 26h4M166 26h4M10 27h4M166 27h4M10 28h4M166 28h4M10 29h4M166 29h4M10 30h4M166 30h4M10 31h4M166 31h4M10 32h4M166 32h4M10 33h4M166 33h4M10 34h4M166 34h4M10 35h4M166 35h4M10 36h4M166 36h4M10 37h4M166 37h4M10 38h4M166 38h4M10 39h4M166 39h4M10 40h4M166 40h4M10 41h4M166 41h4M10 42h4M166 42h4M10 43h4M166 43h4M10 44h4M166 44h4M10 45h4M166 45h4M10 46h4M166 46h4M10 47h4M166 47h4M10 48h4M166 48h4M10 49h4M166 49h4M10 50h4M166 50h4M10 51h4M166 51h4M10 52h4M166 52h4M10 53h4M166 53h4M10 54h4M166 54h4M10 55h4M166 55h4M10 56h4M166 56h4M10 57h4M166 57h4M10 58h4M166 58h4M10 59h4M166 59h4M10 60h4M166 60h4M10 61h4M166 61h4M10 62h4M166 62h4M10 63h4M166 63h4M10 64h4M166 64h4M10 65h4M166 65h4M10 66h4M166 66h4M10 67h4M166 67h4M10 68h4M166 68h4M10 69h4M166 69h4M10 70h4M166 70h4M10 71h4M166 71h4M10 72h4M166 72h4M10 73h4M166 73h4M10 74h4M166 74h4M10 75h4M166 75h4M10 76h4M166 76h4M10 77h4M166 77h4M10 78h4M166 78h4M10 79h4M166 79h4M10 80h4M166 80h4M10 81h4M166 81h4M10 82h4M166 82h4M10 83h4M166 83h4M10 84h4M166 84h4M10 85h4M166 85h4M10 86h4M166 86h4M10 87h4M166 87h4M10 88h4M166 88h4M10 89h4M166 89h4M10 90h4M166 90h4M10 91h4M166 91h4M10 92h4M166 92h4M10 93h4M166 93h4M10 94h4M166 94h4M10 95h4M166 95h4M10 96h4M166 96h4M10 97h4M166 97h4M10 98h4M166 98h4M10 99h4M166 99h4M10 100h4M166 100h4M10 101h4M166 101h4M10 102h4M166 102h4M10 103h4M166 103h4M10 104h4M166 104h4M10 105h4M166 105h4M10 106h4M166 106h4M10 107h4M166 107h4M10 108h4M166 108h4M10 109h4M166 109h4M10 110h4M166 110h4M10 111h4M166 111h4M10 112h4M166 112h4M10 113h5M165 113h5M10 114h6M164 114h6M10 115h7M163 115h7M10 116h8M162 116h8M13 117h154M14 118h152M14 119h152M14 120h152" />
<path stroke="#534645" d="M7 15h1M172 15h1M7 16h1M172 16h1M7 17h1M172 17h1M7 22h1M172 22h1M7 23h1M172 23h1M7 24h1M172 24h1M7 29h1M172 29h1M7 30h1M172 30h1M7 31h1M172 31h1M7 36h1M172 36h1M7 37h1M172 37h1M7 38h1M172 38h1M7 39h1M172 39h1M7 40h1M172 40h1M7 45h1M172 45h1M7 46h1M172 46h1M7 47h1M172 47h1M7 48h1M172 48h1M7 49h1M172 49h1M7 54h1M172 54h1M7 55h1M172 55h1M7 56h1M172 56h1M7 57h1M172 57h1M7 58h1M172 58h1M7 59h1M172 59h1M7 60h1M172 60h1M7 61h1M172 61h1M7 62h1M172 62h1M7 63h1M172 63h1M7 64h1M172 64h1M7 65h1M172 65h1M7 66h1M172 66h1M7 67h1M172 67h1M7 68h1M172 68h1M7 69h1M172 69h1M7 74h1M172 74h1M7 75h1M172 75h1M7 76h1M172 76h1M7 77h1M172 77h1M7 78h1M172 78h1M7 83h1M172 83h1M7 84h1M172 84h1M7 85h1M172 85h1M7 86h1M172 86h1M7 87h1M172 87h1M7 92h1M172 92h1M7 93h1M172 93h1M7 94h1M172 94h1M7 95h1M172 95h1M7 100h1M172 100h1M7 101h1M172 101h1M7 102h1M172 102h1M7 107h1M172 107h1M7 108h1M172 108h1M7 109h1M172 109h1M7 114h1M172 114h1M7 115h1M172 115h1M7 116h1M172 116h1" />
<path stroke="#6f6f6f" d="M18 15h144M17 16h146M16 17h148M15 18h150M14 19h152M14 20h152M14 21h152M14 22h152M14 23h152M14 24h152M14 25h152M14 26h152M14 27h152M14 28h152M14 29h152M14 30h152M14 31h152M14 32h152M14 33h152M14 34h152M14 35h152M14 36h152M14 37h152M14 38h152M14 39h152M14 40h152M14 41h152M14 42h152M14 43h152M14 44h152M14 45h152M14 46h152M14 47h152M14 48h152M14 49h152M14 50h152M14 51h152M14 52h152M14 53h152M14 54h152M14 55h152M14 56h152M14 57h152M14 58h152M14 59h152M14 60h152M14 61h152M14 62h152M14 63h152M14 64h152M14 65h152M14 66h152M14 67h152M14 68h152M14 69h152M14 70h152M14 71h152M14 72h152M14 73h152M14 74h152M14 75h152M14 76h152M14 77h152M14 78h152M14 79h152M14 80h152M14 81h152M14 82h152M14 83h152M14 84h152M14 85h152M14 86h152M14 87h152M14 88h152M14 89h152M14 90h152M14 91h152M14 92h152M14 93h152M14 94h152M14 95h152M14 96h152M14 97h152M14 98h152M14 99h152M14 100h152M14 101h152M14 102h152M14 103h152M14 104h152M14 105h152M14 106h152M14 107h152M14 108h152M14 109h152M14 110h152M14 111h152M14 112h152M15 113h150M16 114h148M17 115h146M18 116h144" />
<path stroke="#9eadb6" d="M7 19h1M172 19h1M7 20h1M172 20h1M7 26h1M172 26h1M7 27h1M172 27h1M7 33h1M172 33h1M7 34h1M172 34h1M7 42h1M172 42h1M7 43h1M172 43h1M7 51h1M172 51h1M7 52h1M172 52h1M7 71h1M172 71h1M7 72h1M172 72h1M7 80h1M172 80h1M7 81h1M172 81h1M7 89h1M172 89h1M7 90h1M172 90h1M7 97h1M172 97h1M7 98h1M172 98h1M7 104h1M172 104h1M7 105h1M172 105h1M7 111h1M172 111h1M7 112h1M172 112h1" />
<path stroke="#737e84" d="M8 19h1M171 19h1M8 20h1M171 20h1M8 26h1M171 26h1M8 27h1M171 27h1M8 33h1M171 33h1M8 34h1M171 34h1M8 42h1M171 42h1M8 43h1M171 43h1M8 51h1M171 51h1M8 52h1M171 52h1M8 71h1M171 71h1M8 72h1M171 72h1M8 80h1M171 80h1M8 81h1M171 81h1M8 89h1M171 89h1M8 90h1M171 90h1M8 97h1M171 97h1M8 98h1M171 98h1M8 104h1M171 104h1M8 105h1M171 105h1M8 111h1M171 111h1M8 112h1M171 112h1" />
</svg>