<svg xmlns="http://www.w3.org/2000/svg" viewBox="0 -0.5 37 50" shape-rendering="crispEdges">
<metadata>Made with Pixels to Svg https://codepen.io/shshaw/pen/XbxvNj</metadata>
<path stroke="#85826e" d="M15 10h14M15 11h14M9 12h6M9 13h6M9 14h4M9 15h4M11 16h2M11 17h2M3 18h4M11 18h2M3 19h4M11 19h2M3 20h4M11 20h2M3 21h4M11 21h2M3 22h6M11 22h2M3 23h6M11 23h2M7 24h6M7 25h6M9 26h23M9 27h23M16 28h8" />
<path stroke="#aea78c" d="M15 12h14M15 13h14M13 14h22M13 15h22M13 16h22M13 17h22M15 18h16M33 18h2M15 19h16M33 19h2M13 20h22M13 21h22M13 22h8M27 22h8M13 23h8M27 23h7M13 24h20M13 25h19M29 34h1M29 35h1M29 36h3M29 37h3M29 38h2" />
<path stroke="#76715d" d="M29 12h4M29 13h4M7 38h3M7 39h3M8 40h2" />
</svg>