<svg xmlns="http://www.w3.org/2000/svg" viewBox="0 -0.5 34 52" shape-rendering="crispEdges">
<metadata>Made with Pixels to Svg https://codepen.io/shshaw/pen/XbxvNj</metadata>
<path stroke="#85826e" d="M14 12h14M14 13h14M8 14h6M8 15h6M8 16h4M8 17h4M10 18h2M10 19h2M2 20h4M10 20h2M2 21h4M10 21h2M2 22h4M10 22h2M2 23h4M10 23h2M2 24h6M10 24h2M2 25h6M10 25h2M6 26h6M6 27h6M8 28h23M8 29h23M15 30h8" />
<path stroke="#aea78c" d="M14 14h14M14 15h14M12 16h22M12 17h22M12 18h22M12 19h22M14 20h16M32 20h2M14 21h16M32 21h2M12 22h22M12 23h22M12 24h8M26 24h8M12 25h8M26 25h7M12 26h20M12 27h19M28 36h1M28 37h1M28 38h3M28 39h3M28 40h2" />
<path stroke="#76715d" d="M28 14h4M28 15h4M6 40h3M6 41h3M7 42h2" />
</svg>