<svg xmlns="http://www.w3.org/2000/svg" viewBox="0 -0.5 37 50" shape-rendering="crispEdges">
<metadata>Made with Pixels to Svg https://codepen.io/shshaw/pen/XbxvNj</metadata>
<path stroke="#000000" d="M9 28h4M27 28h3M9 29h5M17 29h5M27 29h3M8 30h7M17 30h5M24 30h5M7 31h9M18 31h4M23 31h6M7 32h3M11 32h6M19 32h2M23 32h6M7 33h2M11 33h6M19 33h2M23 33h6M7 34h2M11 34h6M19 34h2M23 34h6M7 35h2M11 35h6M19 35h2M23 35h6M11 36h6M19 36h2M23 36h6M11 37h6M19 37h2M23 37h6M11 38h6M19 38h2M23 38h6M11 39h6M19 39h2M23 39h6M11 40h7M19 40h2M23 40h6M11 41h7M19 41h1M23 41h6M11 42h7M23 42h6M11 43h7M23 43h6" />
<path stroke="#ffffff" d="M13 28h3M24 28h3M14 29h3M22 29h5M15 30h2M22 30h2M16 31h2M22 31h1M17 32h2M21 32h2M17 33h2M21 33h2M17 34h2M21 34h2M17 35h2M21 35h2M7 36h2M17 36h2M21 36h2M7 37h2M17 37h2M21 37h2M17 38h2M21 38h2M17 39h2M21 39h2M18 40h1M21 40h2M18 41h1M20 41h3M18 42h5M18 43h5" />
</svg>