<svg xmlns="http://www.w3.org/2000/svg" viewBox="0 -0.5 34 52" shape-rendering="crispEdges">
<metadata>Made with Pixels to Svg https://codepen.io/shshaw/pen/XbxvNj</metadata>
<path stroke="#34261a" d="M8 30h4M26 30h3M8 31h5M26 31h3M7 32h7M23 32h5M6 33h9M22 33h6M6 34h3M10 34h6M22 34h6M6 35h2M10 35h6M22 35h6M6 36h2M10 36h6M22 36h6M6 37h2M10 37h6M22 37h6M10 38h6M22 38h6M10 39h6M22 39h6M10 40h6M22 40h6M10 41h6M22 41h6M10 42h7M22 42h6M10 43h7M22 43h6M10 44h7M22 44h6M10 45h7M22 45h6" />
<path stroke="#476269" d="M12 30h3M23 30h3M13 31h3M21 31h5M14 32h2M21 32h2M15 33h2M21 33h1M16 34h2M20 34h2M16 35h2M20 35h2M16 36h2M20 36h2M16 37h2M20 37h2M6 38h2M16 38h2M20 38h2M6 39h2M16 39h2M20 39h2M16 40h2M20 40h2M16 41h2M20 41h2M17 42h1M20 42h2M17 43h1M19 43h3M17 44h5M17 45h5" />
<path stroke="#000000" d="M16 31h5M16 32h5M17 33h4M18 34h2M18 35h2M18 36h2M18 37h2M18 38h2M18 39h2M18 40h2M18 41h2M18 42h2M18 43h1" />
</svg>