<svg xmlns="http://www.w3.org/2000/svg" viewBox="0 -0.5 52 28" shape-rendering="crispEdges">
<metadata>Made with Pixels to Svg https://codepen.io/shshaw/pen/XbxvNj</metadata>
<path stroke="#000000" d="M5 3h42M4 4h1M47 4h1M4 5h1M47 5h1M4 6h1M11 6h4M21 6h4M29 6h10M47 6h1M3 7h2M10 7h1M15 7h1M20 7h1M25 7h1M28 7h1M39 7h1M47 7h2M3 8h2M10 8h1M15 8h4M20 8h1M25 8h1M27 8h2M39 8h2M47 8h2M3 9h2M10 9h1M19 9h2M25 9h2M33 9h2M41 9h1M47 9h2M3 10h2M10 10h1M19 10h2M25 10h2M33 10h2M41 10h1M47 10h2M3 11h2M10 11h1M25 11h2M33 11h2M41 11h1M47 11h2M3 12h2M10 12h1M25 12h2M33 12h2M41 12h1M47 12h2M3 13h2M10 13h1M15 13h2M25 13h2M33 13h2M41 13h1M47 13h2M3 14h2M10 14h1M15 14h2M25 14h2M33 14h2M41 14h1M47 14h2M3 15h2M10 15h1M15 15h1M17 15h4M25 15h1M27 15h2M39 15h2M47 15h2M3 16h2M10 16h1M15 16h1M20 16h1M25 16h1M28 16h1M39 16h1M47 16h2M3 17h2M11 17h4M21 17h4M29 17h10M47 17h2M3 18h2M47 18h2M3 19h2M47 19h2M3 20h2M47 20h2M3 21h1M5 21h42M48 21h1M3 22h1M48 22h1M3 23h2M47 23h2M4 24h44" />
<path stroke="#c3281b" d="M5 4h42M5 5h42M5 6h6M15 6h6M25 6h4M39 6h8M5 7h5M16 7h4M26 7h2M40 7h7M5 8h5M19 8h1M26 8h1M41 8h6M5 9h5M42 9h5M5 10h5M42 10h5M5 11h5M42 11h5M5 12h5M42 12h5M5 13h5M42 13h5M5 14h5M42 14h5M5 15h5M16 15h1M26 15h1M41 15h6M5 16h5M16 16h4M26 16h2M40 16h7M5 17h6M15 17h6M25 17h4M39 17h8M5 18h42M5 19h42M5 20h42" />
<path stroke="#4f4f4f" d="M3 5h1M48 5h1M3 6h1M48 6h1M2 7h1M49 7h1M2 8h1M49 8h1M2 9h1M49 9h1M2 10h1M49 10h1M2 11h1M49 11h1M2 12h1M49 12h1M2 13h1M49 13h1M2 14h1M49 14h1M2 15h1M49 15h1M2 16h1M49 16h1M2 17h1M49 17h1M2 18h1M49 18h1M2 19h1M49 19h1M2 20h1M49 20h1M2 21h1M4 21h1M47 21h1M49 21h1M2 22h1M4 22h44M49 22h1M2 23h1M5 23h42M49 23h1M3 24h1M48 24h1M4 25h44" />
<path stroke="#d4d4d4" d="M11 7h4M21 7h4M29 7h10M11 8h4M21 8h4M29 8h10M11 9h8M21 9h4M27 9h6M35 9h6M11 10h8M21 10h4M27 10h6M35 10h6M11 11h14M27 11h6M35 11h6M11 12h14M27 12h6M35 12h6M11 13h4M17 13h8M27 13h6M35 13h6M11 14h4M17 14h8M27 14h6M35 14h6M11 15h4M21 15h4M29 15h10M11 16h4M21 16h4M29 16h10" />
</svg>