<svg xmlns="http://www.w3.org/2000/svg" viewBox="0 -0.5 52 28" shape-rendering="crispEdges">
<metadata>Made with Pixels to Svg https://codepen.io/shshaw/pen/XbxvNj</metadata>
<path stroke="#000000" d="M5 6h42M3 7h2M47 7h2M3 8h2M47 8h2M3 9h2M11 9h4M21 9h4M29 9h10M47 9h2M3 10h2M10 10h1M15 10h1M20 10h1M25 10h1M28 10h1M39 10h1M47 10h2M3 11h2M10 11h1M15 11h4M20 11h1M25 11h1M27 11h2M39 11h2M47 11h2M3 12h2M10 12h1M19 12h2M25 12h2M33 12h2M41 12h1M47 12h2M3 13h2M10 13h1M19 13h2M25 13h2M33 13h2M41 13h1M47 13h2M3 14h2M10 14h1M25 14h2M33 14h2M41 14h1M47 14h2M3 15h2M10 15h1M25 15h2M33 15h2M41 15h1M47 15h2M3 16h2M10 16h1M15 16h2M25 16h2M33 16h2M41 16h1M47 16h2M3 17h2M10 17h1M15 17h2M25 17h2M33 17h2M41 17h1M47 17h2M3 18h2M10 18h1M15 18h1M17 18h4M25 18h1M27 18h2M39 18h2M47 18h2M3 19h2M10 19h1M15 19h1M20 19h1M25 19h1M28 19h1M39 19h1M47 19h2M3 20h2M11 20h4M21 20h4M29 20h10M47 20h2M3 21h2M47 21h2M3 22h2M47 22h2M3 23h2M47 23h2M5 24h42" />
<path stroke="#c3281b" d="M5 7h42M5 8h42M5 9h6M15 9h6M25 9h4M39 9h8M5 10h5M16 10h4M26 10h2M40 10h7M5 11h5M19 11h1M26 11h1M41 11h6M5 12h5M42 12h5M5 13h5M42 13h5M5 14h5M42 14h5M5 15h5M42 15h5M5 16h5M42 16h5M5 17h5M42 17h5M5 18h5M16 18h1M26 18h1M41 18h6M5 19h5M16 19h4M26 19h2M40 19h7M5 20h6M15 20h6M25 20h4M39 20h8M5 21h42M5 22h42M5 23h42" />
<path stroke="#4f4f4f" d="M2 9h1M49 9h1M2 10h1M49 10h1M2 11h1M49 11h1M2 12h1M49 12h1M2 13h1M49 13h1M2 14h1M49 14h1M2 15h1M49 15h1M2 16h1M49 16h1M2 17h1M49 17h1M2 18h1M49 18h1M2 19h1M49 19h1M2 20h1M49 20h1M2 21h1M49 21h1M2 22h1M49 22h1M2 23h1M49 23h1M3 24h2M47 24h2M4 25h44" />
<path stroke="#d4d4d4" d="M11 10h4M21 10h4M29 10h10M11 11h4M21 11h4M29 11h10M11 12h8M21 12h4M27 12h6M35 12h6M11 13h8M21 13h4M27 13h6M35 13h6M11 14h14M27 14h6M35 14h6M11 15h14M27 15h6M35 15h6M11 16h4M17 16h8M27 16h6M35 16h6M11 17h4M17 17h8M27 17h6M35 17h6M11 18h4M21 18h4M29 18h10M11 19h4M21 19h4M29 19h10" />
</svg>