<svg xmlns="http://www.w3.org/2000/svg" viewBox="0 -0.5 52 28" shape-rendering="crispEdges">
<metadata>Made with Pixels to Svg https://codepen.io/shshaw/pen/XbxvNj</metadata>
<path stroke="#000000" d="M5 5h42M3 6h2M47 6h2M3 7h2M47 7h2M3 8h2M9 8h3M17 8h3M21 8h10M33 8h8M47 8h2M3 9h2M8 9h1M12 9h1M16 9h1M20 9h1M31 9h2M41 9h1M47 9h2M3 10h2M8 10h1M12 10h5M20 10h1M31 10h2M41 10h1M47 10h2M3 11h2M8 11h1M13 11h2M20 11h1M25 11h7M36 11h5M47 11h2M3 12h2M8 12h1M13 12h2M20 12h1M25 12h4M31 12h1M36 12h4M47 12h2M3 13h2M9 13h2M19 13h2M29 13h1M32 13h1M40 13h1M47 13h2M3 14h2M10 14h1M19 14h2M29 14h1M32 14h1M40 14h1M47 14h2M3 15h2M11 15h1M17 15h2M20 15h1M25 15h4M33 15h4M41 15h1M47 15h2M3 16h2M11 16h1M17 16h1M20 16h1M25 16h6M32 16h5M41 16h1M47 16h2M3 17h2M11 17h1M17 17h1M20 17h1M31 17h1M40 17h1M47 17h2M3 18h2M11 18h1M17 18h1M20 18h1M31 18h1M40 18h1M47 18h2M3 19h2M11 19h7M21 19h10M32 19h8M47 19h2M3 20h2M47 20h2M3 21h2M47 21h2M3 22h2M47 22h2M5 23h42" />
<path stroke="#61cf48" d="M5 6h42M5 7h42M5 8h4M12 8h5M20 8h1M31 8h2M41 8h6M5 9h3M13 9h3M42 9h5M5 10h3M42 10h5M5 11h3M41 11h6M5 12h3M29 12h2M40 12h7M5 13h4M30 13h2M41 13h6M5 14h5M30 14h2M41 14h6M5 15h6M19 15h1M29 15h4M42 15h5M5 16h6M18 16h2M31 16h1M42 16h5M5 17h6M18 17h2M41 17h6M5 18h6M18 18h2M41 18h6M5 19h6M18 19h3M31 19h1M40 19h7M5 20h42M5 21h42M5 22h42" />
<path stroke="#4f4f4f" d="M2 8h1M49 8h1M2 9h1M49 9h1M2 10h1M49 10h1M2 11h1M49 11h1M2 12h1M49 12h1M2 13h1M49 13h1M2 14h1M49 14h1M2 15h1M49 15h1M2 16h1M49 16h1M2 17h1M49 17h1M2 18h1M49 18h1M2 19h1M49 19h1M2 20h1M49 20h1M2 21h1M49 21h1M2 22h1M49 22h1M3 23h2M47 23h2M4 24h44" />
<path stroke="#d4d4d4" d="M9 9h3M17 9h3M21 9h10M33 9h8M9 10h3M17 10h3M21 10h10M33 10h8M9 11h4M15 11h5M21 11h4M32 11h4M9 12h4M15 12h5M21 12h4M32 12h4M11 13h8M21 13h8M33 13h7M11 14h8M21 14h8M33 14h7M12 15h5M21 15h4M37 15h4M12 16h5M21 16h4M37 16h4M12 17h5M21 17h10M32 17h8M12 18h5M21 18h10M32 18h8" />
</svg>