<svg xmlns="http://www.w3.org/2000/svg" viewBox="0 -0.5 52 28" shape-rendering="crispEdges">
<metadata>Made with Pixels to Svg https://codepen.io/shshaw/pen/XbxvNj</metadata>
<path stroke="#000000" d="M5 2h42M4 3h1M47 3h1M4 4h1M47 4h1M4 5h1M9 5h3M17 5h3M21 5h10M33 5h8M47 5h1M3 6h2M8 6h1M12 6h1M16 6h1M20 6h1M31 6h2M41 6h1M47 6h2M3 7h2M8 7h1M12 7h5M20 7h1M31 7h2M41 7h1M47 7h2M3 8h2M8 8h1M13 8h2M20 8h1M25 8h7M36 8h5M47 8h2M3 9h2M8 9h1M13 9h2M20 9h1M25 9h4M31 9h1M36 9h4M47 9h2M3 10h2M9 10h2M19 10h2M29 10h1M32 10h1M40 10h1M47 10h2M3 11h2M10 11h1M19 11h2M29 11h1M32 11h1M40 11h1M47 11h2M3 12h2M11 12h1M17 12h2M20 12h1M25 12h4M33 12h4M41 12h1M47 12h2M3 13h2M11 13h1M17 13h1M20 13h1M25 13h6M32 13h5M41 13h1M47 13h2M3 14h2M11 14h1M17 14h1M20 14h1M31 14h1M40 14h1M47 14h2M3 15h2M11 15h1M17 15h1M20 15h1M31 15h1M40 15h1M47 15h2M3 16h2M11 16h7M21 16h10M32 16h8M47 16h2M3 17h2M47 17h2M3 18h2M47 18h2M3 19h2M47 19h2M3 20h1M5 20h42M48 20h1M3 21h1M48 21h1M3 22h2M47 22h2M4 23h44" />
<path stroke="#61cf48" d="M5 3h42M5 4h42M5 5h4M12 5h5M20 5h1M31 5h2M41 5h6M5 6h3M13 6h3M42 6h5M5 7h3M42 7h5M5 8h3M41 8h6M5 9h3M29 9h2M40 9h7M5 10h4M30 10h2M41 10h6M5 11h5M30 11h2M41 11h6M5 12h6M19 12h1M29 12h4M42 12h5M5 13h6M18 13h2M31 13h1M42 13h5M5 14h6M18 14h2M41 14h6M5 15h6M18 15h2M41 15h6M5 16h6M18 16h3M31 16h1M40 16h7M5 17h42M5 18h42M5 19h42" />
<path stroke="#4f4f4f" d="M3 4h1M48 4h1M3 5h1M48 5h1M2 6h1M49 6h1M2 7h1M49 7h1M2 8h1M49 8h1M2 9h1M49 9h1M2 10h1M49 10h1M2 11h1M49 11h1M2 12h1M49 12h1M2 13h1M49 13h1M2 14h1M49 14h1M2 15h1M49 15h1M2 16h1M49 16h1M2 17h1M49 17h1M2 18h1M49 18h1M2 19h1M49 19h1M2 20h1M4 20h1M47 20h1M49 20h1M2 21h1M4 21h44M49 21h1M2 22h1M5 22h42M49 22h1M3 23h1M48 23h1M4 24h44" />
<path stroke="#d4d4d4" d="M9 6h3M17 6h3M21 6h10M33 6h8M9 7h3M17 7h3M21 7h10M33 7h8M9 8h4M15 8h5M21 8h4M32 8h4M9 9h4M15 9h5M21 9h4M32 9h4M11 10h8M21 10h8M33 10h7M11 11h8M21 11h8M33 11h7M12 12h5M21 12h4M37 12h4M12 13h5M21 13h4M37 13h4M12 14h5M21 14h10M32 14h8M12 15h5M21 15h10M32 15h8" />
</svg>