<svg xmlns="http://www.w3.org/2000/svg" viewBox="0 -0.5 174 129" shape-rendering="crispEdges">
<metadata>Made with Pixels to Svg https://codepen.io/shshaw/pen/XbxvNj</metadata>
<path stroke="#ffffff" d="M24 27h13M23 28h1M34 28h3M22 29h2M34 29h50M90 29h59M21 30h1M28 30h12M50 30h4M58 30h6M68 30h2M84 30h1M90 30h1M101 30h4M111 30h2M119 30h2M135 30h2M149 30h1M21 31h1M28 31h12M50 31h4M58 31h6M68 31h2M84 31h1M88 31h3M101 31h4M111 31h2M119 31h2M135 31h2M149 31h2M21 32h1M28 32h2M36 32h2M44 32h2M52 32h2M60 32h2M68 32h2M76 32h9M88 32h1M95 32h2M103 32h2M111 32h2M119 32h2M127 32h10M143 32h2M151 32h1M21 33h1M28 33h2M36 33h2M44 33h2M52 33h2M60 33h2M68 33h2M76 33h9M88 33h1M95 33h2M103 33h2M111 33h2M119 33h2M127 33h10M143 33h2M151 33h1M21 34h1M28 34h4M36 34h2M44 34h2M52 34h2M68 34h2M82 34h2M88 34h1M95 34h2M103 34h2M111 34h2M119 34h2M133 34h4M143 34h2M151 34h1M21 35h1M28 35h4M36 35h2M44 35h2M52 35h2M68 35h2M82 35h2M88 35h1M95 35h2M103 35h2M111 35h2M119 35h2M133 35h4M143 35h2M151 35h1M22 36h2M34 36h4M52 36h2M58 36h2M62 36h2M68 36h2M76 36h9M88 36h1M95 36h2M103 36h4M117 36h4M127 36h10M149 36h2M23 37h1M34 37h4M52 37h2M58 37h2M62 37h2M68 37h2M76 37h9M88 37h1M95 37h2M103 37h4M117 37h4M127 37h10M149 37h2M24 38h14M44 38h2M52 38h2M58 38h6M68 38h2M84 38h1M88 38h3M101 38h8M115 38h6M135 38h2M143 38h2M151 38h1M37 39h1M44 39h2M52 39h2M58 39h6M68 39h2M84 39h1M90 39h1M101 39h8M115 39h6M135 39h2M143 39h2M151 39h1M37 40h47M90 40h61" />
<path stroke="#000000" d="M24 28h10M24 29h10M22 30h6M40 30h10M54 30h4M64 30h4M70 30h14M91 30h10M105 30h6M113 30h6M121 30h14M137 30h12M22 31h6M40 31h10M54 31h4M64 31h4M70 31h14M91 31h10M105 31h6M113 31h6M121 31h14M137 31h12M22 32h6M30 32h6M38 32h6M46 32h6M54 32h6M62 32h6M70 32h6M89 32h6M97 32h6M105 32h6M113 32h6M121 32h6M137 32h6M145 32h6M22 33h6M30 33h6M38 33h6M46 33h6M54 33h6M62 33h6M70 33h6M89 33h6M97 33h6M105 33h6M113 33h6M121 33h6M137 33h6M145 33h6M22 34h6M32 34h4M38 34h6M46 34h6M54 34h14M70 34h12M89 34h6M97 34h6M105 34h6M113 34h6M121 34h12M137 34h6M145 34h6M22 35h6M32 35h4M38 35h6M46 35h6M54 35h14M70 35h12M89 35h6M97 35h6M105 35h6M113 35h6M121 35h12M137 35h6M145 35h6M24 36h10M38 36h14M54 36h4M60 36h2M64 36h4M70 36h6M89 36h6M97 36h6M107 36h10M121 36h6M137 36h12M24 37h10M38 37h14M54 37h4M60 37h2M64 37h4M70 37h6M89 37h6M97 37h6M107 37h10M121 37h6M137 37h12M38 38h6M46 38h6M54 38h4M64 38h4M70 38h14M91 38h10M109 38h6M121 38h14M137 38h6M145 38h6M38 39h6M46 39h6M54 39h4M64 39h4M70 39h14M91 39h10M109 39h6M121 39h14M137 39h6M145 39h6" />
<path stroke="#474747" d="M21 36h1M21 37h2M21 38h3M22 39h15M88 39h2M23 40h14M84 40h1M88 40h2M151 40h1M24 41h61M88 41h64M37 42h48M89 42h63M37 43h47M90 43h61" />
</svg>