<svg xmlns="http://www.w3.org/2000/svg" viewBox="0 -0.5 174 129" shape-rendering="crispEdges">
<metadata>Made with Pixels to Svg https://codepen.io/shshaw/pen/XbxvNj</metadata>
<path stroke="#ffffff" d="M90 26h14M90 27h1M101 27h19M69 28h15M88 28h3M101 28h4M111 28h2M119 28h1M24 29h46M84 29h1M88 29h1M95 29h2M103 29h2M111 29h2M119 29h30M23 30h1M34 30h6M50 30h4M58 30h6M68 30h2M84 30h1M88 30h1M95 30h2M103 30h2M111 30h2M119 30h2M135 30h2M149 30h1M22 31h2M34 31h6M50 31h4M58 31h6M68 31h2M76 31h9M88 31h1M95 31h2M103 31h2M111 31h2M119 31h2M135 31h2M149 31h2M21 32h1M28 32h10M44 32h2M52 32h2M60 32h2M68 32h2M76 32h9M88 32h1M95 32h2M103 32h2M111 32h2M119 32h2M127 32h10M143 32h2M151 32h1M21 33h1M28 33h10M44 33h2M52 33h2M60 33h2M68 33h2M82 33h2M88 33h1M95 33h2M103 33h2M111 33h2M119 33h2M127 33h10M143 33h2M151 33h1M21 34h1M28 34h2M36 34h2M44 34h2M52 34h2M68 34h2M82 34h2M88 34h1M95 34h2M103 34h4M117 34h4M133 34h4M143 34h2M151 34h1M21 35h1M28 35h2M36 35h2M44 35h2M52 35h2M68 35h2M76 35h9M88 35h3M101 35h6M117 35h4M133 35h4M143 35h2M151 35h1M21 36h1M28 36h4M36 36h2M52 36h2M58 36h2M62 36h2M68 36h2M76 36h9M90 36h1M101 36h8M115 36h6M127 36h10M149 36h2M21 37h1M28 37h4M36 37h2M52 37h2M58 37h2M62 37h2M68 37h2M84 37h1M90 37h19M115 37h6M127 37h10M149 37h2M22 38h2M34 38h4M44 38h2M52 38h2M58 38h6M68 38h2M84 38h1M104 38h17M135 38h2M143 38h2M151 38h1M23 39h1M34 39h4M44 39h2M52 39h2M58 39h6M68 39h16M120 39h1M135 39h2M143 39h2M151 39h1M24 40h45M120 40h31" />
<path stroke="#000000" d="M91 27h10M91 28h10M105 28h6M113 28h6M70 29h14M89 29h6M97 29h6M105 29h6M113 29h6M24 30h10M40 30h10M54 30h4M64 30h4M70 30h14M89 30h6M97 30h6M105 30h6M113 30h6M121 30h14M137 30h12M24 31h10M40 31h10M54 31h4M64 31h4M70 31h6M89 31h6M97 31h6M105 31h6M113 31h6M121 31h14M137 31h12M22 32h6M38 32h6M46 32h6M54 32h6M62 32h6M70 32h6M89 32h6M97 32h6M105 32h6M113 32h6M121 32h6M137 32h6M145 32h6M22 33h6M38 33h6M46 33h6M54 33h6M62 33h6M70 33h12M89 33h6M97 33h6M105 33h6M113 33h6M121 33h6M137 33h6M145 33h6M22 34h6M30 34h6M38 34h6M46 34h6M54 34h14M70 34h12M89 34h6M97 34h6M107 34h10M121 34h12M137 34h6M145 34h6M22 35h6M30 35h6M38 35h6M46 35h6M54 35h14M70 35h6M91 35h10M107 35h10M121 35h12M137 35h6M145 35h6M22 36h6M32 36h4M38 36h14M54 36h4M60 36h2M64 36h4M70 36h6M91 36h10M109 36h6M121 36h6M137 36h12M22 37h6M32 37h4M38 37h14M54 37h4M60 37h2M64 37h4M70 37h14M109 37h6M121 37h6M137 37h12M24 38h10M38 38h6M46 38h6M54 38h4M64 38h4M70 38h14M121 38h14M137 38h6M145 38h6M24 39h10M38 39h6M46 39h6M54 39h4M64 39h4M121 39h14M137 39h6M145 39h6" />
<path stroke="#474747" d="M88 36h2M88 37h2M21 38h1M88 38h16M21 39h2M84 39h1M89 39h31M21 40h3M69 40h16M90 40h30M151 40h1M22 41h63M104 41h48M23 42h61M120 42h32M24 43h45M120 43h31" />
</svg>