<svg xmlns="http://www.w3.org/2000/svg" viewBox="0 -0.5 174 129" shape-rendering="crispEdges">
<metadata>Made with Pixels to Svg https://codepen.io/shshaw/pen/XbxvNj</metadata>
<path stroke="#ffffff" d="M69 26h15M53 27h17M84 27h1M53 28h1M58 28h6M68 28h2M84 28h1M90 28h14M24 29h30M58 29h6M68 29h2M76 29h9M90 29h1M101 29h48M23 30h1M34 30h6M50 30h4M60 30h2M68 30h2M76 30h9M88 30h3M101 30h4M111 30h2M119 30h2M135 30h2M149 30h1M22 31h2M34 31h6M50 31h4M60 31h2M68 31h2M82 31h2M88 31h1M95 31h2M103 31h2M111 31h2M119 31h2M135 31h2M149 31h2M21 32h1M28 32h10M44 32h2M52 32h2M68 32h2M82 32h2M88 32h1M95 32h2M103 32h2M111 32h2M119 32h2M127 32h10M143 32h2M151 32h1M21 33h1M28 33h10M44 33h2M52 33h2M68 33h2M76 33h9M88 33h1M95 33h2M103 33h2M111 33h2M119 33h2M127 33h10M143 33h2M151 33h1M21 34h1M28 34h2M36 34h2M44 34h2M52 34h2M58 34h2M62 34h2M68 34h2M76 34h9M88 34h1M95 34h2M103 34h2M111 34h2M119 34h2M133 34h4M143 34h2M151 34h1M21 35h1M28 35h2M36 35h2M44 35h2M52 35h2M58 35h2M62 35h2M68 35h2M84 35h1M88 35h1M95 35h2M103 35h2M111 35h2M119 35h2M133 35h4M143 35h2M151 35h1M21 36h1M28 36h4M36 36h2M52 36h2M58 36h6M68 36h2M84 36h1M88 36h1M95 36h2M103 36h4M117 36h4M127 36h10M149 36h2M21 37h1M28 37h4M36 37h2M52 37h2M58 37h6M68 37h16M88 37h3M101 37h6M117 37h4M127 37h10M149 37h2M22 38h2M34 38h4M44 38h2M52 38h17M90 38h1M101 38h8M115 38h6M135 38h2M143 38h2M151 38h1M23 39h1M34 39h4M44 39h2M52 39h1M90 39h19M115 39h6M135 39h2M143 39h2M151 39h1M24 40h29M104 40h47" />
<path stroke="#000000" d="M70 27h14M54 28h4M64 28h4M70 28h14M54 29h4M64 29h4M70 29h6M91 29h10M24 30h10M40 30h10M54 30h6M62 30h6M70 30h6M91 30h10M105 30h6M113 30h6M121 30h14M137 30h12M24 31h10M40 31h10M54 31h6M62 31h6M70 31h12M89 31h6M97 31h6M105 31h6M113 31h6M121 31h14M137 31h12M22 32h6M38 32h6M46 32h6M54 32h14M70 32h12M89 32h6M97 32h6M105 32h6M113 32h6M121 32h6M137 32h6M145 32h6M22 33h6M38 33h6M46 33h6M54 33h14M70 33h6M89 33h6M97 33h6M105 33h6M113 33h6M121 33h6M137 33h6M145 33h6M22 34h6M30 34h6M38 34h6M46 34h6M54 34h4M60 34h2M64 34h4M70 34h6M89 34h6M97 34h6M105 34h6M113 34h6M121 34h12M137 34h6M145 34h6M22 35h6M30 35h6M38 35h6M46 35h6M54 35h4M60 35h2M64 35h4M70 35h14M89 35h6M97 35h6M105 35h6M113 35h6M121 35h12M137 35h6M145 35h6M22 36h6M32 36h4M38 36h14M54 36h4M64 36h4M70 36h14M89 36h6M97 36h6M107 36h10M121 36h6M137 36h12M22 37h6M32 37h4M38 37h14M54 37h4M64 37h4M91 37h10M107 37h10M121 37h6M137 37h12M24 38h10M38 38h6M46 38h6M91 38h10M109 38h6M121 38h14M137 38h6M145 38h6M24 39h10M38 39h6M46 39h6M109 39h6M121 39h14M137 39h6M145 39h6" />
<path stroke="#474747" d="M84 37h1M21 38h1M69 38h16M88 38h2M21 39h2M53 39h32M88 39h2M21 40h3M53 40h31M88 40h16M151 40h1M22 41h47M89 41h63M23 42h30M90 42h62M24 43h29M104 43h47" />
</svg>