<svg xmlns="http://www.w3.org/2000/svg" viewBox="0 -0.5 174 129" shape-rendering="crispEdges">
<metadata>Made with Pixels to Svg https://codepen.io/shshaw/pen/XbxvNj</metadata>
<path stroke="#ffffff" d="M136 26h13M120 27h17M149 27h1M120 28h1M135 28h2M149 28h2M24 29h60M90 29h31M135 29h2M143 29h2M151 29h1M23 30h1M34 30h6M50 30h4M58 30h6M68 30h2M84 30h1M90 30h1M101 30h4M111 30h2M119 30h2M127 30h10M143 30h2M151 30h1M22 31h2M34 31h6M50 31h4M58 31h6M68 31h2M84 31h1M88 31h3M101 31h4M111 31h2M119 31h2M127 31h10M143 31h2M151 31h1M21 32h1M28 32h10M44 32h2M52 32h2M60 32h2M68 32h2M76 32h9M88 32h1M95 32h2M103 32h2M111 32h2M119 32h2M133 32h4M143 32h2M151 32h1M21 33h1M28 33h10M44 33h2M52 33h2M60 33h2M68 33h2M76 33h9M88 33h1M95 33h2M103 33h2M111 33h2M119 33h2M133 33h4M149 33h2M21 34h1M28 34h2M36 34h2M44 34h2M52 34h2M68 34h2M82 34h2M88 34h1M95 34h2M103 34h2M111 34h2M119 34h2M127 34h10M149 34h2M21 35h1M28 35h2M36 35h2M44 35h2M52 35h2M68 35h2M82 35h2M88 35h1M95 35h2M103 35h2M111 35h2M119 35h2M127 35h10M143 35h2M151 35h1M21 36h1M28 36h4M36 36h2M52 36h2M58 36h2M62 36h2M68 36h2M76 36h9M88 36h1M95 36h2M103 36h4M117 36h4M135 36h2M143 36h2M151 36h1M21 37h1M28 37h4M36 37h2M52 37h2M58 37h2M62 37h2M68 37h2M76 37h9M88 37h1M95 37h2M103 37h4M117 37h4M135 37h16M22 38h2M34 38h4M44 38h2M52 38h2M58 38h6M68 38h2M84 38h1M88 38h3M101 38h8M115 38h21M23 39h1M34 39h4M44 39h2M52 39h2M58 39h6M68 39h2M84 39h1M90 39h1M101 39h8M115 39h5M24 40h60M90 40h30" />
<path stroke="#000000" d="M137 27h12M121 28h14M137 28h12M121 29h14M137 29h6M145 29h6M24 30h10M40 30h10M54 30h4M64 30h4M70 30h14M91 30h10M105 30h6M113 30h6M121 30h6M137 30h6M145 30h6M24 31h10M40 31h10M54 31h4M64 31h4M70 31h14M91 31h10M105 31h6M113 31h6M121 31h6M137 31h6M145 31h6M22 32h6M38 32h6M46 32h6M54 32h6M62 32h6M70 32h6M89 32h6M97 32h6M105 32h6M113 32h6M121 32h12M137 32h6M145 32h6M22 33h6M38 33h6M46 33h6M54 33h6M62 33h6M70 33h6M89 33h6M97 33h6M105 33h6M113 33h6M121 33h12M137 33h12M22 34h6M30 34h6M38 34h6M46 34h6M54 34h14M70 34h12M89 34h6M97 34h6M105 34h6M113 34h6M121 34h6M137 34h12M22 35h6M30 35h6M38 35h6M46 35h6M54 35h14M70 35h12M89 35h6M97 35h6M105 35h6M113 35h6M121 35h6M137 35h6M145 35h6M22 36h6M32 36h4M38 36h14M54 36h4M60 36h2M64 36h4M70 36h6M89 36h6M97 36h6M107 36h10M121 36h14M137 36h6M145 36h6M22 37h6M32 37h4M38 37h14M54 37h4M60 37h2M64 37h4M70 37h6M89 37h6M97 37h6M107 37h10M121 37h14M24 38h10M38 38h6M46 38h6M54 38h4M64 38h4M70 38h14M91 38h10M109 38h6M24 39h10M38 39h6M46 39h6M54 39h4M64 39h4M70 39h14M91 39h10M109 39h6" />
<path stroke="#474747" d="M151 37h1M21 38h1M136 38h16M21 39h2M88 39h2M120 39h32M21 40h3M84 40h1M88 40h2M120 40h31M22 41h63M88 41h48M23 42h62M89 42h31M24 43h60M90 43h30" />
</svg>