<svg xmlns="http://www.w3.org/2000/svg" viewBox="0 -0.5 49 55" shape-rendering="crispEdges">
<metadata>Made with Pixels to Svg https://codepen.io/shshaw/pen/XbxvNj</metadata>
<path stroke="#293452" d="M20 3h16M18 4h2M36 4h2M17 5h1M38 5h2M16 6h1M40 6h1M14 7h2M41 7h1M13 8h1M41 8h1M12 9h1M42 9h1M11 10h1M18 10h3M43 10h1M10 11h8M21 11h8M44 11h1M2 12h9M29 12h3M44 12h1M1 13h1M18 13h15M44 13h1M2 14h3M14 14h4M32 14h6M45 14h1M5 15h7M13 15h1M38 15h8M12 16h2M19 36h5M25 36h1M19 37h5M19 38h5M20 39h3M25 39h1M25 42h1M25 45h1" />
<path stroke="#3b4c77" d="M20 4h16M18 5h20M17 6h23M16 7h25M14 8h27M13 9h29M12 10h6M21 10h22M18 11h3M29 11h15M11 12h18M32 12h12M2 13h16M33 13h11M5 14h9M38 14h7M12 15h1M17 31h3M34 31h4M17 32h3M33 32h5M18 33h5M32 33h7M18 34h3M22 34h2M29 34h11M18 35h2M23 35h13M37 35h3M18 36h1M24 36h1M26 36h10M18 37h1M24 37h12M18 38h1M24 38h12M18 39h2M23 39h2M26 39h10M18 40h18M18 41h18M18 42h7M26 42h10M18 43h18M18 44h18M18 45h7M26 45h10M18 46h18M18 49h18M18 50h18" />
<path stroke="#85826e" d="M18 14h14M32 15h6M32 16h6M34 17h4M34 18h4M35 19h1M34 20h1M34 21h2M40 21h4M34 22h2M40 22h4M34 23h2M40 23h4M34 24h2M40 24h4M34 25h2M38 25h6M34 26h2M38 26h6M34 27h6M34 28h6M15 29h23M15 30h23M23 31h8" />
<path stroke="#76715d" d="M14 15h4M14 16h4M38 36h2M38 37h2M38 38h2M38 39h2M38 40h2M37 41h3M37 42h3M37 43h2" />
<path stroke="#aea78c" d="M18 15h14M18 16h14M12 17h22M12 18h2M16 18h15M33 18h1M14 19h19M13 20h21M12 21h2M16 21h16M12 22h2M16 22h16M12 23h7M22 23h1M26 23h8M12 24h6M22 24h1M27 24h7M12 25h5M18 25h9M28 25h6M13 26h7M25 26h9M14 27h20M15 28h19M17 37h1M17 38h1M15 39h3M15 40h3M16 41h2" />
<path stroke="#34261a" d="M38 16h8M38 17h8M14 18h2M31 18h2M38 18h8M12 19h2M33 19h2M36 19h10M12 20h1M35 20h11M36 21h4M44 21h2M36 22h4M44 22h2M19 23h3M23 23h3M36 23h4M44 23h2M18 24h4M23 24h4M36 24h4M44 24h2M17 25h1M27 25h1M36 25h2M44 25h2M36 26h2M44 26h1M40 27h4M40 28h3M38 29h2M38 30h1" />
<path stroke="#000000" d="M14 21h2M32 21h2M14 22h2M32 22h2M20 26h5M20 31h3M31 31h3M20 32h13M23 33h9M24 34h5M18 47h6M28 47h8M18 48h6M28 48h8" />
<path stroke="#8a8a8a" d="M21 34h1M20 35h3" />
<path stroke="#696a6a" d="M24 47h4M24 48h4" />
<path stroke="#262626" d="M18 51h4M32 51h4M18 52h4M32 52h4" />
</svg>