<svg xmlns="http://www.w3.org/2000/svg" viewBox="0 -0.5 45 56" shape-rendering="crispEdges">
<metadata>Made with Pixels to Svg https://codepen.io/shshaw/pen/XbxvNj</metadata>
<path stroke="#8c7c49" d="M7 2h3M15 2h2M22 2h2M6 3h1M8 3h3M14 3h1M16 3h2M21 3h1M23 3h2M30 3h2M5 4h3M10 4h2M13 4h2M16 4h3M20 4h1M22 4h4M29 4h1M31 4h2M3 5h6M10 5h4M16 5h4M22 5h6M30 5h3M2 6h8M11 6h3M15 6h4M20 6h7M30 6h5M37 6h2M5 7h8M14 7h4M19 7h6M27 7h9M37 7h2M3 8h2M8 8h5M14 8h4M19 8h5M25 8h9M36 8h3M4 9h1M10 9h3M15 9h3M20 9h4M25 9h7M34 9h4M5 10h4M10 10h3M15 10h3M20 10h4M26 10h4M32 10h6M6 11h3M11 11h2M15 11h5M21 11h3M26 11h4M32 11h6M39 11h3M6 12h3M11 12h4M16 12h4M21 12h5M27 12h3M32 12h10M6 13h3M27 13h3M31 13h2M39 13h3M6 14h3M27 14h3M31 14h2M36 14h5M6 15h1M34 15h6M6 16h1M35 16h5M36 17h5M38 18h4M37 19h1M40 19h3M39 20h1M41 20h2M39 21h3M39 22h2M39 23h1M39 24h1M39 25h2M39 26h3M40 27h2M39 28h2" />
<path stroke="#9b8a51" d="M7 3h1M15 3h1M22 3h1M8 4h1M15 4h1M21 4h1M30 4h1M9 5h1M14 5h1M20 5h1M28 5h2M10 6h1M14 6h1M19 6h1M27 6h1M3 7h2M13 7h1M18 7h1M25 7h2M36 7h1M5 8h3M13 8h1M18 8h1M24 8h1M34 8h2M8 9h2M14 9h1M19 9h1M24 9h1M32 9h2M9 10h1M14 10h1M19 10h1M25 10h1M31 10h1M10 11h1M14 11h1M20 11h1M25 11h1M31 11h1M10 12h1M15 12h1M20 12h1M26 12h1M31 12h1M10 13h1M15 13h1M21 13h1M26 13h1M30 13h1M36 13h3M11 14h1M30 14h1M33 14h3M11 15h1M30 15h1M33 15h1M33 16h1M32 17h1M32 18h1M37 18h1M35 19h2M38 19h2M34 20h1M40 20h1M33 21h1M38 26h1M39 27h1M35 28h1M36 29h1" />
<path stroke="#7f7143" d="M9 4h1M15 5h1M21 5h1M28 6h2M5 9h3M13 9h1M18 9h1M13 10h1M18 10h1M24 10h1M30 10h1M9 11h1M13 11h1M24 11h1M30 11h1M9 12h1M30 12h1M9 13h1M11 13h4M16 13h5M22 13h4M33 13h3M9 14h2M26 14h1M7 15h4M26 15h4M31 15h2M7 16h1M32 16h1M34 16h1M6 17h2M33 17h3M33 18h4M32 19h3M30 20h4M35 20h4M30 21h3M34 21h5M30 22h4M38 22h1M30 23h4M38 23h1M30 24h4M38 24h1M30 25h4M38 25h1M30 26h2M30 27h2M38 27h1M34 28h1M36 28h3M34 29h2M37 29h2M32 30h5M32 31h1M34 31h4M35 32h3" />
<path stroke="#a1997a" d="M12 14h14M12 15h14M8 16h4M26 16h6M8 17h4M26 17h6M28 18h4M28 19h4M28 20h2M28 21h2M28 22h2M34 22h4M28 23h2M34 23h4M28 24h2M34 24h4M28 25h2M34 25h4M28 26h2M32 26h6M28 27h2M32 27h6M28 28h6M28 29h6M9 30h23M9 31h23M17 32h8M31 42h3M31 43h3M31 44h2" />
<path stroke="#aea78c" d="M12 16h14M12 17h14M6 18h22M6 19h22M6 20h22M6 21h22M6 22h2M10 22h16M6 23h2M10 23h16M6 24h22M6 25h22M6 26h8M20 26h8M7 27h7M20 27h8M8 28h20M9 29h19M11 39h1M9 40h3M9 41h3M10 42h2" />
<path stroke="#000000" d="M8 22h2M26 22h2M8 23h2M26 23h2M12 48h6M22 48h8M12 49h6M22 49h8" />
<path stroke="#5c544b" d="M14 26h6M14 27h6" />
<path stroke="#6d7174" d="M11 32h4M27 32h5M11 33h4M26 33h6M12 34h20M12 35h6M24 35h9M12 36h6M24 36h6M31 36h3M12 37h6M24 37h6M32 37h2M12 38h5M23 38h7M32 38h2M12 39h5M25 39h5M32 39h2M12 40h4M25 40h5M32 40h2M12 41h4M24 41h6M12 42h7M23 42h7M12 43h6M22 43h8M12 44h6M21 44h9M12 45h5M20 45h10M12 46h5M19 46h11M12 47h18" />
<path stroke="#5c5f61" d="M15 32h2M25 32h2M15 33h11M32 34h1M33 35h1" />
<path stroke="#292a2b" d="M18 35h6M18 36h1M23 36h1M18 37h1M23 37h1M17 38h1M22 38h1M17 39h1M22 39h3M16 40h1M24 40h1M16 41h4M23 41h1M19 42h1M22 42h1M18 43h1M21 43h1M18 44h1M20 44h1M17 45h1M19 45h1M17 46h2" />
<path stroke="#ebf550" d="M19 36h4M19 37h4M11 38h1M18 38h4M18 39h4M17 40h7M20 41h3M32 41h2M20 42h2M19 43h2M19 44h1M18 45h1" />
<path stroke="#696a6a" d="M18 48h4M18 49h4" />
<path stroke="#0f2a43" d="M12 50h15M12 51h18" />
<path stroke="#194066" d="M27 50h3" />
<path stroke="#262626" d="M12 52h4M26 52h4M12 53h4M26 53h4" />
</svg>