<svg xmlns="http://www.w3.org/2000/svg" viewBox="0 -0.5 53 56" shape-rendering="crispEdges">
<metadata>Made with Pixels to Svg https://codepen.io/shshaw/pen/XbxvNj</metadata>
<path stroke="#8c7c49" d="M13 2h3M21 2h2M28 2h2M12 3h1M14 3h3M20 3h1M22 3h2M27 3h1M29 3h2M36 3h2M11 4h3M16 4h2M19 4h2M22 4h3M26 4h1M28 4h4M35 4h1M37 4h2M9 5h6M16 5h4M22 5h4M28 5h6M36 5h3M8 6h8M17 6h3M21 6h4M26 6h7M36 6h5M43 6h2M11 7h8M20 7h4M25 7h6M33 7h9M43 7h2M9 8h2M14 8h5M20 8h4M25 8h5M31 8h9M42 8h3M10 9h1M16 9h3M21 9h3M26 9h4M31 9h7M40 9h4M11 10h4M16 10h3M21 10h3M26 10h4M32 10h4M38 10h6M12 11h3M17 11h2M21 11h5M27 11h3M32 11h4M38 11h6M45 11h3M12 12h3M17 12h4M22 12h4M27 12h5M33 12h3M38 12h10M12 13h3M33 13h3M37 13h2M45 13h3M12 14h3M33 14h3M37 14h2M42 14h5M12 15h1M40 15h6M12 16h1M41 16h5M42 17h5M44 18h4M43 19h1M46 19h3M45 20h1M47 20h2M45 21h3M45 22h2M45 23h1M45 24h1M45 25h2M45 26h3M46 27h2M45 28h2" />
<path stroke="#9b8a51" d="M13 3h1M21 3h1M28 3h1M14 4h1M21 4h1M27 4h1M36 4h1M15 5h1M20 5h1M26 5h1M34 5h2M16 6h1M20 6h1M25 6h1M33 6h1M9 7h2M19 7h1M24 7h1M31 7h2M42 7h1M11 8h3M19 8h1M24 8h1M30 8h1M40 8h2M14 9h2M20 9h1M25 9h1M30 9h1M38 9h2M15 10h1M20 10h1M25 10h1M31 10h1M37 10h1M16 11h1M20 11h1M26 11h1M31 11h1M37 11h1M16 12h1M21 12h1M26 12h1M32 12h1M37 12h1M16 13h1M21 13h1M27 13h1M32 13h1M36 13h1M42 13h3M17 14h1M36 14h1M39 14h3M17 15h1M36 15h1M39 15h1M39 16h1M38 17h1M38 18h1M43 18h1M41 19h2M44 19h2M40 20h1M46 20h1M39 21h1M44 26h1M45 27h1M41 28h1M42 29h1" />
<path stroke="#7f7143" d="M15 4h1M21 5h1M27 5h1M34 6h2M11 9h3M19 9h1M24 9h1M19 10h1M24 10h1M30 10h1M36 10h1M15 11h1M19 11h1M30 11h1M36 11h1M15 12h1M36 12h1M15 13h1M17 13h4M22 13h5M28 13h4M39 13h3M15 14h2M32 14h1M13 15h4M32 15h4M37 15h2M13 16h1M38 16h1M40 16h1M12 17h2M39 17h3M39 18h4M38 19h3M36 20h4M41 20h4M36 21h3M40 21h5M36 22h4M44 22h1M36 23h4M44 23h1M36 24h4M44 24h1M36 25h4M44 25h1M36 26h2M36 27h2M44 27h1M40 28h1M42 28h3M40 29h2M43 29h2M38 30h5M38 31h1M40 31h4M41 32h3" />
<path stroke="#a1997a" d="M18 14h14M18 15h14M14 16h4M32 16h6M14 17h4M32 17h6M34 18h4M34 19h4M34 20h2M34 21h2M34 22h2M40 22h4M34 23h2M40 23h4M34 24h2M40 24h4M34 25h2M40 25h4M34 26h2M38 26h6M34 27h2M38 27h6M34 28h6M34 29h6M15 30h23M15 31h23M23 32h8M37 42h3M37 43h3M37 44h2" />
<path stroke="#aea78c" d="M18 16h14M18 17h14M12 18h22M12 19h22M12 20h22M12 21h22M12 22h2M16 22h16M12 23h2M16 23h16M12 24h22M12 25h22M12 26h8M26 26h8M13 27h7M26 27h8M14 28h20M15 29h19M17 39h1M15 40h3M15 41h3M16 42h2" />
<path stroke="#000000" d="M14 22h2M32 22h2M14 23h2M32 23h2M18 48h6M28 48h8M18 49h6M28 49h8" />
<path stroke="#5c544b" d="M20 26h6M20 27h6" />
<path stroke="#6d7174" d="M17 32h4M33 32h5M17 33h4M32 33h6M18 34h20M18 35h6M30 35h9M18 36h6M30 36h6M37 36h3M18 37h6M30 37h6M38 37h2M18 38h5M29 38h7M38 38h2M18 39h5M31 39h5M38 39h2M18 40h4M31 40h5M38 40h2M18 41h4M30 41h6M18 42h7M29 42h7M18 43h6M28 43h8M18 44h6M27 44h9M18 45h5M26 45h10M18 46h5M25 46h11M18 47h18" />
<path stroke="#5c5f61" d="M21 32h2M31 32h2M21 33h11M38 34h1M39 35h1" />
<path stroke="#292a2b" d="M24 35h6M24 36h1M29 36h1M24 37h1M29 37h1M23 38h1M28 38h1M23 39h1M28 39h3M22 40h1M30 40h1M22 41h4M29 41h1M25 42h1M28 42h1M24 43h1M27 43h1M24 44h1M26 44h1M23 45h1M25 45h1M23 46h2" />
<path stroke="#ebf550" d="M25 36h4M25 37h4M17 38h1M24 38h4M24 39h4M23 40h7M26 41h3M38 41h2M26 42h2M25 43h2M25 44h1M24 45h1" />
<path stroke="#696a6a" d="M24 48h4M24 49h4" />
<path stroke="#0f2a43" d="M18 50h15M18 51h18" />
<path stroke="#194066" d="M33 50h3" />
<path stroke="#262626" d="M18 52h4M32 52h4M18 53h4M32 53h4" />
</svg>