<svg xmlns="http://www.w3.org/2000/svg" viewBox="0 -0.5 44 56" shape-rendering="crispEdges">
<metadata>Made with Pixels to Svg https://codepen.io/shshaw/pen/XbxvNj</metadata>
<path stroke="#b68c5a" d="M17 2h4M17 3h4M9 4h8M27 4h9M9 5h8M27 5h9M7 6h2M15 6h2M7 7h2M15 7h2M5 8h2M15 8h2M5 9h2M15 9h2M5 10h2M15 10h2M5 11h2M15 11h2M3 14h2M3 15h2" />
<path stroke="#b37635" d="M21 2h4M21 3h4M17 4h4M17 5h4M17 6h4M27 6h9M17 7h4M27 7h9M17 8h4M27 8h9M17 9h4M27 9h9M17 10h4M27 10h9M17 11h4M27 11h9M5 14h35M5 15h35" />
<path stroke="#b46a25" d="M25 2h2M25 3h2M21 4h6M21 5h6M9 6h6M21 6h6M36 6h2M9 7h6M21 7h6M36 7h2M7 8h8M21 8h6M36 8h4M7 9h8M21 9h6M36 9h4M7 10h8M21 10h6M36 10h4M7 11h8M21 11h6M36 11h4M40 14h2M40 15h2" />
<path stroke="#a07b4f" d="M5 12h2M15 12h2M5 13h2M15 13h2" />
<path stroke="#9e5c1f" d="M7 12h8M21 12h6M36 12h4M7 13h8M21 13h6M36 13h4M14 38h2M28 38h2M14 39h2M28 39h2M19 48h4M19 49h4M13 50h2M29 50h2M13 51h2M29 51h2" />
<path stroke="#9d682e" d="M17 12h4M27 12h9M17 13h4M27 13h9" />
<path stroke="#34261a" d="M7 16h2M33 16h8M7 17h2M33 17h8M33 18h8M27 19h3M33 19h8M8 20h5M25 20h2M31 20h10M31 21h10M31 22h4M39 22h2M14 23h3M19 23h3M31 23h4M39 23h2M13 24h4M19 24h4M31 24h4M39 24h2M13 25h2M21 25h2M31 25h4M39 25h2M13 26h2M21 26h2M31 26h2M39 26h2M13 27h2M21 27h2M31 27h2M39 27h1M13 28h2M17 28h3M21 28h2M35 28h4M13 29h10M35 29h3M14 30h8M33 30h2M33 31h1" />
<path stroke="#b29271" d="M9 16h24M9 17h24M7 18h4M29 18h4M7 19h4M30 19h3M29 20h2M29 21h2M29 22h2M35 22h4M29 23h2M35 23h4M29 24h2M35 24h4M29 25h2M35 25h4M29 26h2M33 26h6M29 27h2M33 27h6M29 28h6M29 29h6M10 30h4M22 30h11M10 31h23M18 32h8M32 42h3M32 43h3M32 44h2" />
<path stroke="#c3a07c" d="M11 18h18M11 19h16M7 20h1M13 20h12M27 20h2M7 21h22M7 22h2M11 22h16M7 23h2M11 23h3M17 23h2M22 23h5M7 24h6M17 24h2M23 24h6M7 25h6M15 25h6M23 25h6M7 26h6M15 26h2M20 26h1M23 26h6M8 27h5M15 27h6M23 27h6M9 28h4M15 28h2M20 28h1M23 28h6M10 29h3M23 29h6M12 38h1M12 39h1M10 40h3M10 41h3M11 42h2" />
<path stroke="#000000" d="M9 22h2M27 22h2M9 23h2M27 23h2M33 40h2M33 41h2" />
<path stroke="#5c544b" d="M17 26h3" />
<path stroke="#432d17" d="M12 32h1M12 33h1" />
<path stroke="#672321" d="M13 32h1M26 32h2M31 32h2M26 33h2M31 33h2M13 34h1M16 34h2M24 34h2M30 34h1M33 34h1M16 35h2M20 35h2M24 35h2M34 35h1M18 36h2M22 36h2M26 36h2M33 36h1M18 37h2M22 37h2M26 37h2M34 37h1M33 38h1M34 39h1" />
<path stroke="#302011" d="M14 32h2M28 32h2M14 33h2M28 33h2M14 34h2M28 34h2M14 35h2M28 35h2M14 36h2M28 36h2M14 37h2M28 37h2M30 38h1M30 39h1M29 40h2M15 41h4M29 41h2M15 42h4M29 42h2M15 43h4M29 43h2M16 44h2M29 44h2M29 45h2M29 46h2M29 47h2M15 50h14M15 51h14" />
<path stroke="#8a302c" d="M16 32h2M30 32h1M13 33h1M16 33h2M24 33h2M30 33h1M18 34h1M23 34h1M26 34h2M31 34h2M13 35h1M18 35h2M22 35h2M26 35h2M32 35h2M13 36h1M16 36h2M20 36h2M24 36h2M34 36h1M12 37h2M16 37h2M20 37h2M24 37h2M33 37h1M34 38h1M33 39h1" />
<path stroke="#faf15f" d="M18 33h6M19 34h4M30 35h2M30 36h1M32 36h1M30 37h1" />
<path stroke="#949494" d="M2 38h2M2 39h2M4 40h2M4 41h2M2 42h2M2 43h2" />
<path stroke="#b5b5b5" d="M4 38h4M4 39h4M6 40h4M6 41h4M4 42h4M4 43h4" />
<path stroke="#3a2614" d="M13 38h1M16 38h12M13 39h1M16 39h12M13 40h16M13 41h2M19 41h10M13 42h2M19 42h10M13 43h2M19 43h10M13 44h3M18 44h11M13 45h16M13 46h16M13 47h16" />
<path stroke="#433930" d="M13 48h6M23 48h6M13 49h6M23 49h6" />
<path stroke="#3b332b" d="M29 48h2M29 49h2" />
<path stroke="#262626" d="M13 52h4M27 52h4M13 53h4M27 53h4" />
</svg>