<svg xmlns="http://www.w3.org/2000/svg" viewBox="0 -0.5 53 56" shape-rendering="crispEdges">
<metadata>Made with Pixels to Svg https://codepen.io/shshaw/pen/XbxvNj</metadata>
<path stroke="#b68c5a" d="M22 2h4M22 3h4M14 4h8M32 4h9M14 5h8M32 5h9M12 6h2M20 6h2M12 7h2M20 7h2M10 8h2M20 8h2M10 9h2M20 9h2M10 10h2M20 10h2M10 11h2M20 11h2M8 14h2M8 15h2" />
<path stroke="#b37635" d="M26 2h4M26 3h4M22 4h4M22 5h4M22 6h4M32 6h9M22 7h4M32 7h9M22 8h4M32 8h9M22 9h4M32 9h9M22 10h4M32 10h9M22 11h4M32 11h9M10 14h35M10 15h35" />
<path stroke="#b46a25" d="M30 2h2M30 3h2M26 4h6M26 5h6M14 6h6M26 6h6M41 6h2M14 7h6M26 7h6M41 7h2M12 8h8M26 8h6M41 8h4M12 9h8M26 9h6M41 9h4M12 10h8M26 10h6M41 10h4M12 11h8M26 11h6M41 11h4M45 14h2M45 15h2" />
<path stroke="#a07b4f" d="M10 12h2M20 12h2M10 13h2M20 13h2" />
<path stroke="#9e5c1f" d="M12 12h8M26 12h6M41 12h4M12 13h8M26 13h6M41 13h4M19 38h2M33 38h2M19 39h2M33 39h2M24 48h4M24 49h4M18 50h2M34 50h2M18 51h2M34 51h2" />
<path stroke="#9d682e" d="M22 12h4M32 12h9M22 13h4M32 13h9" />
<path stroke="#34261a" d="M12 16h2M38 16h8M12 17h2M38 17h8M38 18h8M32 19h3M38 19h8M13 20h5M30 20h2M36 20h10M36 21h10M36 22h4M44 22h2M19 23h3M24 23h3M36 23h4M44 23h2M18 24h4M24 24h4M36 24h4M44 24h2M18 25h2M26 25h2M36 25h4M44 25h2M18 26h2M26 26h2M36 26h2M44 26h2M18 27h2M26 27h2M36 27h2M44 27h1M18 28h2M22 28h3M26 28h2M40 28h4M18 29h10M40 29h3M19 30h8M38 30h2M38 31h1" />
<path stroke="#b29271" d="M14 16h24M14 17h24M12 18h4M34 18h4M12 19h4M35 19h3M34 20h2M34 21h2M34 22h2M40 22h4M34 23h2M40 23h4M34 24h2M40 24h4M34 25h2M40 25h4M34 26h2M38 26h6M34 27h2M38 27h6M34 28h6M34 29h6M15 30h4M27 30h11M15 31h23M23 32h8M37 42h3M37 43h3M37 44h2" />
<path stroke="#c3a07c" d="M16 18h18M16 19h16M12 20h1M18 20h12M32 20h2M12 21h22M12 22h2M16 22h16M12 23h2M16 23h3M22 23h2M27 23h5M12 24h6M22 24h2M28 24h6M12 25h6M20 25h6M28 25h6M12 26h6M20 26h2M25 26h1M28 26h6M13 27h5M20 27h6M28 27h6M14 28h4M20 28h2M25 28h1M28 28h6M15 29h3M28 29h6M17 38h1M17 39h1M15 40h3M15 41h3M16 42h2" />
<path stroke="#000000" d="M14 22h2M32 22h2M14 23h2M32 23h2M38 40h2M38 41h2" />
<path stroke="#5c544b" d="M22 26h3" />
<path stroke="#432d17" d="M17 32h1M17 33h1" />
<path stroke="#672321" d="M18 32h1M31 32h2M36 32h2M31 33h2M36 33h2M18 34h1M21 34h2M29 34h2M35 34h1M38 34h1M21 35h2M25 35h2M29 35h2M39 35h1M23 36h2M27 36h2M31 36h2M38 36h1M23 37h2M27 37h2M31 37h2M39 37h1M38 38h1M39 39h1" />
<path stroke="#302011" d="M19 32h2M33 32h2M19 33h2M33 33h2M19 34h2M33 34h2M19 35h2M33 35h2M19 36h2M33 36h2M19 37h2M33 37h2M35 38h1M35 39h1M34 40h2M20 41h4M34 41h2M20 42h4M34 42h2M20 43h4M34 43h2M21 44h2M34 44h2M34 45h2M34 46h2M34 47h2M20 50h14M20 51h14" />
<path stroke="#8a302c" d="M21 32h2M35 32h1M18 33h1M21 33h2M29 33h2M35 33h1M23 34h1M28 34h1M31 34h2M36 34h2M18 35h1M23 35h2M27 35h2M31 35h2M37 35h2M18 36h1M21 36h2M25 36h2M29 36h2M39 36h1M17 37h2M21 37h2M25 37h2M29 37h2M38 37h1M39 38h1M38 39h1" />
<path stroke="#faf15f" d="M23 33h6M24 34h4M35 35h2M35 36h1M37 36h1M35 37h1" />
<path stroke="#949494" d="M7 38h2M7 39h2M9 40h2M9 41h2M7 42h2M7 43h2" />
<path stroke="#b5b5b5" d="M9 38h4M9 39h4M11 40h4M11 41h4M9 42h4M9 43h4" />
<path stroke="#3a2614" d="M18 38h1M21 38h12M18 39h1M21 39h12M18 40h16M18 41h2M24 41h10M18 42h2M24 42h10M18 43h2M24 43h10M18 44h3M23 44h11M18 45h16M18 46h16M18 47h16" />
<path stroke="#433930" d="M18 48h6M28 48h6M18 49h6M28 49h6" />
<path stroke="#3b332b" d="M34 48h2M34 49h2" />
<path stroke="#262626" d="M18 52h4M32 52h4M18 53h4M32 53h4" />
</svg>