<svg xmlns="http://www.w3.org/2000/svg" viewBox="0 -0.5 51 56" shape-rendering="crispEdges">
<metadata>Made with Pixels to Svg https://codepen.io/shshaw/pen/XbxvNj</metadata>
<path stroke="#d5ca70" d="M20 9h15M18 10h17M16 11h5M22 11h6M31 11h5M14 12h5M21 12h3M28 12h5M36 12h2M14 13h3M19 13h3M24 13h6M33 13h3M37 13h1M12 14h4M17 14h20M38 14h3M12 15h29M12 16h2M36 16h5M12 17h2M36 17h2M39 17h3M36 18h3M40 18h1M42 18h1M36 19h3M40 19h1M42 19h1M35 20h6M43 20h1M35 21h6M43 21h1M35 22h3M35 23h3M35 24h3M35 25h3M35 26h1M42 26h1M35 27h1M42 27h1M39 28h2M43 28h1M39 29h2M43 29h1M39 30h2M43 30h1M38 31h3M43 31h1M38 32h3M38 33h4M38 34h3M42 34h1M39 35h2M42 35h1M39 36h2M42 36h1M36 37h1M39 37h2M36 38h1M39 38h1M36 39h1M39 39h1M36 40h1M39 40h1" />
<path stroke="#cabc4f" d="M35 9h2M35 10h5M36 11h4M38 12h4M38 13h4M41 14h3M41 15h3M41 16h3M42 17h2M41 18h1M43 18h1M41 19h1M43 19h1M14 20h3M29 20h3M41 20h2M13 21h1M28 21h1M41 21h2M42 22h2M42 23h2M42 24h2M42 25h2M43 26h1M43 27h1M41 28h2M41 29h2M41 30h2M41 31h2M41 32h3M42 33h2M41 34h1M43 34h1M41 35h1M43 35h1M41 36h1M43 36h1M41 37h3M40 38h3M40 39h2" />
<path stroke="#f5eeaf" d="M21 11h1M28 11h3M19 12h2M24 12h4M33 12h3M17 13h2M22 13h2M30 13h3M36 13h1M16 14h1M37 14h1M38 17h1M39 18h1M39 19h1M38 28h1M38 29h1M36 30h3M36 31h2M37 32h1M37 33h1" />
<path stroke="#5f4a25" d="M14 16h22M14 17h22M12 18h4M33 18h3M12 19h4M33 19h3M33 20h2M33 21h2M33 22h2M38 22h4M33 23h2M38 23h4M33 24h2M38 24h4M33 25h2M38 25h4M33 26h2M36 26h2M40 26h2M33 27h2M36 27h2M40 27h2M33 28h5M33 29h5M15 30h4M26 30h10M17 31h19M22 32h8M16 38h1M16 39h1M14 40h3M14 41h3M15 42h2" />
<path stroke="#675027" d="M16 18h17M16 19h17M12 20h2M17 20h12M32 20h1M12 21h1M14 21h14M29 21h4M12 22h2M16 22h15M12 23h2M16 23h15M12 24h21M12 25h13M26 25h7M12 26h9M25 26h8M13 27h20M14 28h19M15 29h18M19 30h7M36 42h3M36 43h3M36 44h2" />
<path stroke="#000000" d="M14 22h2M31 22h2M14 23h2M31 23h2M25 25h1M21 26h4M10 37h1M8 38h1M11 39h1M10 40h1M12 42h1" />
<path stroke="#69ad93" d="M38 26h2M38 27h2" />
<path stroke="#cdbcdb" d="M16 32h4M32 32h5M16 33h4M32 33h5M17 34h4M30 34h8M17 35h5M29 35h10M17 36h18M37 36h2M17 37h18M37 37h2M17 38h18M37 38h2M17 39h18M17 40h18M17 41h18M17 42h14M17 43h13M17 44h14M17 45h18M17 46h18M17 47h18" />
<path stroke="#ac92c3" d="M20 32h2M30 32h2M20 33h12M21 34h9M22 35h7M16 37h1M37 39h2M37 40h2M37 41h2" />
<path stroke="#452f17" d="M8 34h2M6 35h3M10 35h1M6 36h2M11 36h1M5 37h2M12 37h1M5 38h1M13 38h1M6 39h1M14 39h1M7 40h1M8 41h1M9 42h1M10 43h1M14 43h2M11 44h1M13 44h2M12 45h2" />
<path stroke="#e5caad" d="M9 35h1M8 36h3M7 37h3M11 37h1M6 38h2M9 38h4M7 39h4M12 39h2M8 40h2M11 40h3M9 41h5M10 42h2M13 42h2M11 43h3M12 44h1" />
<path stroke="#faf15f" d="M36 36h1" />
<path stroke="#2b1d0e" d="M31 42h1" />
<path stroke="#d2a474" d="M32 42h1" />
<path stroke="#2e1f0f" d="M33 42h3M39 42h4" />
<path stroke="#e8d0b5" d="M43 42h1" />
<path stroke="#ba7d40" d="M44 42h1" />
<path stroke="#b56c6a" d="M45 42h1" />
<path stroke="#20150a" d="M30 43h2M31 44h1" />
<path stroke="#a27e59" d="M32 43h1M32 44h1" />
<path stroke="#23170b" d="M33 43h3M39 43h4M33 44h3M38 44h5" />
<path stroke="#b29f8b" d="M43 43h1M43 44h1" />
<path stroke="#8f6031" d="M44 43h1M44 44h1" />
<path stroke="#a4504d" d="M45 43h1M45 44h1" />
<path stroke="#58927b" d="M17 48h18M17 49h18M17 50h18M17 51h18" />
<path stroke="#262626" d="M17 52h4M31 52h4M17 53h4M31 53h4" />
</svg>