<svg xmlns="http://www.w3.org/2000/svg" viewBox="0 -0.5 44 56" shape-rendering="crispEdges">
<metadata>Made with Pixels to Svg https://codepen.io/shshaw/pen/XbxvNj</metadata>
<path stroke="#d5ca70" d="M16 9h15M14 10h17M12 11h5M18 11h6M27 11h5M10 12h5M17 12h3M24 12h5M32 12h2M10 13h3M15 13h3M20 13h6M29 13h3M33 13h1M8 14h4M13 14h20M34 14h3M8 15h29M8 16h2M32 16h5M8 17h2M32 17h2M35 17h3M32 18h3M36 18h1M38 18h1M32 19h3M36 19h1M38 19h1M31 20h6M39 20h1M31 21h6M39 21h1M31 22h3M31 23h3M31 24h3M31 25h3M31 26h1M38 26h1M31 27h1M38 27h1M35 28h2M39 28h1M35 29h2M39 29h1M35 30h2M39 30h1M34 31h3M39 31h1M34 32h3M34 33h4M34 34h3M38 34h1M35 35h2M38 35h1M35 36h2M38 36h1M32 37h1M35 37h2M32 38h1M35 38h1M32 39h1M35 39h1M32 40h1M35 40h1" />
<path stroke="#cabc4f" d="M31 9h2M31 10h5M32 11h4M34 12h4M34 13h4M37 14h3M37 15h3M37 16h3M38 17h2M37 18h1M39 18h1M37 19h1M39 19h1M10 20h3M25 20h3M37 20h2M9 21h1M24 21h1M37 21h2M38 22h2M38 23h2M38 24h2M38 25h2M39 26h1M39 27h1M37 28h2M37 29h2M37 30h2M37 31h2M37 32h3M38 33h2M37 34h1M39 34h1M37 35h1M39 35h1M37 36h1M39 36h1M37 37h3M36 38h3M36 39h2" />
<path stroke="#f5eeaf" d="M17 11h1M24 11h3M15 12h2M20 12h4M29 12h3M13 13h2M18 13h2M26 13h3M32 13h1M12 14h1M33 14h1M34 17h1M35 18h1M35 19h1M34 28h1M34 29h1M32 30h3M32 31h2M33 32h1M33 33h1" />
<path stroke="#5f4a25" d="M10 16h22M10 17h22M8 18h4M29 18h3M8 19h4M29 19h3M29 20h2M29 21h2M29 22h2M34 22h4M29 23h2M34 23h4M29 24h2M34 24h4M29 25h2M34 25h4M29 26h2M32 26h2M36 26h2M29 27h2M32 27h2M36 27h2M29 28h5M29 29h5M11 30h4M22 30h10M13 31h19M18 32h8M12 38h1M12 39h1M10 40h3M10 41h3M11 42h2" />
<path stroke="#675027" d="M12 18h17M12 19h17M8 20h2M13 20h12M28 20h1M8 21h1M10 21h14M25 21h4M8 22h2M12 22h15M8 23h2M12 23h15M8 24h21M8 25h13M22 25h7M8 26h9M21 26h8M9 27h20M10 28h19M11 29h18M15 30h7M32 42h3M32 43h3M32 44h2" />
<path stroke="#000000" d="M10 22h2M27 22h2M10 23h2M27 23h2M21 25h1M17 26h4M6 37h1M4 38h1M7 39h1M6 40h1M8 42h1" />
<path stroke="#69ad93" d="M34 26h2M34 27h2" />
<path stroke="#cdbcdb" d="M12 32h4M28 32h5M12 33h4M28 33h5M13 34h4M26 34h8M13 35h5M25 35h10M13 36h18M33 36h2M13 37h18M33 37h2M13 38h18M33 38h2M13 39h18M13 40h18M13 41h18M13 42h14M13 43h13M13 44h14M13 45h18M13 46h18M13 47h18" />
<path stroke="#ac92c3" d="M16 32h2M26 32h2M16 33h12M17 34h9M18 35h7M12 37h1M33 39h2M33 40h2M33 41h2" />
<path stroke="#452f17" d="M4 34h2M2 35h3M6 35h1M2 36h2M7 36h1M1 37h2M8 37h1M1 38h1M9 38h1M2 39h1M10 39h1M3 40h1M4 41h1M5 42h1M6 43h1M10 43h2M7 44h1M9 44h2M8 45h2" />
<path stroke="#e5caad" d="M5 35h1M4 36h3M3 37h3M7 37h1M2 38h2M5 38h4M3 39h4M8 39h2M4 40h2M7 40h3M5 41h5M6 42h2M9 42h2M7 43h3M8 44h1" />
<path stroke="#faf15f" d="M32 36h1" />
<path stroke="#2b1d0e" d="M27 42h1" />
<path stroke="#d2a474" d="M28 42h1" />
<path stroke="#2e1f0f" d="M29 42h3M35 42h4" />
<path stroke="#e8d0b5" d="M39 42h1" />
<path stroke="#ba7d40" d="M40 42h1" />
<path stroke="#b56c6a" d="M41 42h1" />
<path stroke="#20150a" d="M26 43h2M27 44h1" />
<path stroke="#a27e59" d="M28 43h1M28 44h1" />
<path stroke="#23170b" d="M29 43h3M35 43h4M29 44h3M34 44h5" />
<path stroke="#b29f8b" d="M39 43h1M39 44h1" />
<path stroke="#8f6031" d="M40 43h1M40 44h1" />
<path stroke="#a4504d" d="M41 43h1M41 44h1" />
<path stroke="#58927b" d="M13 48h18M13 49h18M13 50h18M13 51h18" />
<path stroke="#262626" d="M13 52h4M27 52h4M13 53h4M27 53h4" />
</svg>