<svg xmlns="http://www.w3.org/2000/svg" viewBox="0 -0.5 51 56" shape-rendering="crispEdges">
<metadata>Made with Pixels to Svg https://codepen.io/shshaw/pen/XbxvNj</metadata>
<path stroke="#5f553c" d="M21 3h3M19 4h6M17 5h8M37 5h3M15 6h14M35 6h6M15 7h26M14 8h28M14 9h28M13 10h29M13 11h30M13 12h30M12 13h31M12 14h31M12 15h31M12 16h2M36 16h7M12 17h2M36 17h8M36 18h8M14 19h6M26 19h7M36 19h8M13 20h1M33 20h1M35 20h9M35 21h3M42 21h2M42 22h2M35 23h3M42 23h2M35 24h3M42 24h2M35 25h3M42 25h2M35 26h1M42 26h2M35 27h1M42 27h2M38 28h5M38 29h4" />
<path stroke="#463816" d="M14 16h22M14 17h22M12 18h24M12 19h2M20 19h6M33 19h3M12 20h1M14 20h19M34 20h1M13 21h1M20 21h6M33 21h2M21 22h4M38 22h4M12 23h1M34 23h1M38 23h4M12 24h2M21 24h4M33 24h2M38 24h4M12 25h23M38 25h4M12 26h23M36 26h6M13 27h22M36 27h6M14 28h6M24 28h14M15 29h23M15 30h21M17 31h19M22 32h8" />
<path stroke="#000000" d="M12 21h1M14 21h6M26 21h7M38 21h4M12 22h2M15 22h2M20 22h1M25 22h1M27 22h2M33 22h5M13 23h1M15 23h2M21 23h4M27 23h2M33 23h1M14 24h7M25 24h8M20 28h4" />
<path stroke="#ffffff" d="M14 22h1M17 22h3M26 22h1M29 22h4M14 23h1M17 23h4M25 23h2M29 23h4" />
<path stroke="#172a5b" d="M16 32h4M32 32h5M16 33h4M32 33h5M17 34h4M30 34h8M17 35h5M29 35h10M17 36h7M26 36h10M37 36h2M17 37h7M26 37h9M37 37h2M17 38h7M26 38h9M37 38h2M17 39h7M26 39h9M17 40h7M26 40h9M17 41h7M26 41h9M17 42h7M26 42h9M17 43h7M26 43h9M17 44h7M26 44h9M17 45h7M26 45h9M17 46h7M26 46h9M17 47h7M26 47h9" />
<path stroke="#3460ce" d="M20 32h1M31 32h1M20 33h1M30 33h2M21 34h1M29 34h1M22 35h7" />
<path stroke="#849fe0" d="M21 32h1M30 32h1M21 33h9M22 34h7" />
<path stroke="#89a3e1" d="M24 36h1M16 37h1M25 37h1M24 38h1M24 39h1M37 39h2M25 40h1M24 41h1M24 42h1M25 43h1M24 44h1M24 45h1M25 46h1M24 47h1" />
<path stroke="#234087" d="M25 36h1M24 37h1M25 38h1M25 39h1M24 40h1M25 41h1M25 42h1M24 43h1M25 44h1M25 45h1M24 46h1M25 47h1" />
<path stroke="#5f4a25" d="M16 38h1M16 39h1M14 40h3M14 41h3M15 42h2" />
<path stroke="#060d04" d="M37 40h2M37 41h2M17 48h18M24 49h4" />
<path stroke="#675027" d="M36 42h3M36 43h3M36 44h2" />
<path stroke="#44583d" d="M17 49h7M28 49h7M17 50h18M17 51h18" />
<path stroke="#262626" d="M17 52h4M31 52h4M17 53h4M31 53h4" />
</svg>