<svg xmlns="http://www.w3.org/2000/svg" viewBox="0 -0.5 44 56" shape-rendering="crispEdges">
<metadata>Made with Pixels to Svg https://codepen.io/shshaw/pen/XbxvNj</metadata>
<path stroke="#5f553c" d="M17 3h3M15 4h6M13 5h8M33 5h3M11 6h14M31 6h6M11 7h26M10 8h28M10 9h28M9 10h29M9 11h30M9 12h30M8 13h31M8 14h31M8 15h31M8 16h2M32 16h7M8 17h2M32 17h8M32 18h8M10 19h6M22 19h7M32 19h8M9 20h1M29 20h1M31 20h9M31 21h3M38 21h2M38 22h2M31 23h3M38 23h2M31 24h3M38 24h2M31 25h3M38 25h2M31 26h1M38 26h2M31 27h1M38 27h2M34 28h5M34 29h4" />
<path stroke="#463816" d="M10 16h22M10 17h22M8 18h24M8 19h2M16 19h6M29 19h3M8 20h1M10 20h19M30 20h1M9 21h1M16 21h6M29 21h2M17 22h4M34 22h4M8 23h1M30 23h1M34 23h4M8 24h2M17 24h4M29 24h2M34 24h4M8 25h23M34 25h4M8 26h23M32 26h6M9 27h22M32 27h6M10 28h6M20 28h14M11 29h23M11 30h21M13 31h19M18 32h8" />
<path stroke="#000000" d="M8 21h1M10 21h6M22 21h7M34 21h4M8 22h2M11 22h2M16 22h1M21 22h1M23 22h2M29 22h5M9 23h1M11 23h2M17 23h4M23 23h2M29 23h1M10 24h7M21 24h8M16 28h4" />
<path stroke="#ffffff" d="M10 22h1M13 22h3M22 22h1M25 22h4M10 23h1M13 23h4M21 23h2M25 23h4" />
<path stroke="#172a5b" d="M12 32h4M28 32h5M12 33h4M28 33h5M13 34h4M26 34h8M13 35h5M25 35h10M13 36h7M22 36h10M33 36h2M13 37h7M22 37h9M33 37h2M13 38h7M22 38h9M33 38h2M13 39h7M22 39h9M13 40h7M22 40h9M13 41h7M22 41h9M13 42h7M22 42h9M13 43h7M22 43h9M13 44h7M22 44h9M13 45h7M22 45h9M13 46h7M22 46h9M13 47h7M22 47h9" />
<path stroke="#3460ce" d="M16 32h1M27 32h1M16 33h1M26 33h2M17 34h1M25 34h1M18 35h7" />
<path stroke="#849fe0" d="M17 32h1M26 32h1M17 33h9M18 34h7" />
<path stroke="#89a3e1" d="M20 36h1M12 37h1M21 37h1M20 38h1M20 39h1M33 39h2M21 40h1M20 41h1M20 42h1M21 43h1M20 44h1M20 45h1M21 46h1M20 47h1" />
<path stroke="#234087" d="M21 36h1M20 37h1M21 38h1M21 39h1M20 40h1M21 41h1M21 42h1M20 43h1M21 44h1M21 45h1M20 46h1M21 47h1" />
<path stroke="#5f4a25" d="M12 38h1M12 39h1M10 40h3M10 41h3M11 42h2" />
<path stroke="#060d04" d="M33 40h2M33 41h2M13 48h18M20 49h4" />
<path stroke="#675027" d="M32 42h3M32 43h3M32 44h2" />
<path stroke="#44583d" d="M13 49h7M24 49h7M13 50h18M13 51h18" />
<path stroke="#262626" d="M13 52h4M27 52h4M13 53h4M27 53h4" />
</svg>