<svg xmlns="http://www.w3.org/2000/svg" viewBox="0 -0.5 53 56" shape-rendering="crispEdges">
<metadata>Made with Pixels to Svg https://codepen.io/shshaw/pen/XbxvNj</metadata>
<path stroke="#9e5c1f" d="M19 5h15M16 6h3M20 6h19M15 7h3M19 7h6M26 7h4M31 7h10M13 8h4M18 8h6M25 8h4M30 8h6M37 8h5M11 9h6M18 9h5M24 9h4M29 9h5M36 9h6M11 10h5M17 10h4M23 10h3M28 10h5M34 10h6M42 10h2M10 11h1M12 11h3M16 11h4M21 11h4M26 11h6M33 11h5M40 11h4M10 12h1M12 12h2M15 12h4M20 12h4M25 12h5M32 12h4M38 12h6M10 13h1M12 13h6M19 13h4M24 13h5M30 13h5M36 13h9M9 14h1M11 14h6M18 14h4M23 14h5M29 14h11M42 14h4M9 15h1M11 15h31M45 15h1M9 16h1M11 16h3M42 16h5M9 17h1M11 17h2M9 18h3M9 19h2M32 19h3M38 19h4M9 20h1M13 20h5M30 20h2M36 20h11M8 21h2M11 21h1M36 21h3M40 21h5M46 21h1M8 22h1M11 22h1M36 22h2M39 22h1M44 22h1M46 22h2M10 23h2M19 23h3M24 23h3M36 23h2M39 23h1M44 23h1M46 23h2M10 24h2M18 24h1M20 24h2M24 24h2M27 24h1M36 24h1M38 24h2M44 24h5M10 25h2M18 25h2M26 25h2M36 25h4M44 25h2M47 25h2M10 26h2M18 26h2M26 26h2M36 26h2M44 26h2M10 27h1M12 27h1M19 27h1M26 27h1M36 27h2M44 27h1M10 28h1M13 28h1M18 28h2M22 28h3M26 28h2M40 28h5M14 29h1M18 29h10M40 29h3M44 29h2M14 30h1M19 30h2M22 30h2M25 30h4M38 30h2M45 30h1M14 31h1M18 31h6M25 31h1M27 31h2M38 31h1M40 31h1M45 31h1M47 31h1M19 32h1M21 32h2M24 32h2M27 32h1M39 32h1M41 32h1M46 32h2M12 33h2M19 33h1M21 33h2M24 33h1M26 33h2M41 33h1M46 33h3M18 34h3M22 34h1M24 34h1M26 34h2M40 34h1M42 34h1M47 34h2M20 35h1M22 35h2M25 35h2M41 35h2M47 35h2M20 36h1M22 36h2M25 36h2M19 37h3M23 37h3M20 38h2M23 38h2M20 39h4" />
<path stroke="#90521b" d="M19 6h1M18 7h1M25 7h1M30 7h1M17 8h1M24 8h1M29 8h1M36 8h1M17 9h1M23 9h1M28 9h1M34 9h2M16 10h1M21 10h2M26 10h2M33 10h1M40 10h2M11 11h1M15 11h1M20 11h1M25 11h1M32 11h1M38 11h2M11 12h1M14 12h1M19 12h1M24 12h1M30 12h2M36 12h2M11 13h1M18 13h1M23 13h1M29 13h1M35 13h1M10 14h1M17 14h1M22 14h1M28 14h1M40 14h2M10 15h1M42 15h3M10 16h1M10 17h1M8 19h1M8 20h1M7 21h1M39 21h1M45 21h1M7 22h1M38 22h1M45 22h1M38 23h1M45 23h1M19 24h1M26 24h1M37 24h1M9 26h1M9 27h1M18 27h1M27 27h1M45 27h1M9 28h1M45 28h1M9 29h2M13 29h1M46 29h1M13 30h1M18 30h1M21 30h1M24 30h1M46 30h1M13 31h1M24 31h1M26 31h1M39 31h1M46 31h1M13 32h1M18 32h1M20 32h1M23 32h1M26 32h1M40 32h1M18 33h1M20 33h1M23 33h1M25 33h1M40 33h1M21 34h1M23 34h1M25 34h1M41 34h1M19 35h1M21 35h1M24 35h1M19 36h1M21 36h1M24 36h1M22 37h1M22 38h1" />
<path stroke="#825098" d="M14 16h28M13 17h1M42 17h6M12 18h1M14 18h28M48 18h1M11 19h1M13 19h1M42 19h5M48 19h2M11 20h2M47 20h3M48 21h3M49 22h2M49 23h3M50 24h1" />
<path stroke="#89549e" d="M14 17h28M13 18h1M42 18h6M12 19h1M47 19h1M31 32h1M34 32h4M29 33h2M32 33h2M28 34h1M30 34h2M35 34h1M38 34h1M18 35h1M27 35h3M32 35h3M38 35h1M18 36h1M27 36h1M29 36h1M35 36h1M37 36h1M39 36h1M17 37h1M27 37h2M32 37h2M35 37h1M19 38h1M25 38h1M28 38h1M31 38h1M35 38h1M39 38h1M24 39h1M28 39h1M31 39h1M33 39h2M39 39h1M20 40h1M23 40h1M25 40h1M28 40h1M30 40h1M32 40h1M34 40h1M18 41h1M22 41h1M27 41h1M29 41h1M31 41h2M35 41h1M19 42h1M21 42h1M24 42h1M26 42h1M28 42h1M33 42h1M35 42h1M19 43h1M22 43h2M25 43h1M27 43h2M31 43h1M34 43h1M20 44h1M23 44h2M26 44h2M29 44h2M33 44h1M19 45h1M23 45h1M25 45h4M34 45h2M18 46h1M20 46h1M24 46h1M29 46h1M33 46h1M18 47h2M21 47h1M23 47h1M25 47h2M28 47h1M31 47h1M34 47h2" />
<path stroke="#bcaea1" d="M14 19h2M35 19h3M34 20h2M34 21h2M34 22h2M40 22h4M34 23h2M40 23h4M34 24h2M40 24h4M34 25h2M40 25h4M34 26h2M38 26h6M34 27h2M38 27h6M34 28h6M34 29h6M15 30h3M29 30h9M15 31h3M29 31h9M28 32h3" />
<path stroke="#cebfb0" d="M16 19h16M18 20h12M32 20h2M12 21h22M12 22h2M16 22h16M12 23h2M16 23h3M22 23h2M27 23h5M12 24h6M22 24h2M28 24h6M12 25h6M20 25h6M28 25h6M12 26h6M20 26h2M25 26h1M28 26h6M13 27h5M20 27h6M28 27h6M14 28h4M20 28h2M25 28h1M28 28h6M15 29h3M28 29h6" />
<path stroke="#000000" d="M14 22h2M32 22h2M14 23h2M32 23h2M38 40h2M38 41h2" />
<path stroke="#5c544b" d="M22 26h3" />
<path stroke="#86ba67" d="M17 32h1M28 33h1M39 35h1M38 37h1M38 38h1M38 39h1M35 44h1" />
<path stroke="#74ba99" d="M32 32h2M34 33h4M21 40h1M20 41h1M26 41h1M31 44h1M31 45h1M30 46h1" />
<path stroke="#5d5eb7" d="M17 33h1M17 34h1M17 35h1M37 35h1M38 36h1M39 37h1M27 38h1M25 39h2M24 40h1M31 42h1M29 43h2M28 44h1" />
<path stroke="#75ba76" d="M31 33h1M32 34h2M26 37h1M26 38h1M23 41h1M34 41h1M22 42h1M34 42h1M34 46h1M24 47h1M32 47h2" />
<path stroke="#5e72b8" d="M29 34h1M30 35h2M32 36h2M21 43h1M33 43h1M22 44h1M32 44h1M22 45h1M32 45h1M23 46h1M31 46h1" />
<path stroke="#755fb7" d="M34 34h1M35 35h2M28 36h1M29 37h1M29 38h1M19 39h1M27 39h1M30 39h1M19 40h1M26 40h1M31 40h1M19 41h1M24 41h2M18 42h1M23 42h1M18 43h1M35 43h1M18 44h2M34 44h1M20 45h1M24 45h1M33 45h1M21 46h1M25 46h2M32 46h1M27 47h1" />
<path stroke="#8960b7" d="M36 34h2M31 36h1M31 37h1M32 38h1M32 39h1M22 40h1M33 40h1M21 41h1M33 41h1M20 42h1M32 42h1M20 43h1M32 43h1M21 44h1M21 45h1M29 45h2M22 46h1M27 46h2" />
<path stroke="#abbb68" d="M30 36h1M30 37h1M30 38h1M33 38h1M27 40h1M28 41h1M25 42h1M29 42h1M24 43h1M22 47h1M29 47h2" />
<path stroke="#6896b9" d="M34 36h1M18 37h1M34 37h1M18 38h1M34 38h1M18 39h1M29 39h1M35 39h1M18 40h1M29 40h1M35 40h1M30 41h1M27 42h1M30 42h1M26 43h1M25 44h1M35 46h1" />
<path stroke="#c3a07c" d="M17 38h1M17 39h1M15 40h3M15 41h3M16 42h2" />
<path stroke="#b29271" d="M37 42h3M37 43h3M37 44h2" />
<path stroke="#74bbbc" d="M18 45h1M19 46h1M20 47h1" />
<path stroke="#414b83" d="M18 48h6M28 48h8M18 49h6M28 49h8M18 50h18M18 51h18" />
<path stroke="#6d643b" d="M24 48h4M24 49h4" />
<path stroke="#262626" d="M18 52h4M32 52h4M18 53h4M32 53h4" />
</svg>