<svg xmlns="http://www.w3.org/2000/svg" viewBox="0 -0.5 48 56" shape-rendering="crispEdges">
<metadata>Made with Pixels to Svg https://codepen.io/shshaw/pen/XbxvNj</metadata>
<path stroke="#9e5c1f" d="M14 5h15M11 6h3M15 6h19M10 7h3M14 7h6M21 7h4M26 7h10M8 8h4M13 8h6M20 8h4M25 8h6M32 8h5M6 9h6M13 9h5M19 9h4M24 9h5M31 9h6M6 10h5M12 10h4M18 10h3M23 10h5M29 10h6M37 10h2M5 11h1M7 11h3M11 11h4M16 11h4M21 11h6M28 11h5M35 11h4M5 12h1M7 12h2M10 12h4M15 12h4M20 12h5M27 12h4M33 12h6M5 13h1M7 13h6M14 13h4M19 13h5M25 13h5M31 13h9M4 14h1M6 14h6M13 14h4M18 14h5M24 14h11M37 14h4M4 15h1M6 15h31M40 15h1M4 16h1M6 16h3M37 16h5M4 17h1M6 17h2M4 18h3M4 19h2M27 19h3M33 19h4M4 20h1M8 20h5M25 20h2M31 20h11M3 21h2M6 21h1M31 21h3M35 21h5M41 21h1M3 22h1M6 22h1M31 22h2M34 22h1M39 22h1M41 22h2M5 23h2M14 23h3M19 23h3M31 23h2M34 23h1M39 23h1M41 23h2M5 24h2M13 24h1M15 24h2M19 24h2M22 24h1M31 24h1M33 24h2M39 24h5M5 25h2M13 25h2M21 25h2M31 25h4M39 25h2M42 25h2M5 26h2M13 26h2M21 26h2M31 26h2M39 26h2M5 27h1M7 27h1M14 27h1M21 27h1M31 27h2M39 27h1M5 28h1M8 28h1M13 28h2M17 28h3M21 28h2M35 28h5M9 29h1M13 29h10M35 29h3M39 29h2M9 30h1M14 30h2M17 30h2M20 30h4M33 30h2M40 30h1M9 31h1M13 31h6M20 31h1M22 31h2M33 31h1M35 31h1M40 31h1M42 31h1M14 32h1M16 32h2M19 32h2M22 32h1M34 32h1M36 32h1M41 32h2M7 33h2M14 33h1M16 33h2M19 33h1M21 33h2M36 33h1M41 33h3M13 34h3M17 34h1M19 34h1M21 34h2M35 34h1M37 34h1M42 34h2M15 35h1M17 35h2M20 35h2M36 35h2M42 35h2M15 36h1M17 36h2M20 36h2M14 37h3M18 37h3M15 38h2M18 38h2M15 39h4" />
<path stroke="#90521b" d="M14 6h1M13 7h1M20 7h1M25 7h1M12 8h1M19 8h1M24 8h1M31 8h1M12 9h1M18 9h1M23 9h1M29 9h2M11 10h1M16 10h2M21 10h2M28 10h1M35 10h2M6 11h1M10 11h1M15 11h1M20 11h1M27 11h1M33 11h2M6 12h1M9 12h1M14 12h1M19 12h1M25 12h2M31 12h2M6 13h1M13 13h1M18 13h1M24 13h1M30 13h1M5 14h1M12 14h1M17 14h1M23 14h1M35 14h2M5 15h1M37 15h3M5 16h1M5 17h1M3 19h1M3 20h1M2 21h1M34 21h1M40 21h1M2 22h1M33 22h1M40 22h1M33 23h1M40 23h1M14 24h1M21 24h1M32 24h1M4 26h1M4 27h1M13 27h1M22 27h1M40 27h1M4 28h1M40 28h1M4 29h2M8 29h1M41 29h1M8 30h1M13 30h1M16 30h1M19 30h1M41 30h1M8 31h1M19 31h1M21 31h1M34 31h1M41 31h1M8 32h1M13 32h1M15 32h1M18 32h1M21 32h1M35 32h1M13 33h1M15 33h1M18 33h1M20 33h1M35 33h1M16 34h1M18 34h1M20 34h1M36 34h1M14 35h1M16 35h1M19 35h1M14 36h1M16 36h1M19 36h1M17 37h1M17 38h1" />
<path stroke="#825098" d="M9 16h28M8 17h1M37 17h6M7 18h1M9 18h28M43 18h1M6 19h1M8 19h1M37 19h5M43 19h2M6 20h2M42 20h3M43 21h3M44 22h2M44 23h3M45 24h1" />
<path stroke="#89549e" d="M9 17h28M8 18h1M37 18h6M7 19h1M42 19h1M26 32h1M29 32h4M24 33h2M27 33h2M23 34h1M25 34h2M30 34h1M33 34h1M13 35h1M22 35h3M27 35h3M33 35h1M13 36h1M22 36h1M24 36h1M30 36h1M32 36h1M34 36h1M12 37h1M22 37h2M27 37h2M30 37h1M14 38h1M20 38h1M23 38h1M26 38h1M30 38h1M34 38h1M19 39h1M23 39h1M26 39h1M28 39h2M34 39h1M15 40h1M18 40h1M20 40h1M23 40h1M25 40h1M27 40h1M29 40h1M13 41h1M17 41h1M22 41h1M24 41h1M26 41h2M30 41h1M14 42h1M16 42h1M19 42h1M21 42h1M23 42h1M28 42h1M30 42h1M14 43h1M17 43h2M20 43h1M22 43h2M26 43h1M29 43h1M15 44h1M18 44h2M21 44h2M24 44h2M28 44h1M14 45h1M18 45h1M20 45h4M29 45h2M13 46h1M15 46h1M19 46h1M24 46h1M28 46h1M13 47h2M16 47h1M18 47h1M20 47h2M23 47h1M26 47h1M29 47h2" />
<path stroke="#bcaea1" d="M9 19h2M30 19h3M29 20h2M29 21h2M29 22h2M35 22h4M29 23h2M35 23h4M29 24h2M35 24h4M29 25h2M35 25h4M29 26h2M33 26h6M29 27h2M33 27h6M29 28h6M29 29h6M10 30h3M24 30h9M10 31h3M24 31h9M23 32h3" />
<path stroke="#cebfb0" d="M11 19h16M13 20h12M27 20h2M7 21h22M7 22h2M11 22h16M7 23h2M11 23h3M17 23h2M22 23h5M7 24h6M17 24h2M23 24h6M7 25h6M15 25h6M23 25h6M7 26h6M15 26h2M20 26h1M23 26h6M8 27h5M15 27h6M23 27h6M9 28h4M15 28h2M20 28h1M23 28h6M10 29h3M23 29h6" />
<path stroke="#000000" d="M9 22h2M27 22h2M9 23h2M27 23h2M33 40h2M33 41h2" />
<path stroke="#5c544b" d="M17 26h3" />
<path stroke="#86ba67" d="M12 32h1M23 33h1M34 35h1M33 37h1M33 38h1M33 39h1M30 44h1" />
<path stroke="#74ba99" d="M27 32h2M29 33h4M16 40h1M15 41h1M21 41h1M26 44h1M26 45h1M25 46h1" />
<path stroke="#5d5eb7" d="M12 33h1M12 34h1M12 35h1M32 35h1M33 36h1M34 37h1M22 38h1M20 39h2M19 40h1M26 42h1M24 43h2M23 44h1" />
<path stroke="#75ba76" d="M26 33h1M27 34h2M21 37h1M21 38h1M18 41h1M29 41h1M17 42h1M29 42h1M29 46h1M19 47h1M27 47h2" />
<path stroke="#5e72b8" d="M24 34h1M25 35h2M27 36h2M16 43h1M28 43h1M17 44h1M27 44h1M17 45h1M27 45h1M18 46h1M26 46h1" />
<path stroke="#755fb7" d="M29 34h1M30 35h2M23 36h1M24 37h1M24 38h1M14 39h1M22 39h1M25 39h1M14 40h1M21 40h1M26 40h1M14 41h1M19 41h2M13 42h1M18 42h1M13 43h1M30 43h1M13 44h2M29 44h1M15 45h1M19 45h1M28 45h1M16 46h1M20 46h2M27 46h1M22 47h1" />
<path stroke="#8960b7" d="M31 34h2M26 36h1M26 37h1M27 38h1M27 39h1M17 40h1M28 40h1M16 41h1M28 41h1M15 42h1M27 42h1M15 43h1M27 43h1M16 44h1M16 45h1M24 45h2M17 46h1M22 46h2" />
<path stroke="#abbb68" d="M25 36h1M25 37h1M25 38h1M28 38h1M22 40h1M23 41h1M20 42h1M24 42h1M19 43h1M17 47h1M24 47h2" />
<path stroke="#6896b9" d="M29 36h1M13 37h1M29 37h1M13 38h1M29 38h1M13 39h1M24 39h1M30 39h1M13 40h1M24 40h1M30 40h1M25 41h1M22 42h1M25 42h1M21 43h1M20 44h1M30 46h1" />
<path stroke="#c3a07c" d="M12 38h1M12 39h1M10 40h3M10 41h3M11 42h2" />
<path stroke="#b29271" d="M32 42h3M32 43h3M32 44h2" />
<path stroke="#74bbbc" d="M13 45h1M14 46h1M15 47h1" />
<path stroke="#414b83" d="M13 48h6M23 48h8M13 49h6M23 49h8M13 50h18M13 51h18" />
<path stroke="#6d643b" d="M19 48h4M19 49h4" />
<path stroke="#262626" d="M13 52h4M27 52h4M13 53h4M27 53h4" />
</svg>