<svg xmlns="http://www.w3.org/2000/svg" viewBox="0 -0.5 174 129" shape-rendering="crispEdges">
<metadata>Made with Pixels to Svg https://codepen.io/shshaw/pen/XbxvNj</metadata>
<path stroke="#000000" d="M50 3h8M116 3h8M43 4h7M58 4h3M113 4h3M124 4h7M43 5h1M61 5h4M109 5h4M130 5h1M44 6h1M53 6h4M65 6h3M106 6h3M117 6h4M129 6h1M3 7h6M44 7h5M68 7h3M103 7h3M125 7h5M165 7h6M2 8h1M9 8h156M171 8h1M2 9h1M9 9h2M163 9h2M171 9h1M2 10h1M10 10h1M163 10h1M171 10h1M2 11h1M10 11h154M171 11h1M2 12h1M10 12h1M163 12h1M171 12h1M2 13h1M10 13h1M163 13h1M171 13h1M3 14h2M9 14h2M163 14h2M169 14h2M3 15h7M164 15h7M3 16h1M6 16h1M167 16h1M170 16h1M3 17h1M6 17h1M167 17h1M170 17h1M3 18h1M6 18h1M167 18h1M170 18h1M3 19h4M167 19h4M3 20h1M6 20h1M167 20h1M170 20h1M3 21h1M6 21h1M167 21h1M170 21h1M3 22h4M167 22h4M3 23h1M6 23h1M167 23h1M170 23h1M3 24h1M6 24h1M167 24h1M170 24h1M3 25h1M6 25h1M167 25h1M170 25h1M3 26h4M167 26h4M3 27h1M6 27h1M167 27h1M170 27h1M3 28h1M6 28h1M167 28h1M170 28h1M3 29h4M167 29h4M3 30h1M6 30h1M167 30h1M170 30h1M3 31h1M6 31h1M167 31h1M170 31h1M3 32h1M6 32h1M167 32h1M170 32h1M3 33h4M167 33h4M3 34h1M6 34h1M167 34h1M170 34h1M3 35h1M6 35h1M167 35h1M170 35h1M3 36h4M167 36h4M3 37h1M6 37h1M167 37h1M170 37h1M3 38h1M6 38h1M167 38h1M170 38h1M3 39h1M6 39h1M167 39h1M170 39h1M3 40h1M6 40h1M167 40h1M170 40h1M3 41h1M6 41h1M167 41h1M170 41h1M3 42h4M167 42h4M3 43h1M6 43h1M167 43h1M170 43h1M3 44h1M6 44h1M167 44h1M170 44h1M3 45h4M167 45h4M3 46h1M6 46h1M167 46h1M170 46h1M3 47h1M6 47h1M167 47h1M170 47h1M3 48h1M6 48h1M167 48h1M170 48h1M3 49h1M6 49h1M167 49h1M170 49h1M3 50h1M6 50h1M167 50h1M170 50h1M3 51h4M167 51h4M3 52h1M6 52h1M167 52h1M170 52h1M3 53h1M6 53h1M167 53h1M170 53h1M3 54h4M167 54h4M3 55h1M6 55h1M167 55h1M170 55h1M3 56h1M6 56h1M167 56h1M170 56h1M3 57h1M6 57h1M167 57h1M170 57h1M3 58h1M6 58h1M167 58h1M170 58h1M3 59h1M6 59h1M109 59h4M154 59h4M167 59h1M170 59h1M3 60h1M6 60h1M108 60h1M113 60h41M158 60h1M167 60h1M170 60h1M3 61h1M6 61h1M108 61h1M114 61h1M152 61h1M158 61h1M167 61h1M170 61h1M3 62h1M6 62h1M108 62h1M114 62h1M152 62h1M158 62h1M167 62h1M170 62h1M3 63h1M6 63h1M108 63h1M114 63h39M158 63h1M167 63h1M170 63h1M3 64h1M6 64h1M109 64h1M113 64h1M153 64h1M157 64h1M167 64h1M170 64h1M3 65h1M6 65h1M109 65h4M154 65h4M167 65h1M170 65h1M3 66h1M6 66h1M109 66h1M112 66h1M154 66h1M157 66h1M167 66h1M170 66h1M3 67h1M6 67h1M109 67h1M112 67h1M154 67h1M157 67h1M167 67h1M170 67h1M3 68h1M6 68h1M23 68h13M38 68h12M54 68h12M68 68h14M84 68h15M109 68h1M112 68h1M154 68h1M157 68h1M167 68h1M170 68h1M3 69h1M6 69h1M22 69h1M35 69h1M38 69h1M49 69h1M54 69h1M65 69h1M68 69h1M81 69h1M84 69h1M99 69h1M109 69h1M112 69h1M154 69h1M157 69h1M167 69h1M170 69h1M3 70h1M6 70h1M21 70h2M35 70h4M49 70h6M65 70h4M81 70h4M99 70h1M109 70h1M112 70h1M154 70h1M157 70h1M167 70h1M170 70h1M3 71h4M20 71h1M27 71h10M43 71h2M51 71h2M59 71h2M67 71h2M75 71h2M83 71h2M91 71h8M109 71h1M112 71h1M154 71h1M157 71h1M167 71h4M3 72h1M6 72h1M20 72h1M27 72h10M43 72h2M51 72h2M59 72h2M67 72h2M75 72h2M83 72h2M91 72h7M109 72h4M154 72h4M167 72h1M170 72h1M3 73h1M6 73h1M21 73h2M33 73h4M43 73h10M59 73h2M67 73h2M75 73h2M83 73h2M97 73h1M109 73h1M112 73h1M154 73h1M157 73h1M167 73h1M170 73h1M3 74h4M22 74h1M33 74h4M43 74h10M59 74h2M67 74h2M75 74h2M83 74h2M97 74h1M109 74h1M112 74h1M154 74h1M157 74h1M167 74h4M3 75h1M6 75h1M23 75h6M35 75h2M43 75h2M51 75h2M59 75h2M67 75h2M81 75h4M91 75h7M109 75h4M154 75h4M167 75h1M170 75h1M3 76h1M6 76h1M21 76h8M35 76h2M43 76h2M51 76h2M59 76h2M67 76h2M81 76h4M91 76h8M109 76h1M112 76h1M154 76h1M157 76h1M167 76h1M170 76h1M3 77h1M6 77h1M20 77h1M33 77h6M49 77h6M65 77h4M75 77h2M83 77h2M99 77h1M109 77h1M112 77h1M154 77h1M157 77h1M167 77h1M170 77h1M3 78h1M6 78h1M20 78h1M33 78h1M38 78h1M49 78h1M54 78h1M65 78h1M68 78h1M75 78h2M83 78h2M99 78h1M109 78h1M112 78h1M154 78h1M157 78h1M167 78h1M170 78h1M3 79h1M6 79h1M21 79h13M38 79h12M54 79h12M68 79h31M109 79h1M112 79h1M154 79h1M157 79h1M167 79h1M170 79h1M3 80h4M109 80h1M112 80h1M154 80h1M157 80h1M167 80h4M3 81h1M6 81h1M109 81h4M154 81h4M167 81h1M170 81h1M3 82h1M6 82h1M109 82h1M113 82h1M153 82h1M157 82h1M167 82h1M170 82h1M3 83h4M108 83h1M114 83h39M158 83h1M167 83h4M3 84h1M6 84h1M108 84h1M114 84h1M152 84h1M158 84h1M167 84h1M170 84h1M3 85h1M6 85h1M108 85h1M114 85h1M152 85h1M158 85h1M167 85h1M170 85h1M3 86h1M6 86h1M108 86h1M113 86h41M158 86h1M167 86h1M170 86h1M3 87h1M6 87h1M109 87h4M154 87h4M167 87h1M170 87h1M3 88h1M6 88h1M167 88h1M170 88h1M3 89h4M167 89h4M3 90h1M6 90h1M167 90h1M170 90h1M3 91h1M6 91h1M167 91h1M170 91h1M3 92h4M167 92h4M3 93h1M6 93h1M167 93h1M170 93h1M3 94h1M6 94h1M167 94h1M170 94h1M3 95h1M6 95h1M167 95h1M170 95h1M3 96h1M6 96h1M167 96h1M170 96h1M3 97h4M167 97h4M3 98h1M6 98h1M167 98h1M170 98h1M3 99h1M6 99h1M167 99h1M170 99h1M3 100h4M167 100h4M3 101h1M6 101h1M167 101h1M170 101h1M3 102h1M6 102h1M167 102h1M170 102h1M3 103h1M6 103h1M167 103h1M170 103h1M3 104h4M167 104h4M3 105h1M6 105h1M167 105h1M170 105h1M3 106h1M6 106h1M167 106h1M170 106h1M3 107h4M167 107h4M3 108h1M6 108h1M167 108h1M170 108h1M3 109h1M6 109h1M167 109h1M170 109h1M3 110h1M6 110h1M167 110h1M170 110h1M3 111h4M167 111h4M3 112h1M6 112h1M167 112h1M170 112h1M3 113h1M6 113h1M167 113h1M170 113h1M3 114h4M167 114h4M3 115h1M6 115h1M167 115h1M170 115h1M3 116h1M6 116h1M167 116h1M170 116h1M3 117h1M6 117h1M167 117h1M170 117h1M3 118h7M164 118h7M3 119h2M9 119h2M163 119h2M169 119h2M2 120h1M10 120h1M163 120h1M171 120h1M2 121h1M10 121h1M163 121h1M171 121h1M2 122h1M10 122h154M171 122h1M2 123h1M10 123h1M163 123h1M171 123h1M2 124h1M9 124h2M163 124h2M171 124h1M2 125h1M9 125h156M171 125h1M3 126h6M165 126h6" />
<path stroke="#d8c5b2" d="M50 4h1M123 4h1M44 5h1M129 5h1M57 6h1M116 6h1M3 8h2M169 8h2M3 9h2M169 9h2M109 60h1M157 60h1M109 86h1M157 86h1M3 124h2M169 124h2M3 125h2M169 125h2" />
<path stroke="#b49c83" d="M51 4h7M116 4h7M45 5h5M124 5h5M8 8h1M165 8h1M8 9h1M165 9h1M6 10h3M165 10h3M5 11h3M166 11h3M5 12h3M166 12h3M3 13h3M168 13h3M112 60h1M154 60h1M111 61h2M154 61h2M110 62h2M155 62h2M109 63h2M156 63h2M109 83h2M156 83h2M110 84h2M155 84h2M111 85h2M154 85h2M112 86h1M154 86h1M3 120h3M168 120h3M5 121h3M166 121h3M5 122h3M166 122h3M6 123h3M165 123h3M8 124h1M165 124h1M8 125h1M165 125h1" />
<path stroke="#a38e75" d="M50 5h11M113 5h11M45 6h8M58 6h7M109 6h7M121 6h8M49 7h19M106 7h19M9 10h1M164 10h1M8 11h2M164 11h2M8 12h2M164 12h2M6 13h4M164 13h4M5 14h4M165 14h4M113 61h1M153 61h1M112 62h2M153 62h2M111 63h3M153 63h3M110 64h3M154 64h3M110 82h3M154 82h3M111 83h3M153 83h3M112 84h2M153 84h2M113 85h1M153 85h1M5 119h4M165 119h4M6 120h4M164 120h4M8 121h2M164 121h2M8 122h2M164 122h2M9 123h1M164 123h1" />
<path stroke="#c4ab8f" d="M5 8h3M166 8h3M5 9h3M166 9h3M3 10h3M168 10h3M3 11h2M169 11h2M3 12h2M169 12h2M110 60h2M155 60h2M109 61h2M156 61h2M109 62h1M157 62h1M109 84h1M157 84h1M109 85h2M156 85h2M110 86h2M155 86h2M3 121h2M169 121h2M3 122h2M169 122h2M3 123h3M168 123h3M5 124h3M166 124h3M5 125h3M166 125h3" />
<path stroke="#433838" d="M11 9h2M23 9h4M34 9h2M45 9h4M63 9h5M71 9h5M92 9h6M105 9h2M117 9h2M125 9h5M144 9h4M161 9h2M11 10h3M159 10h4M5 16h1M168 16h1M5 17h1M168 17h1M5 18h1M168 18h1M5 23h1M168 23h1M5 24h1M168 24h1M5 25h1M168 25h1M5 30h1M168 30h1M5 31h1M168 31h1M5 32h1M168 32h1M5 37h1M168 37h1M5 38h1M168 38h1M5 39h1M168 39h1M5 40h1M168 40h1M5 41h1M168 41h1M5 46h1M168 46h1M5 47h1M168 47h1M5 48h1M168 48h1M5 49h1M168 49h1M5 50h1M168 50h1M5 55h1M168 55h1M5 56h1M168 56h1M5 57h1M168 57h1M5 58h1M168 58h1M5 59h1M168 59h1M5 60h1M168 60h1M5 61h1M117 61h2M129 61h4M134 61h1M148 61h2M168 61h1M5 62h1M115 62h5M146 62h6M168 62h1M5 63h1M168 63h1M5 64h1M168 64h1M5 65h1M168 65h1M5 66h1M111 66h1M155 66h1M168 66h1M5 67h1M111 67h1M155 67h1M168 67h1M5 68h1M111 68h1M155 68h1M168 68h1M5 69h1M111 69h1M155 69h1M168 69h1M5 70h1M111 70h1M155 70h1M168 70h1M111 71h1M155 71h1M5 75h1M168 75h1M5 76h1M111 76h1M155 76h1M168 76h1M5 77h1M111 77h1M155 77h1M168 77h1M5 78h1M111 78h1M155 78h1M168 78h1M5 79h1M111 79h1M155 79h1M168 79h1M111 80h1M155 80h1M5 84h1M115 84h5M146 84h6M168 84h1M5 85h1M117 85h2M122 85h4M134 85h1M148 85h2M168 85h1M5 86h1M168 86h1M5 87h1M168 87h1M5 88h1M168 88h1M5 93h1M168 93h1M5 94h1M168 94h1M5 95h1M168 95h1M5 96h1M168 96h1M5 101h1M168 101h1M5 102h1M168 102h1M5 103h1M168 103h1M5 108h1M168 108h1M5 109h1M168 109h1M5 110h1M168 110h1M5 115h1M168 115h1M5 116h1M168 116h1M5 117h1M168 117h1M11 123h3M159 123h4M11 124h2M16 124h4M32 124h3M45 124h4M63 124h5M72 124h5M93 124h6M105 124h2M117 124h2M125 124h5M144 124h4M161 124h2" />
<path stroke="#362e2e" d="M13 9h10M27 9h7M36 9h9M49 9h14M68 9h3M76 9h16M98 9h7M107 9h10M119 9h6M130 9h14M148 9h13M119 61h10M133 61h1M135 61h13M119 85h3M126 85h8M135 85h13M13 124h3M20 124h12M35 124h10M49 124h14M68 124h4M77 124h16M99 124h6M107 124h10M119 124h6M130 124h14M148 124h13" />
<path stroke="#2d2626" d="M14 10h145M120 62h26M120 84h26M14 123h145" />
<path stroke="#616161" d="M11 12h152M11 13h152M11 14h152M10 15h154M7 16h8M159 16h8M7 17h7M160 17h7M7 18h6M161 18h6M7 19h5M162 19h5M7 20h4M163 20h4M7 21h4M163 21h4M7 22h4M163 22h4M7 23h4M163 23h4M7 24h4M163 24h4M7 25h4M163 25h4M7 26h4M163 26h4M7 27h4M163 27h4M7 28h4M163 28h4M7 29h4M163 29h4M7 30h4M163 30h4M7 31h4M163 31h4M7 32h4M163 32h4M7 33h4M163 33h4M7 34h4M163 34h4M7 35h4M163 35h4M7 36h4M163 36h4M7 37h4M163 37h4M7 38h4M163 38h4M7 39h4M163 39h4M7 40h4M163 40h4M7 41h4M163 41h4M7 42h4M163 42h4M7 43h4M163 43h4M7 44h4M163 44h4M7 45h4M163 45h4M7 46h4M163 46h4M7 47h4M163 47h4M7 48h4M163 48h4M7 49h4M163 49h4M7 50h4M163 50h4M7 51h4M163 51h4M7 52h4M163 52h4M7 53h4M163 53h4M7 54h4M163 54h4M7 55h4M163 55h4M7 56h4M163 56h4M7 57h4M163 57h4M7 58h4M163 58h4M7 59h4M163 59h4M7 60h4M163 60h4M7 61h4M163 61h4M7 62h4M163 62h4M7 63h4M163 63h4M7 64h4M114 64h39M163 64h4M7 65h4M113 65h41M163 65h4M7 66h4M113 66h6M148 66h6M163 66h4M7 67h4M113 67h5M149 67h5M163 67h4M7 68h4M113 68h4M150 68h4M163 68h4M7 69h4M113 69h3M151 69h3M163 69h4M7 70h4M113 70h2M152 70h2M163 70h4M7 71h4M113 71h2M152 71h2M163 71h4M7 72h4M113 72h2M152 72h2M163 72h4M7 73h4M113 73h2M152 73h2M163 73h4M7 74h4M113 74h2M152 74h2M163 74h4M7 75h4M113 75h2M152 75h2M163 75h4M7 76h4M113 76h2M152 76h2M163 76h4M7 77h4M113 77h3M151 77h3M163 77h4M7 78h4M113 78h4M150 78h4M163 78h4M7 79h4M113 79h5M149 79h5M163 79h4M7 80h4M113 80h6M148 80h6M163 80h4M7 81h4M113 81h41M163 81h4M7 82h4M114 82h39M163 82h4M7 83h4M163 83h4M7 84h4M163 84h4M7 85h4M163 85h4M7 86h4M163 86h4M7 87h4M163 87h4M7 88h4M163 88h4M7 89h4M163 89h4M7 90h4M163 90h4M7 91h4M163 91h4M7 92h4M163 92h4M7 93h4M163 93h4M7 94h4M163 94h4M7 95h4M163 95h4M7 96h4M163 96h4M7 97h4M163 97h4M7 98h4M163 98h4M7 99h4M163 99h4M7 100h4M163 100h4M7 101h4M163 101h4M7 102h4M163 102h4M7 103h4M163 103h4M7 104h4M163 104h4M7 105h4M163 105h4M7 106h4M163 106h4M7 107h4M163 107h4M7 108h4M163 108h4M7 109h4M163 109h4M7 110h4M163 110h4M7 111h4M163 111h4M7 112h4M163 112h4M7 113h4M163 113h4M7 114h5M162 114h5M7 115h6M161 115h6M7 116h7M160 116h7M7 117h8M159 117h8M10 118h154M11 119h152M11 120h152M11 121h152" />
<path stroke="#534645" d="M4 16h1M169 16h1M4 17h1M169 17h1M4 18h1M169 18h1M4 23h1M169 23h1M4 24h1M169 24h1M4 25h1M169 25h1M4 30h1M169 30h1M4 31h1M169 31h1M4 32h1M169 32h1M4 37h1M169 37h1M4 38h1M169 38h1M4 39h1M169 39h1M4 40h1M169 40h1M4 41h1M169 41h1M4 46h1M169 46h1M4 47h1M169 47h1M4 48h1M169 48h1M4 49h1M169 49h1M4 50h1M169 50h1M4 55h1M169 55h1M4 56h1M169 56h1M4 57h1M169 57h1M4 58h1M169 58h1M4 59h1M169 59h1M4 60h1M169 60h1M4 61h1M115 61h2M150 61h2M169 61h1M4 62h1M169 62h1M4 63h1M169 63h1M4 64h1M169 64h1M4 65h1M169 65h1M4 66h1M169 66h1M4 67h1M169 67h1M4 68h1M110 68h1M156 68h1M169 68h1M4 69h1M110 69h1M156 69h1M169 69h1M4 70h1M110 70h1M156 70h1M169 70h1M110 71h1M156 71h1M4 75h1M169 75h1M4 76h1M110 76h1M156 76h1M169 76h1M4 77h1M110 77h1M156 77h1M169 77h1M4 78h1M110 78h1M156 78h1M169 78h1M4 79h1M169 79h1M4 84h1M169 84h1M4 85h1M115 85h2M150 85h2M169 85h1M4 86h1M169 86h1M4 87h1M169 87h1M4 88h1M169 88h1M4 93h1M169 93h1M4 94h1M169 94h1M4 95h1M169 95h1M4 96h1M169 96h1M4 101h1M169 101h1M4 102h1M169 102h1M4 103h1M169 103h1M4 108h1M169 108h1M4 109h1M169 109h1M4 110h1M169 110h1M4 115h1M169 115h1M4 116h1M169 116h1M4 117h1M169 117h1" />
<path stroke="#6f6f6f" d="M15 16h144M14 17h146M13 18h148M12 19h150M11 20h152M11 21h152M11 22h152M11 23h152M11 24h152M11 25h152M11 26h152M11 27h152M11 28h152M11 29h152M11 30h152M11 31h152M11 32h152M11 33h152M11 34h152M11 35h152M11 36h152M11 37h152M11 38h152M11 39h152M11 40h152M11 41h152M11 42h152M11 43h152M11 44h152M11 45h152M11 46h152M11 47h152M11 48h152M11 49h152M11 50h152M11 51h152M11 52h152M11 53h152M11 54h152M11 55h152M11 56h152M11 57h152M11 58h152M11 59h98M113 59h41M158 59h5M11 60h97M159 60h4M11 61h97M159 61h4M11 62h97M159 62h4M11 63h97M159 63h4M11 64h98M158 64h5M11 65h98M158 65h5M11 66h98M119 66h29M158 66h5M11 67h98M118 67h31M158 67h5M11 68h12M36 68h2M50 68h4M66 68h2M82 68h2M99 68h10M117 68h33M158 68h5M11 69h11M36 69h2M50 69h4M66 69h2M82 69h2M100 69h9M116 69h35M158 69h5M11 70h10M100 70h9M115 70h37M158 70h5M11 71h9M99 71h10M115 71h37M158 71h5M11 72h9M98 72h11M115 72h37M158 72h5M11 73h10M98 73h11M115 73h37M158 73h5M11 74h11M98 74h11M115 74h37M158 74h5M11 75h12M98 75h11M115 75h37M158 75h5M11 76h10M99 76h10M115 76h37M158 76h5M11 77h9M100 77h9M116 77h35M158 77h5M11 78h9M34 78h4M50 78h4M66 78h2M100 78h9M117 78h33M158 78h5M11 79h10M34 79h4M50 79h4M66 79h2M99 79h10M118 79h31M158 79h5M11 80h98M119 80h29M158 80h5M11 81h98M158 81h5M11 82h98M158 82h5M11 83h97M159 83h4M11 84h97M159 84h4M11 85h97M159 85h4M11 86h97M159 86h4M11 87h98M113 87h41M158 87h5M11 88h152M11 89h152M11 90h152M11 91h152M11 92h152M11 93h152M11 94h152M11 95h152M11 96h152M11 97h152M11 98h152M11 99h152M11 100h152M11 101h152M11 102h152M11 103h152M11 104h152M11 105h152M11 106h152M11 107h152M11 108h152M11 109h152M11 110h152M11 111h152M11 112h152M11 113h152M12 114h150M13 115h148M14 116h146M15 117h144" />
<path stroke="#9eadb6" d="M4 20h1M169 20h1M4 21h1M169 21h1M4 27h1M169 27h1M4 28h1M169 28h1M4 34h1M169 34h1M4 35h1M169 35h1M4 43h1M169 43h1M4 44h1M169 44h1M4 52h1M169 52h1M4 53h1M169 53h1M4 72h1M169 72h1M4 73h1M110 73h1M156 73h1M169 73h1M110 74h1M156 74h1M4 81h1M169 81h1M4 82h1M169 82h1M4 90h1M169 90h1M4 91h1M169 91h1M4 98h1M169 98h1M4 99h1M169 99h1M4 105h1M169 105h1M4 106h1M169 106h1M4 112h1M169 112h1M4 113h1M169 113h1" />
<path stroke="#737e84" d="M5 20h1M168 20h1M5 21h1M168 21h1M5 27h1M168 27h1M5 28h1M168 28h1M5 34h1M168 34h1M5 35h1M168 35h1M5 43h1M168 43h1M5 44h1M168 44h1M5 52h1M168 52h1M5 53h1M168 53h1M5 72h1M168 72h1M5 73h1M111 73h1M155 73h1M168 73h1M111 74h1M155 74h1M5 81h1M168 81h1M5 82h1M168 82h1M5 90h1M168 90h1M5 91h1M168 91h1M5 98h1M168 98h1M5 99h1M168 99h1M5 105h1M168 105h1M5 106h1M168 106h1M5 112h1M168 112h1M5 113h1M168 113h1" />
<path stroke="#5e504f" d="M110 66h1M156 66h1M110 67h1M156 67h1M110 79h1M156 79h1M110 80h1M156 80h1" />
<path stroke="#ffffff" d="M23 69h12M39 69h10M55 69h10M69 69h12M85 69h14M23 70h12M39 70h10M55 70h10M69 70h12M85 70h14M21 71h6M37 71h6M45 71h6M53 71h6M61 71h6M69 71h6M77 71h6M85 71h6M21 72h6M37 72h6M45 72h6M53 72h6M61 72h6M69 72h6M77 72h6M85 72h6M23 73h10M37 73h6M53 73h6M61 73h6M69 73h6M77 73h6M85 73h12M23 74h10M37 74h6M53 74h6M61 74h6M69 74h6M77 74h6M85 74h12M29 75h6M37 75h6M45 75h6M53 75h6M61 75h6M69 75h12M85 75h6M29 76h6M37 76h6M45 76h6M53 76h6M61 76h6M69 76h12M85 76h6M21 77h12M39 77h10M55 77h10M69 77h6M77 77h6M85 77h14M21 78h12M39 78h10M55 78h10M69 78h6M77 78h6M85 78h14" />
</svg>