<svg xmlns="http://www.w3.org/2000/svg" viewBox="0 -0.5 40 53" shape-rendering="crispEdges">
<metadata>Made with Pixels to Svg https://codepen.io/shshaw/pen/XbxvNj</metadata>
<path stroke="#818181" d="M12 3h19M11 4h20M8 5h9M18 5h15M7 6h9M17 6h16M6 7h8M16 7h9M27 7h8M5 8h8M14 8h7M25 8h10M5 9h3M9 9h3M13 9h4M21 9h12M36 9h1M5 10h3M9 10h2M12 10h3M17 10h12M33 10h4M4 11h4M9 11h18M29 11h9M3 12h3M7 12h1M9 12h29M2 13h3M6 13h2M9 13h8M31 13h2M37 13h1M2 14h3M6 14h1M8 14h9M31 14h7M2 15h2M5 15h2M8 15h3M35 15h3M2 16h5M8 16h3M35 16h4M2 17h5M8 17h3M37 17h2M2 18h1M4 18h7M37 18h2M2 19h1M4 19h9M37 19h2M2 20h1M4 20h9M37 20h2M3 21h2M9 21h4M37 21h2M3 22h2M9 22h4M37 22h1M3 23h2M9 23h4M37 23h1M2 24h3M9 24h4M37 24h1M2 25h3M11 25h2M37 25h1M2 26h3M11 26h2M36 26h2M2 27h7M35 27h2M2 28h1M5 28h4M34 28h2M2 29h3M7 29h4M34 29h1M36 29h1M3 30h4M8 30h3M34 30h3M4 31h7M32 31h4M5 32h5M33 32h2" />
<path stroke="#9e9e9e" d="M17 5h1M16 6h1M14 7h2M25 7h2M13 8h1M21 8h4M8 9h1M12 9h1M17 9h4M33 9h3M8 10h1M11 10h1M15 10h2M29 10h4M8 11h1M27 11h2M6 12h1M8 12h1M5 13h1M8 13h1M33 13h4M5 14h1M7 14h1M4 15h1M7 15h1M7 16h1M7 17h1M3 18h1M3 19h1M3 20h1M2 21h1M2 22h1M2 23h1M3 28h2M36 28h1M5 29h2M35 29h1M7 30h1" />
</svg>