<svg xmlns="http://www.w3.org/2000/svg" viewBox="0 -0.5 37 50" shape-rendering="crispEdges">
<metadata>Made with Pixels to Svg https://codepen.io/shshaw/pen/XbxvNj</metadata>
<path stroke="#b6b05c" d="M10 0h19M9 1h20M6 2h8M15 2h8M24 2h7M5 3h10M17 3h7M25 3h6M4 4h13M19 4h6M26 4h7M3 5h5M9 5h10M21 5h4M26 5h7M3 6h6M11 6h10M22 6h4M27 6h4M32 6h3M3 7h8M13 7h14M28 7h3M32 7h3M2 8h11M14 8h17M32 8h4M1 9h5M7 9h25M33 9h3M0 10h5M6 10h9M29 10h3M33 10h3M0 11h5M6 11h9M29 11h7M0 12h4M5 12h4M33 12h3M0 13h4M5 13h4M33 13h4M0 14h3M4 14h5M35 14h2M0 15h3M4 15h5M36 15h1M0 16h2M3 16h8M36 16h1M0 17h11M36 17h1M0 18h3M7 18h4M36 18h1M0 19h1M2 19h1M7 19h4M35 19h1M0 20h1M2 20h1M7 20h4M35 20h1M1 21h2M7 21h4M35 21h1M1 22h2M9 22h2M35 22h1M1 23h2M9 23h2M34 23h2M0 24h7M33 24h1M0 25h2M3 25h4M32 25h2M0 26h3M4 26h5M32 26h1M34 26h1M1 27h3M6 27h3M32 27h1M34 27h1M2 28h4M7 28h2M30 28h4M3 29h5M31 29h2" />
<path stroke="#9e994f" d="M14 2h1M23 2h1M15 3h2M24 3h1M17 4h2M25 4h1M8 5h1M19 5h2M25 5h1M9 6h2M21 6h1M26 6h1M31 6h1M11 7h2M27 7h1M31 7h1M13 8h1M31 8h1M6 9h1M32 9h1M5 10h1M32 10h1M5 11h1M4 12h1M4 13h1M3 14h1M3 15h1M35 15h1M2 16h1M35 16h1M35 17h1M35 18h1M1 19h1M1 20h1M0 21h1M0 22h1M0 23h1M34 24h1M2 25h1M34 25h1M3 26h1M33 26h1M4 27h2M33 27h1M6 28h1" />
</svg>