<svg xmlns="http://www.w3.org/2000/svg" viewBox="0 -0.5 37 50" shape-rendering="crispEdges">
<metadata>Made with Pixels to Svg https://codepen.io/shshaw/pen/XbxvNj</metadata>
<path stroke="#34261a" d="M10 0h19M9 1h20M6 2h25M5 3h26M4 4h29M3 5h30M3 6h32M3 7h32M2 8h34M1 9h35M0 10h15M29 10h7M0 11h15M29 11h7M0 12h9M33 12h3M0 13h9M33 13h4M0 14h9M35 14h2M0 15h9M35 15h2M0 16h11M35 16h2M0 17h11M35 17h2M0 18h3M7 18h4M35 18h2M0 19h3M7 19h4M35 19h1M0 20h3M7 20h4M35 20h1M0 21h3M7 21h4M35 21h1M0 22h3M9 22h2M35 22h1M0 23h3M9 23h2M34 23h2M0 24h7M33 24h2M0 25h7M32 25h3M0 26h9M32 26h3M1 27h8M32 27h3M2 28h7M30 28h4M3 29h5M31 29h2" />
</svg>