<svg xmlns="http://www.w3.org/2000/svg" viewBox="0 -0.5 37 50" shape-rendering="crispEdges">
<metadata>Made with Pixels to Svg https://codepen.io/shshaw/pen/XbxvNj</metadata>
<path stroke="#818181" d="M10 0h19M9 1h20M6 2h9M16 2h15M5 3h9M15 3h16M4 4h8M14 4h9M25 4h8M3 5h8M12 5h7M23 5h10M3 6h3M7 6h3M11 6h4M19 6h12M34 6h1M3 7h3M7 7h2M10 7h3M15 7h12M31 7h4M2 8h4M7 8h18M27 8h9M1 9h3M5 9h1M7 9h29M0 10h3M4 10h2M7 10h8M29 10h2M35 10h1M0 11h3M4 11h1M6 11h9M29 11h7M0 12h2M3 12h2M6 12h3M33 12h3M0 13h5M6 13h3M33 13h4M0 14h5M6 14h3M35 14h2M0 15h1M2 15h7M35 15h2M0 16h1M2 16h9M35 16h2M0 17h1M2 17h9M35 17h2M1 18h2M7 18h4M35 18h2M1 19h2M7 19h4M35 19h1M1 20h2M7 20h4M35 20h1M0 21h3M7 21h4M35 21h1M0 22h3M9 22h2M35 22h1M0 23h3M9 23h2M34 23h2M0 24h7M33 24h2M0 25h1M3 25h4M32 25h2M0 26h3M5 26h4M32 26h1M34 26h1M1 27h4M6 27h3M32 27h3M2 28h7M30 28h4M3 29h5M31 29h2" />
<path stroke="#9e9e9e" d="M15 2h1M14 3h1M12 4h2M23 4h2M11 5h1M19 5h4M6 6h1M10 6h1M15 6h4M31 6h3M6 7h1M9 7h1M13 7h2M27 7h4M6 8h1M25 8h2M4 9h1M6 9h1M3 10h1M6 10h1M31 10h4M3 11h1M5 11h1M2 12h1M5 12h1M5 13h1M5 14h1M1 15h1M1 16h1M1 17h1M0 18h1M0 19h1M0 20h1M1 25h2M34 25h1M3 26h2M33 26h1M5 27h1" />
</svg>