<svg xmlns="http://www.w3.org/2000/svg" viewBox="0 -0.5 40 53" shape-rendering="crispEdges">
<metadata>Made with Pixels to Svg https://codepen.io/shshaw/pen/XbxvNj</metadata>
<path stroke="#b6b05c" d="M12 3h19M11 4h20M8 5h8M17 5h8M26 5h7M7 6h10M19 6h7M27 6h6M6 7h13M21 7h6M28 7h7M5 8h5M11 8h10M23 8h4M28 8h7M5 9h6M13 9h10M24 9h4M29 9h4M34 9h3M5 10h8M15 10h14M30 10h3M34 10h3M4 11h11M16 11h17M34 11h4M3 12h5M9 12h25M35 12h3M2 13h5M8 13h9M31 13h3M35 13h3M2 14h5M8 14h9M31 14h7M2 15h4M7 15h4M35 15h3M2 16h4M7 16h4M35 16h4M2 17h3M6 17h5M37 17h2M2 18h3M6 18h5M38 18h1M2 19h2M5 19h8M38 19h1M2 20h11M38 20h1M2 21h3M9 21h4M38 21h1M2 22h1M4 22h1M9 22h4M37 22h1M2 23h1M4 23h1M9 23h4M37 23h1M3 24h2M9 24h4M37 24h1M3 25h2M11 25h2M37 25h1M3 26h2M11 26h2M36 26h2M2 27h7M35 27h1M2 28h2M5 28h4M34 28h2M2 29h3M6 29h5M34 29h1M36 29h1M3 30h3M8 30h3M34 30h1M36 30h1M4 31h4M9 31h2M32 31h4M5 32h5M33 32h2" />
<path stroke="#9e994f" d="M16 5h1M25 5h1M17 6h2M26 6h1M19 7h2M27 7h1M10 8h1M21 8h2M27 8h1M11 9h2M23 9h1M28 9h1M33 9h1M13 10h2M29 10h1M33 10h1M15 11h1M33 11h1M8 12h1M34 12h1M7 13h1M34 13h1M7 14h1M6 15h1M6 16h1M5 17h1M5 18h1M37 18h1M4 19h1M37 19h1M37 20h1M37 21h1M3 22h1M3 23h1M2 24h1M2 25h1M2 26h1M36 27h1M4 28h1M36 28h1M5 29h1M35 29h1M6 30h2M35 30h1M8 31h1" />
</svg>