<svg xmlns="http://www.w3.org/2000/svg" viewBox="0 -0.5 40 53" shape-rendering="crispEdges">
<metadata>Made with Pixels to Svg https://codepen.io/shshaw/pen/XbxvNj</metadata>
<path stroke="#34261a" d="M12 3h19M11 4h20M8 5h25M7 6h26M6 7h29M5 8h30M5 9h32M5 10h32M4 11h34M3 12h35M2 13h15M31 13h7M2 14h15M31 14h7M2 15h9M35 15h3M2 16h9M35 16h4M2 17h9M37 17h2M2 18h9M37 18h2M2 19h11M37 19h2M2 20h11M37 20h2M2 21h3M9 21h4M37 21h2M2 22h3M9 22h4M37 22h1M2 23h3M9 23h4M37 23h1M2 24h3M9 24h4M37 24h1M2 25h3M11 25h2M37 25h1M2 26h3M11 26h2M36 26h2M2 27h7M35 27h2M2 28h7M34 28h3M2 29h9M34 29h3M3 30h8M34 30h3M4 31h7M32 31h4M5 32h5M33 32h2" />
</svg>